{
DisplayStrings = (
"H%/perthousand"
);
copyright = "Copyright (c) 2011-13 by vernon adams. All rights reserved. with\012Reserved Font Names \"Rokkitt\". This\012Font Software is licensed under the SIL Open Font License, Version\0121.1. This license is available with a FAQ at:\012http://scripts.sil.org/OFL";
customParameters = (
{
name = glyphOrder;
value = (
    space,
    nbspace,
    A,
    Agrave,
    Aacute,
    Acircumflex,
    Atilde,
    Adieresis,
    Aring,
    Amacron,
    Abreve,
    Aogonek,
    uni0200,
    uni0202,
    B,
    C,
    Ccedilla,
    Cacute,
    Ccircumflex,
    Cdotaccent,
    Ccaron,
    D,
    Dcaron,
    E,
    Egrave,
    Eacute,
    Ecircumflex,
    Edieresis,
    Emacron,
    Edotaccent,
    Eogonek,
    Ecaron,
    uni0204,
    uni0206,
    F,
    G,
    Gcircumflex,
    Gbreve,
    Gdotaccent,
    Gcommaaccent,
    uni01F4,
    H,
    Hcircumflex,
    I,
    Igrave,
    Iacute,
    Icircumflex,
    Idieresis,
    Itilde,
    Imacron,
    Ibreve,
    Iogonek,
    Idotaccent,
    uni0208,
    uni020A,
    J,
    Jcircumflex,
    K,
    Kcommaaccent,
    L,
    Lacute,
    Lcommaaccent,
    Lcaron,
    M,
    N,
    Ntilde,
    Nacute,
    Ncommaaccent,
    Ncaron,
    O,
    Ograve,
    Oacute,
    Ocircumflex,
    Otilde,
    Odieresis,
    Omacron,
    Obreve,
    Ohungarumlaut,
    uni020C,
    uni020E,
    P,
    Q,
    R,
    Racute,
    Rcommaaccent,
    Rcaron,
    uni0210,
    uni0212,
    S,
    Sacute,
    Scedilla,
    Scaron,
    uni0218,
    T,
    Tcaron,
    uni021A,
    U,
    Ugrave,
    Uacute,
    Ucircumflex,
    Udieresis,
    Utilde,
    Umacron,
    Ubreve,
    Uring,
    Uhungarumlaut,
    Uogonek,
    uni0214,
    uni0216,
    V,
    W,
    X,
    Y,
    Yacute,
    Ydieresis,
    Z,
    Zacute,
    Zdotaccent,
    Zcaron,
    AE,
    Eth,
    Oslash,
    Thorn,
    Hbar,
    IJ,
    Ldot,
    Lslash,
    OE,
    uni01C4,
    uni01c7,
    uni01ca,
    uni01F1,
    a,
    agrave,
    aacute,

glyphs = (
{
glyphname = A;
lastChange = "2013-12-17 14:30:03 -0800";
layers = (
{
anchors = (
{
name = ogonek;
position = "{1099, 0}";
},
{
name = top;
position = "{681, 1152}";
}
);
layerId = "98C086B7-81AA-4491-8494-0C6A76849168";
name = Light;
paths = (
{
closed = 1;
nodes = (
"467 1152 LINE",
"467 1093 LINE",
"614 1093 LINE",
"225 58 LINE",
"73 58 LINE",
"73 0 LINE",
"454 0 LINE",
"454 58 LINE",
"306 58 LINE",
"455 470 LINE",
"899 470 LINE",
"1049 58 LINE",
"900 58 LINE",
"900 0 LINE",
"1281 0 LINE",
"1281 58 LINE",
"1129 58 LINE",
"741 1093 LINE",
"888 1093 LINE",
"888 1152 LINE"
);
},
{
closed = 1;
nodes = (
"888 527 LINE",
"475 527 LINE",
"674 1088 LINE",
"680 1088 LINE"
);
}
);
width = 1354;
},
{
anchors = (
{
name = ogonek;
position = "{985, 0}";
},
{
name = top;
position = "{653, 1153}";
}
);
layerId = "1F09728C-766D-4240-AE17-E499EF32E23D";
name = Regular;
paths = (
{
closed = 1;
nodes = (
"371 1153 LINE",
"371 1037 LINE",
"491 1037 LINE",
"171 116 LINE",
"26 116 LINE",
"26 0 LINE",
"483 0 LINE",
"483 116 LINE",
"337 116 LINE",
"433 424 LINE",
"847 424 LINE",
"946 116 LINE",
"798 116 LINE",
"798 0 LINE",
"1255 0 LINE",
"1255 116 LINE",
"1112 116 LINE",
"790 1037 LINE",
"901 1037 LINE",
"901 1153 LINE"
);
},
{
closed = 1;
nodes = (
"817 545 LINE",
"463 545 LINE",
"634 1037 LINE",
"648 1037 LINE"
);
}
);
width = 1281;
},
{
anchors = (
{
name = ogonek;
position = "{1133, 0}";
},
{
name = top;
position = "{724, 1215}";
}
);
layerId = "EFCDB4D9-E20B-4A8D-9DB5-150AD166B0AE";
name = Bold;
paths = (
{
closed = 1;
nodes = (
"401 1215 LINE",
"401 1075 LINE",
"519 1075 LINE",
"217 141 LINE",
"76 141 LINE",
"76 0 LINE",
"576 0 LINE",
"576 141 LINE",
"417 141 LINE",
"508 436 LINE",
"910 436 LINE",
"1005 141 LINE",
"849 141 LINE",
"849 0 LINE",
"1369 0 LINE",
"1369 141 LINE",
"1236 141 LINE",
"924 1075 LINE",
"1042 1075 LINE",
"1042 1215 LINE"
);
},
{
closed = 1;
nodes = (
"869 577 LINE",
"550 577 LINE",
"703 1075 LINE",
"720 1075 LINE"
);
}
);
width = 1433;
}
);
leftKerningGroup = A_Right;
rightKerningGroup = A_Left;
unicode = 0041;
userData = {
com.typemytype.robofont.layerData = {
b = {
anchors = (
);
components = (
);
contours = (
);
lib = {
};
name = A;
unicodes = (
);
width = 1353.88;
};
};
};
},
{
glyphname = uni0200;
lastChange = "2013-12-15 21:02:57 -0800";
layers = (
{
components = (
{
name = A;
transform = "{1, 0, 0, 1, 0, 0}";
},
{
name = uni030F;
transform = "{1, 0, 0, 1, 297, 347}";
}
);
layerId = "98C086B7-81AA-4491-8494-0C6A76849168";
name = Light;
width = 1354;
},
{
components = (
{
name = A;
transform = "{1, 0, 0, 1, 0, 0}";
},
{
name = uni030F;
transform = "{1, 0, 0, 1, 304, 348}";
}
);
layerId = "1F09728C-766D-4240-AE17-E499EF32E23D";
name = Regular;
width = 1281;
},
{
layerId = "EFCDB4D9-E20B-4A8D-9DB5-150AD166B0AE";
name = Bold;
paths = (
{
closed = 1;
nodes = (
"482 0 LINE",
"482 141 LINE",
"323 141 LINE",
"414 436 LINE",
"816 436 LINE",
"911 141 LINE",
"755 141 LINE",
"755 0 LINE",
"1275 0 LINE",
"1275 141 LINE",
"1142 141 LINE",
"830 1075 LINE",
"948 1075 LINE",
"948 1215 LINE",
"307 1215 LINE",
"307 1075 LINE",
"425 1075 LINE",
"123 141 LINE",
"-18 141 LINE",
"-18 0 LINE"
);
},
{
closed = 1;
nodes = (
"609 1075 LINE",
"626 1075 LINE",
"775 577 LINE",
"456 577 LINE"
);
},
{
closed = 0;
nodes = (
"628 1215 LINE"
);
},
{
closed = 0;
nodes = (
"1130 10 LINE"
);
}
);
width = 1256;
}
);
leftKerningGroup = A_Right;
rightKerningGroup = A_Left;
unicode = 0200;
userData = {
com.typemytype.robofont.layerData = {
b = {
anchors = (
);
components = (
);
contours = (
);
lib = {
};
name = uni0200;
unicodes = (
);
width = 1272;
};
};
};
},
{
glyphname = uni0202;
lastChange = "2013-12-15 21:02:57 -0800";
layers = (
{
components = (
{
name = A;
transform = "{1, 0, 0, 1, 0, 0}";
},
{
name = uni0311;
transform = "{1, 0, 0, 1, 247, 347}";
}
);
layerId = "98C086B7-81AA-4491-8494-0C6A76849168";
name = Light;
width = 1354;
},
{
components = (
{
name = A;
transform = "{1, 0, 0, 1, 0, 0}";
},
{
name = uni0311;
transform = "{1, 0, 0, 1, 354, 348}";
}
);
layerId = "1F09728C-766D-4240-AE17-E499EF32E23D";
name = Regular;
width = 1281;
},
{
layerId = "EFCDB4D9-E20B-4A8D-9DB5-150AD166B0AE";
name = Bold;
paths = (
{
closed = 1;
nodes = (
"503 1335 LINE",
"515 1405 OFFCURVE",
"557 1444 OFFCURVE",
"627 1444 CURVE SMOOTH",
"693 1444 OFFCURVE",
"740 1405 OFFCURVE",
"749 1335 CURVE",
"912 1335 LINE",
"897 1489 OFFCURVE",
"786 1594 OFFCURVE",
"627 1594 CURVE SMOOTH",
"471 1594 OFFCURVE",
"356 1490 OFFCURVE",
"344 1335 CURVE"
);
},
{
closed = 1;
nodes = (
"-18 0 LINE",
"-18 141 LINE",
"123 141 LINE",
"425 1075 LINE",
"307 1075 LINE",
"307 1215 LINE",
"948 1215 LINE",
"948 1075 LINE",
"830 1075 LINE",
"1142 141 LINE",
"1275 141 LINE",
"1275 0 LINE",
"755 0 LINE",
"755 141 LINE",
"911 141 LINE",
"816 436 LINE",
"414 436 LINE",
"323 141 LINE",
"482 141 LINE",
"482 0 LINE"
);
},
{
closed = 1;
nodes = (
"456 577 LINE",
"775 577 LINE",
"626 1075 LINE",
"609 1075 LINE"
);
},
{
closed = 0;
nodes = (
"628 1215 LINE"
);
},
{
closed = 0;
nodes = (
"1130 10 LINE"
);
}
);
width = 1256;
}
);
leftKerningGroup = A_Right;
rightKerningGroup = A_Left;
unicode = 0202;
userData = {
com.typemytype.robofont.layerData = {
b = {
anchors = (
);
components = (
);
contours = (
);
lib = {
};
name = uni0202;
unicodes = (
);
width = 1272;
};
};
};
},
{
glyphname = B;
lastChange = "2013-12-17 14:41:32 -0800";
layers = (
{
anchors = (
{
name = top;
position = "{573, 1152}";
}
);
components = (
{
name = uc_main_stem;
transform = "{1, 0, 0, 1, 0, 0}";
}
);
layerId = "98C086B7-81AA-4491-8494-0C6A76849168";
name = Light;
paths = (
{
closed = 1;
nodes = (
"319 1152 LINE",
"319 1093 LINE",
"740 1093 LINE SMOOTH",
"917 1093 OFFCURVE",
"1004 981 OFFCURVE",
"1004 866 CURVE SMOOTH",
"1004 749 OFFCURVE",
"928 634 OFFCURVE",
"784 634 CURVE SMOOTH",
"323 634 LINE",
"323 573 LINE",
"793 573 LINE SMOOTH",
"979 573 OFFCURVE",
"1072 439 OFFCURVE",
"1072 320 CURVE SMOOTH",
"1072 187 OFFCURVE",
"985 58 OFFCURVE",
"807 58 CURVE SMOOTH",
"322 58 LINE",
"322 0 LINE",
"807 0 LINE SMOOTH",
"1031 0 OFFCURVE",
"1146 158 OFFCURVE",
"1146 316 CURVE SMOOTH",
"1146 439 OFFCURVE",
"1074 568 OFFCURVE",
"919 611 CURVE",
"1029 669 OFFCURVE",
"1079 767 OFFCURVE",
"1079 868 CURVE SMOOTH",
"1079 1010 OFFCURVE",
"964 1152 OFFCURVE",
"740 1152 CURVE SMOOTH"
);
}
);
width = 1286;
},
{
anchors = (
{
name = top;
position = "{560, 1153}";
}
);
components = (
{
name = uc_main_stem;
transform = "{1, 0, 0, 1, 0, 0}";
}
);
layerId = "1F09728C-766D-4240-AE17-E499EF32E23D";
name = Regular;
paths = (
{
closed = 1;
nodes = (
"347 0 LINE",
"589 0 LINE SMOOTH",
"838 0 OFFCURVE",
"1030 94 OFFCURVE",
"1030 323 CURVE SMOOTH",
"1030 478 OFFCURVE",
"937 566 OFFCURVE",
"815 607 CURVE",
"909 649 OFFCURVE",
"976 740 OFFCURVE",
"976 854 CURVE SMOOTH",
"976 1058 OFFCURVE",
"823 1151 OFFCURVE",
"600 1153 CURVE",
"334 1153 LINE",
"334 1037 LINE",
"561 1037 LINE",
"727 1037 OFFCURVE",
"810 975 OFFCURVE",
"810 851 CURVE SMOOTH",
"810 719 OFFCURVE",
"728 662 OFFCURVE",
"585 661 CURVE",
"342 661 LINE",
"342 532 LINE",
"594 532 LINE SMOOTH",
"752 532 OFFCURVE",
"863 466 OFFCURVE",
"863 332 CURVE SMOOTH",
"863 188 OFFCURVE",
"771 116 OFFCURVE",
"588 116 CURVE SMOOTH",
"347 116 LINE"
);
}
);
width = 1155;
},
{
anchors = (
{
name = top;
position = "{562, 1152}";
}
);
components = (
{
name = uc_main_stem;
transform = "{1, 0, 0, 1, 0, 0}";
}
);
layerId = "EFCDB4D9-E20B-4A8D-9DB5-150AD166B0AE";
name = Bold;
paths = (
{
closed = 1;
nodes = (
"395 136 LINE",
"395 0 LINE",
"679 0 LINE SMOOTH",
"1039 0 OFFCURVE",
"1139 175 OFFCURVE",
"1139 331 CURVE SMOOTH",
"1139 474 OFFCURVE",
"1049 574 OFFCURVE",
"909 616 CURVE",
"1011 659 OFFCURVE",
"1083 742 OFFCURVE",
"1083 863 CURVE SMOOTH",
"1083 1051 OFFCURVE",
"936 1152 OFFCURVE",
"661 1152 CURVE SMOOTH",
"395 1152 LINE",
"395 1018 LINE",
"593 1018 LINE",
"789 1018 OFFCURVE",
"863 974 OFFCURVE",
"863 854 CURVE SMOOTH",
"863 740 OFFCURVE",
"791 678 OFFCURVE",
"616 678 CURVE SMOOTH",
"402 678 LINE",
"402 532 LINE",
"643 532 LINE SMOOTH",
"828 532 OFFCURVE",
"914 457 OFFCURVE",
"914 340 CURVE SMOOTH",
"914 212 OFFCURVE",
"845 136 OFFCURVE",
"637 136 CURVE"
);
}
);
width = 1260;
}
);
rightKerningGroup = B_Left;
unicode = 0042;
userData = {
com.typemytype.robofont.layerData = {
b = {
anchors = (
);
components = (
);
contours = (
{
points = (
{
segmentType = line;
smooth = 0;
x = 353;
y = 1095;
},
{
segmentType = line;
smooth = 1;
x = 740;
y = 1095;
},
{
smooth = 0;
x = 917;
y = 1095;
},
{
smooth = 0;
x = 1004;
y = 983;
},
{
segmentType = curve;
smooth = 1;
x = 1004;
y = 868;
},
{
smooth = 0;
x = 1004;
y = 751;
},
{
smooth = 0;
x = 928;
y = 634;
},
{
segmentType = curve;
smooth = 1;
x = 784;
y = 634;
},
{
segmentType = line;
smooth = 0;
x = 353;
y = 634;
}
);
},
{
points = (
{
segmentType = line;
smooth = 0;
x = 353;
y = 573;
},
{
segmentType = line;
smooth = 1;
x = 793;
y = 573;
},
{
smooth = 0;
x = 979;
y = 573;
},
{
smooth = 0;
x = 1072;
y = 439;
},
{
segmentType = curve;
smooth = 1;
x = 1072;
y = 320;
},
{
smooth = 0;
x = 1072;
y = 187;
},
{
smooth = 0;
x = 985;
y = 58;
},
{
segmentType = curve;
smooth = 1;
x = 807;
y = 58;
},
{
segmentType = line;
smooth = 0;
x = 353;
y = 58;
}
);
},
{
points = (
{
segmentType = line;
smooth = 1;
x = 807;
y = 0;
},
{
smooth = 0;
x = 1031;
y = 0;
},
{
smooth = 0;
x = 1146;
y = 158;
},
{
segmentType = curve;
smooth = 1;
x = 1146;
y = 316;
},
{
smooth = 0;
x = 1146;
y = 439;
},
{
smooth = 0;
x = 1074;
y = 568;
},
{
segmentType = curve;
smooth = 0;
x = 919;
y = 611;
},
{
smooth = 0;
x = 1029;
y = 669;
},
{
smooth = 0;
x = 1079;
y = 769;
},
{
segmentType = curve;
smooth = 1;
x = 1079;
y = 870;
},
{
smooth = 0;
x = 1079;
y = 1012;
},
{
smooth = 0;
x = 964;
y = 1154;
},
{
segmentType = curve;
smooth = 1;
x = 740;
y = 1154;
},
{
segmentType = line;
smooth = 0;
x = 122;
y = 1154;
},
{
segmentType = line;
smooth = 0;
x = 122;
y = 1095;
},
{
segmentType = line;
smooth = 0;
x = 278;
y = 1095;
},
{
segmentType = line;
smooth = 0;
x = 278;
y = 58;
},
{
segmentType = line;
smooth = 0;
x = 135;
y = 58;
},
{
segmentType = line;
smooth = 0;
x = 135;
y = 0;
}
);
}
);
lib = {
};
name = B;
unicodes = (
);
width = 1285.625;
};
};
};
},
{
glyphname = C;
lastChange = "2013-12-17 14:30:03 -0800";
layers = (
{
anchors = (
{
name = bot;
position = "{713, 0}";
},
{
name = top;
position = "{720, 1152}";
}
);
layerId = "98C086B7-81AA-4491-8494-0C6A76849168";
name = Light;
paths = (
{
closed = 1;
nodes = (
"367 1172 OFFCURVE",
"116 917 OFFCURVE",
"116 580 CURVE SMOOTH",
"116 171 OFFCURVE",
"420 -23 OFFCURVE",
"698 -23 CURVE SMOOTH",
"943 -23 OFFCURVE",
"1123 70 OFFCURVE",
"1235 263 CURVE",
"1171 311 LINE",
"1070 121 OFFCURVE",
"896 43 OFFCURVE",
"714 43 CURVE SMOOTH",
"361 43 OFFCURVE",
"194 307 OFFCURVE",
"194 580 CURVE SMOOTH",
"194 851 OFFCURVE",
"386 1104 OFFCURVE",
"714 1104 CURVE SMOOTH",
"945 1104 OFFCURVE",
"1101 967 OFFCURVE",
"1169 816 CURVE",
"1227 828 LINE",
"1227 1152 LINE",
"1157 1152 LINE",
"1157 959 LINE",
"1056 1100 OFFCURVE",
"890 1172 OFFCURVE",
"703 1172 CURVE SMOOTH"
);
}
);
width = 1377;
},
{
anchors = (
{
name = bot;
position = "{700, 0}";
},
{
name = top;
position = "{722, 1153}";
}
);
layerId = "1F09728C-766D-4240-AE17-E499EF32E23D";
name = Regular;
paths = (
{
closed = 1;
nodes = (
"359 1171 OFFCURVE",
"108 939 OFFCURVE",
"108 575 CURVE",
"110 214 OFFCURVE",
"356 -18 OFFCURVE",
"700 -18 CURVE SMOOTH",
"963 -18 OFFCURVE",
"1147 113 OFFCURVE",
"1227 307 CURVE",
"1092 378 LINE",
"1035 203 OFFCURVE",
"901 116 OFFCURVE",
"689 116 CURVE SMOOTH",
"458 116 OFFCURVE",
"285 313 OFFCURVE",
"285 580 CURVE SMOOTH",
"285 837 OFFCURVE",
"463 1037 OFFCURVE",
"690 1037 CURVE SMOOTH",
"870 1037 OFFCURVE",
"995 960 OFFCURVE",
"1071 807 CURVE",
"1196 807 LINE",
"1196 1153 LINE",
"1066 1153 LINE",
"1066 1022 LINE",
"971 1121 OFFCURVE",
"851 1171 OFFCURVE",
"708 1171 CURVE SMOOTH"
);
}
);
width = 1300;
},
{
anchors = (
{
name = bot;
position = "{759, 0}";
},
{
name = top;
position = "{745, 1215}";
}
);
layerId = "EFCDB4D9-E20B-4A8D-9DB5-150AD166B0AE";
name = Bold;
paths = (
{
closed = 1;
nodes = (
"360 1233 OFFCURVE",
"124 976 OFFCURVE",
"124 606 CURVE SMOOTH",
"124 266 OFFCURVE",
"332 -17 OFFCURVE",
"751 -19 CURVE",
"1004 -17 OFFCURVE",
"1236 68 OFFCURVE",
"1327 358 CURVE",
"1156 439 LINE",
"1104 230 OFFCURVE",
"944 141 OFFCURVE",
"767 141 CURVE SMOOTH",
"502 141 OFFCURVE",
"361 346 OFFCURVE",
"361 609 CURVE SMOOTH",
"361 878 OFFCURVE",
"516 1074 OFFCURVE",
"768 1074 CURVE SMOOTH",
"922 1074 OFFCURVE",
"1057 1004 OFFCURVE",
"1136 832 CURVE",
"1291 832 LINE",
"1291 1215 LINE",
"1127 1215 LINE",
"1127 1089 LINE",
"1034 1177 OFFCURVE",
"908 1233 OFFCURVE",
"752 1233 CURVE SMOOTH"
);
}
);
width = 1440;
}
);
leftKerningGroup = O_Right;
unicode = 0043;
userData = {
com.typemytype.robofont.layerData = {
b = {
anchors = (
);
components = (
);
contours = (
);
lib = {
};
name = C;
unicodes = (
);
width = 1377.255;
};
};
};
},
{
glyphname = Ccircumflex;
lastChange = "2013-12-15 21:02:57 -0800";
layers = (
{
components = (
{
name = C;
transform = "{1, 0, 0, 1, 0, 0}";
},
{
name = circumflex;
transform = "{1, 0, 0, 1, 506, 347}";
}
);
layerId = "98C086B7-81AA-4491-8494-0C6A76849168";
name = Light;
width = 1377;
},
{
components = (
{
name = C;
transform = "{1, 0, 0, 1, 0, 0}";
},
{
name = circumflex;
transform = "{1, 0, 0, 1, 423, 348}";
}
);
layerId = "1F09728C-766D-4240-AE17-E499EF32E23D";
name = Regular;
width = 1300;
},
{
layerId = "EFCDB4D9-E20B-4A8D-9DB5-150AD166B0AE";
name = Bold;
paths = (
{
closed = 1;
nodes = (
"581 1335 LINE",
"674 1565 LINE",
"767 1335 LINE",
"915 1335 LINE",
"811 1610 LINE",
"536 1610 LINE",
"438 1335 LINE"
);
},
{
closed = 1;
nodes = (
"1278 358 CURVE",
"1107 439 LINE",
"1055 230 OFFCURVE",
"895 141 OFFCURVE",
"718 141 CURVE SMOOTH",
"453 141 OFFCURVE",
"312 346 OFFCURVE",
"312 609 CURVE SMOOTH",
"312 878 OFFCURVE",
"467 1074 OFFCURVE",
"719 1074 CURVE SMOOTH",
"873 1074 OFFCURVE",
"1008 1004 OFFCURVE",
"1087 832 CURVE",
"1242 832 LINE",
"1242 1215 LINE",
"1078 1215 LINE",
"1078 1089 LINE",
"985 1177 OFFCURVE",
"859 1233 OFFCURVE",
"703 1233 CURVE SMOOTH",
"311 1233 OFFCURVE",
"75 976 OFFCURVE",
"75 606 CURVE SMOOTH",
"75 266 OFFCURVE",
"283 -17 OFFCURVE",
"702 -19 CURVE",
"955 -17 OFFCURVE",
"1187 68 OFFCURVE"
);
},
{
closed = 0;
nodes = (
"669 1215 LINE"
);
},
{
closed = 0;
nodes = (
"669 0 LINE"
);
},
{
closed = 0;
nodes = (
"676 1288 LINE"
);
}
);
width = 1337;
}
);
leftKerningGroup = O_Right;
unicode = 0108;
userData = {
com.typemytype.robofont.layerData = {
b = {
anchors = (
);
components = (
);
contours = (
);
lib = {
};
name = Ccircumflex;
unicodes = (
);
width = 1306;
};
};
};
},
{
glyphname = D;
lastChange = "2013-12-17 14:30:03 -0800";
layers = (
{
anchors = (
{
name = mid;
position = "{318, 592}";
},
{
name = top;
position = "{640, 1152}";
}
);
components = (
{
name = uc_main_stem;
transform = "{1, 0, 0, 1, 0, 0}";
}
);
layerId = "98C086B7-81AA-4491-8494-0C6A76849168";
name = Light;
paths = (
{
closed = 1;
nodes = (
"314 1152 LINE",
"314 1093 LINE",
"770 1093 LINE SMOOTH",
"1058 1093 OFFCURVE",
"1201 835 OFFCURVE",
"1201 576 CURVE SMOOTH",
"1201 316 OFFCURVE",
"1059 58 OFFCURVE",
"770 58 CURVE SMOOTH",
"314 58 LINE",
"314 0 LINE",
"770 0 LINE SMOOTH",
"1110 0 OFFCURVE",
"1280 286 OFFCURVE",
"1280 574 CURVE SMOOTH",
"1280 863 OFFCURVE",
"1109 1152 OFFCURVE",
"770 1152 CURVE SMOOTH"
);
}
);
width = 1400;
},
{
anchors = (
{
name = mid;
position = "{355, 591}";
},
{
name = top;
position = "{640, 1153}";
}
);
components = (
{
name = uc_main_stem;
transform = "{1, 0, 0, 1, 0, 0}";
}
);
layerId = "1F09728C-766D-4240-AE17-E499EF32E23D";
name = Regular;
paths = (
{
closed = 1;
nodes = (
"319 1153 LINE",
"319 1036 LINE",
"664 1036 LINE SMOOTH",
"952 1036 OFFCURVE",
"1089 865 OFFCURVE",
"1089 581 CURVE SMOOTH",
"1089 308 OFFCURVE",
"955 116 OFFCURVE",
"680 116 CURVE SMOOTH",
"319 116 LINE",
"319 0 LINE",
"654 0 LINE SMOOTH",
"1054 0 OFFCURVE",
"1254 199 OFFCURVE",
"1254 596 CURVE SMOOTH",
"1254 963 OFFCURVE",
"1031 1153 OFFCURVE",
"668 1153 CURVE SMOOTH"
);
}
);
width = 1362;
},
{
anchors = (
{
name = mid;
position = "{387, 630}";
},
{
name = top;
position = "{642, 1152}";
}
);
components = (
{
name = uc_main_stem;
transform = "{1, 0, 0, 1, 0, 0}";
}
);
layerId = "EFCDB4D9-E20B-4A8D-9DB5-150AD166B0AE";
name = Bold;
paths = (
{
closed = 1;
nodes = (
"125 1152 LINE",
"125 1012 LINE",
"714 1012 LINE SMOOTH",
"1015 1012 OFFCURVE",
"1138 814 OFFCURVE",
"1138 589 CURVE SMOOTH",
"1138 319 OFFCURVE",
"1019 141 OFFCURVE",
"706 141 CURVE SMOOTH",
"125 141 LINE",
"125 0 LINE",
"725 0 LINE SMOOTH",
"1150 0 OFFCURVE",
"1364 216 OFFCURVE",
"1364 595 CURVE SMOOTH",
"1364 889 OFFCURVE",
"1159 1152 OFFCURVE",
"726 1152 CURVE SMOOTH"
);
}
);
width = 1488;
}
);
leftKerningGroup = H_Right;
rightKerningGroup = O_Left;
unicode = 0044;
userData = {
com.typemytype.robofont.layerData = {
b = {
anchors = (
);
components = (
);
contours = (
);
lib = {
};
name = D;
unicodes = (
);
width = 1400;
};
};
};
},
{
glyphname = E;
lastChange = "2013-12-17 18:46:27 -0800";
layers = (
{
anchors = (
{
name = ogonek;
position = "{686, 0}";
},
{
name = top;
position = "{652, 1152}";
}
);
components = (
{
name = uc_main_stem;
transform = "{1, 0, 0, 1, 0, 0}";
}
);
layerId = "98C086B7-81AA-4491-8494-0C6A76849168";
name = Light;
paths = (
{
closed = 1;
nodes = (
"1003 352 LINE",
"1003 58 LINE",
"315 58 LINE",
"315 0 LINE",
"1075 0 LINE",
"1075 352 LINE"
);
},
{
closed = 1;
nodes = (
"768 770 LINE",
"768 623 LINE",
"321 623 LINE",
"321 557 LINE",
"768 557 LINE",
"768 396 LINE",
"830 396 LINE",
"830 770 LINE"
);
},
{
closed = 1;
nodes = (
"315 1152 LINE",
"315 1093 LINE",
"984 1093 LINE",
"984 802 LINE",
"1055 802 LINE",
"1055 1152 LINE"
);
}
);
width = 1211;
},
{
anchors = (
{
name = ogonek;
position = "{755, 0}";
},
{
name = top;
position = "{637, 1153}";
}
);
components = (
{
name = uc_main_stem;
transform = "{1, 0, 0, 1, 0, 0}";
}
);
layerId = "1F09728C-766D-4240-AE17-E499EF32E23D";
name = Regular;
paths = (
{
closed = 1;
nodes = (
"334 1152 LINE",
"334 1037 LINE",
"954 1037 LINE",
"954 818 LINE",
"1085 818 LINE",
"1085 1152 LINE"
);
},
{
closed = 1;
nodes = (
"956 328 LINE",
"956 116 LINE",
"334 116 LINE",
"334 0 LINE",
"1085 0 LINE",
"1085 328 LINE"
);
},
{
closed = 1;
nodes = (
"791 769 LINE",
"791 655 LINE",
"338 655 LINE",
"340 526 LINE",
"790 526 LINE",
"790 410 LINE",
"891 410 LINE",
"891 769 LINE"
);
}
);
width = 1209;
},
{
anchors = (
{
name = bot;
position = "{695, 0}";
},
{
name = ogonek;
position = "{755, 0}";
},
{
name = top;
position = "{686, 1152}";
}
);
components = (
{
name = uc_main_stem;
transform = "{1, 0, 0, 1, 0, 0}";
}
);
layerId = "EFCDB4D9-E20B-4A8D-9DB5-150AD166B0AE";
name = Bold;
paths = (
{
closed = 1;
nodes = (
"1000 355 LINE",
"1000 141 LINE",
"397 141 LINE",
"397 0 LINE",
"1166 0 LINE",
"1166 355 LINE"
);
},
{
closed = 1;
nodes = (
"829 792 LINE",
"829 676 LINE",
"408 676 LINE",
"409 527 LINE",
"829 527 LINE",
"829 414 LINE",
"931 414 LINE",
"931 792 LINE"
);
},
{
closed = 1;
nodes = (
"397 1152 LINE",
"397 1012 LINE",
"998 1012 LINE",
"998 804 LINE",
"1164 804 LINE",
"1164 1152 LINE"
);
}
);
width = 1314;
}
);
leftKerningGroup = H_Right;
unicode = 0045;
userData = {
com.typemytype.robofont.layerData = {
b = {
anchors = (
);
components = (
);
contours = (
);
lib = {
};
name = E;
unicodes = (
);
width = 1210.825;
};
};
};
},
{
glyphname = F;
lastChange = "2013-12-17 14:30:03 -0800";
layers = (
{
components = (
{
name = uc_main_stem;
transform = "{1, 0, 0, 1, 0, 0}";
}
);
layerId = "98C086B7-81AA-4491-8494-0C6A76849168";
name = Light;
paths = (
{
closed = 1;
nodes = (
"315 1152 LINE",
"315 1093 LINE",
"988 1093 LINE",
"988 802 LINE",
"1059 802 LINE",
"1059 1152 LINE"
);
},
{
closed = 1;
nodes = (
"808 770 LINE",
"808 623 LINE",
"323 623 LINE",
"323 557 LINE",
"808 557 LINE",
"808 396 LINE",
"870 396 LINE",
"870 770 LINE"
);
}
);
width = 1137;
},
{
anchors = (
{
name = top;
position = "{610, 1153}";
}
);
components = (
{
name = uc_main_stem;
transform = "{1, 0, 0, 1, 0, 0}";
}
);
layerId = "1F09728C-766D-4240-AE17-E499EF32E23D";
name = Regular;
paths = (
{
closed = 1;
nodes = (
"333 1153 LINE",
"333 1037 LINE",
"899 1037 LINE",
"899 818 LINE",
"1031 818 LINE",
"1031 1153 LINE"
);
},
{
closed = 1;
nodes = (
"740 771 LINE",
"740 657 LINE",
"337 657 LINE",
"338 528 LINE",
"739 528 LINE",
"739 412 LINE",
"840 412 LINE",
"840 771 LINE"
);
}
);
width = 1077;
},
{
components = (
{
name = uc_main_stem;
transform = "{1, 0, 0, 1, 0, 0}";
}
);
layerId = "EFCDB4D9-E20B-4A8D-9DB5-150AD166B0AE";
name = Bold;
paths = (
{
closed = 1;
nodes = (
"377 1152 LINE",
"377 1012 LINE",
"962 1012 LINE",
"962 805 LINE",
"1131 805 LINE",
"1131 1152 LINE"
);
},
{
closed = 1;
nodes = (
"785 809 LINE",
"785 697 LINE",
"398 697 LINE",
"398 547 LINE",
"785 547 LINE",
"785 434 LINE",
"891 434 LINE",
"891 809 LINE"
);
}
);
width = 1193;
}
);
leftKerningGroup = H_Right;
unicode = 0046;
userData = {
com.typemytype.robofont.layerData = {
b = {
anchors = (
);
components = (
);
contours = (
{
points = (
{
segmentType = line;
smooth = 0;
x = 990;
y = 1086;
},
{
segmentType = line;
smooth = 0;
x = 990;
y = 802;
},
{
segmentType = line;
smooth = 0;
x = 1062;
y = 802;
},
{
segmentType = line;
smooth = 0;
x = 1062;
y = 1152;
},
{
segmentType = line;
smooth = 0;
x = 122;
y = 1152;
},
{
segmentType = line;
smooth = 0;
x = 122;
y = 1086;
},
{
segmentType = line;
smooth = 0;
x = 286;
y = 1086;
},
{
segmentType = line;
smooth = 0;
x = 286;
y = 1039;
},
{
segmentType = line;
smooth = 0;
x = 363;
y = 1039;
},
{
segmentType = line;
smooth = 0;
x = 363;
y = 1086;
}
);
},
{
points = (
{
segmentType = line;
smooth = 0;
x = 286;
y = 1039;
},
{
segmentType = line;
smooth = 0;
x = 286;
y = 677;
},
{
segmentType = line;
smooth = 0;
x = 363;
y = 677;
},
{
segmentType = line;
smooth = 0;
x = 363;
y = 1039;
}
);
},
{
points = (
{
segmentType = line;
smooth = 0;
x = 286;
y = 677;
},
{
segmentType = line;
smooth = 0;
x = 286;
y = 65;
},
{
segmentType = line;
smooth = 0;
x = 122;
y = 65;
},
{
segmentType = line;
smooth = 0;
x = 122;
y = 0;
},
{
segmentType = line;
smooth = 0;
x = 552;
y = 0;
},
{
segmentType = line;
smooth = 0;
x = 552;
y = 65;
},
{
segmentType = line;
smooth = 0;
x = 363;
y = 65;
},
{
segmentType = line;
smooth = 0;
x = 363;
y = 539;
},
{
segmentType = line;
smooth = 0;
x = 824;
y = 539;
},
{
segmentType = line;
smooth = 0;
x = 824;
y = 378;
},
{
segmentType = line;
smooth = 0;
x = 886;
y = 378;
},
{
segmentType = line;
smooth = 0;
x = 886;
y = 764;
},
{
segmentType = line;
smooth = 0;
x = 824;
y = 764;
},
{
segmentType = line;
smooth = 0;
x = 824;
y = 601;
},
{
segmentType = line;
smooth = 0;
x = 363;
y = 601;
},
{
segmentType = line;
smooth = 0;
x = 363;
y = 677;
}
);
}
);
lib = {
};
name = F;
unicodes = (
);
width = 1136.96;
};
};
};
},
{
glyphname = G;
lastChange = "2013-12-17 14:30:03 -0800";
layers = (
{
anchors = (
{
name = bot;
position = "{713, 0}";
},
{
name = top;
position = "{702, 1152}";
}
);
layerId = "98C086B7-81AA-4491-8494-0C6A76849168";
name = Light;
paths = (
{
closed = 1;
nodes = (
"367 1172 OFFCURVE",
"116 917 OFFCURVE",
"116 580 CURVE SMOOTH",
"116 171 OFFCURVE",
"424 -23 OFFCURVE",
"702 -23 CURVE SMOOTH",
"949 -23 OFFCURVE",
"1253 93 OFFCURVE",
"1253 549 CURVE",
"927 549 LINE",
"927 488 LINE",
"1174 488 LINE",
"1168 146 OFFCURVE",
"906 43 OFFCURVE",
"714 43 CURVE SMOOTH",
"361 43 OFFCURVE",
"194 303 OFFCURVE",
"194 580 CURVE SMOOTH",
"194 851 OFFCURVE",
"386 1104 OFFCURVE",
"714 1104 CURVE SMOOTH",
"934 1104 OFFCURVE",
"1081 978 OFFCURVE",
"1146 838 CURVE",
"1204 838 LINE",
"1204 1152 LINE",
"1134 1152 LINE",
"1134 981 LINE",
"1037 1107 OFFCURVE",
"882 1172 OFFCURVE",
"703 1172 CURVE SMOOTH"
);
}
);
width = 1385;
},
{
anchors = (
{
name = bot;
position = "{718, 0}";
},
{
name = top;
position = "{690, 1153}";
}
);
layerId = "1F09728C-766D-4240-AE17-E499EF32E23D";
name = Regular;
paths = (
{
closed = 1;
nodes = (
"352 1171 OFFCURVE",
"108 925 OFFCURVE",
"108 575 CURVE SMOOTH",
"108 201 OFFCURVE",
"372 -18 OFFCURVE",
"716 -18 CURVE SMOOTH",
"1079 -18 OFFCURVE",
"1265 179 OFFCURVE",
"1265 563 CURVE",
"874 563 LINE",
"874 436 LINE",
"1101 436 LINE",
"1094 235 OFFCURVE",
"961 116 OFFCURVE",
"715 116 CURVE SMOOTH",
"462 116 OFFCURVE",
"285 304 OFFCURVE",
"285 576 CURVE SMOOTH",
"285 843 OFFCURVE",
"461 1037 OFFCURVE",
"704 1037 CURVE SMOOTH",
"881 1037 OFFCURVE",
"1009 960 OFFCURVE",
"1088 806 CURVE",
"1212 806 LINE",
"1212 1153 LINE",
"1082 1153 LINE",
"1082 1022 LINE",
"983 1121 OFFCURVE",
"854 1171 OFFCURVE",
"695 1171 CURVE SMOOTH"
);
}
);
width = 1370;
},
{
anchors = (
{
name = bot;
position = "{745, 0}";
},
{
name = top;
position = "{745, 1215}";
}
);
layerId = "EFCDB4D9-E20B-4A8D-9DB5-150AD166B0AE";
name = Bold;
paths = (
{
closed = 1;
nodes = (
"317 1233 OFFCURVE",
"124 914 OFFCURVE",
"124 610 CURVE SMOOTH",
"124 338 OFFCURVE",
"278 -19 OFFCURVE",
"774 -19 CURVE SMOOTH",
"1146 -19 OFFCURVE",
"1379 166 OFFCURVE",
"1383 598 CURVE",
"916 598 LINE",
"916 448 LINE",
"1152 448 LINE",
"1146 258 OFFCURVE",
"1023 146 OFFCURVE",
"783 141 CURVE",
"523 141 OFFCURVE",
"362 327 OFFCURVE",
"362 615 CURVE SMOOTH",
"362 882 OFFCURVE",
"516 1074 OFFCURVE",
"777 1074 CURVE SMOOTH",
"950 1074 OFFCURVE",
"1081 991 OFFCURVE",
"1154 831 CURVE",
"1309 831 LINE",
"1309 1215 LINE",
"1138 1215 LINE",
"1138 1093 LINE",
"1049 1177 OFFCURVE",
"913 1233 OFFCURVE",
"751 1233 CURVE SMOOTH"
);
}
);
width = 1488;
}
);
leftKerningGroup = O_Right;
unicode = 0047;
userData = {
com.typemytype.robofont.layerData = {
b = {
anchors = (
);
components = (
);
contours = (
);
lib = {
};
name = G;
unicodes = (
);
width = 1384.735;
};
};
};
},
{
glyphname = Gcircumflex;
lastChange = "2013-12-15 21:02:57 -0800";
layers = (
{
components = (
{
name = G;
transform = "{1, 0, 0, 1, 0, 0}";
},
{
name = circumflex;
transform = "{1, 0, 0, 1, 488, 347}";
}
);
layerId = "98C086B7-81AA-4491-8494-0C6A76849168";
name = Light;
width = 1385;
},
{
components = (
{
name = G;
transform = "{1, 0, 0, 1, 0, 0}";
},
{
name = circumflex;
transform = "{1, 0, 0, 1, 391, 348}";
}
);
layerId = "1F09728C-766D-4240-AE17-E499EF32E23D";
name = Regular;
width = 1370;
},
{
layerId = "EFCDB4D9-E20B-4A8D-9DB5-150AD166B0AE";
name = Bold;
paths = (
{
closed = 1;
nodes = (
"594 1262 LINE",
"687 1492 LINE",
"780 1262 LINE",
"928 1262 LINE",
"824 1537 LINE",
"549 1537 LINE",
"451 1262 LINE"
);
},
{
closed = 1;
nodes = (
"860 448 LINE",
"1096 448 LINE",
"1090 258 OFFCURVE",
"967 146 OFFCURVE",
"727 141 CURVE",
"467 141 OFFCURVE",
"306 327 OFFCURVE",
"306 615 CURVE SMOOTH",
"306 882 OFFCURVE",
"460 1074 OFFCURVE",
"721 1074 CURVE SMOOTH",
"894 1074 OFFCURVE",
"1025 991 OFFCURVE",
"1098 831 CURVE",
"1253 831 LINE",
"1253 1215 LINE",
"1082 1215 LINE",
"1082 1093 LINE",
"993 1177 OFFCURVE",
"857 1233 OFFCURVE",
"695 1233 CURVE SMOOTH",
"261 1233 OFFCURVE",
"68 914 OFFCURVE",
"68 610 CURVE SMOOTH",
"68 338 OFFCURVE",
"222 -19 OFFCURVE",
"718 -19 CURVE SMOOTH",
"1090 -19 OFFCURVE",
"1323 166 OFFCURVE",
"1327 598 CURVE",
"860 598 LINE"
);
},
{
closed = 0;
nodes = (
"689 1215 LINE"
);
},
{
closed = 0;
nodes = (
"689 1215 LINE"
);
},
{
closed = 0;
nodes = (
"689 0 LINE"
);
}
);
width = 1380;
}
);
leftKerningGroup = O_Right;
unicode = 011C;
userData = {
com.typemytype.robofont.layerData = {
b = {
anchors = (
);
components = (
);
contours = (
);
lib = {
};
name = Gcircumflex;
unicodes = (
);
width = 1319;
};
};
};
},
{
glyphname = H;
lastChange = "2013-12-17 14:42:25 -0800";
layers = (
{
anchors = (
{
name = bot;
position = "{724, 0}";
},
{
name = top;
position = "{721, 1152}";
}
);
components = (
{
name = uc_main_stem;
transform = "{1, 0, 0, 1, 810, 0}";
},
{
name = uc_main_stem;
transform = "{1, 0, 0, 1, 0, 0}";
}
);
layerId = "98C086B7-81AA-4491-8494-0C6A76849168";
name = Light;
paths = (
{
closed = 1;
nodes = (
"320 618 LINE",
"320 559 LINE",
"1130 559 LINE",
"1130 618 LINE"
);
}
);
width = 1445;
},
{
anchors = (
{
name = bot;
position = "{692, 0}";
},
{
name = top;
position = "{687, 1153}";
}
);
components = (
{
name = uc_main_stem;
transform = "{1, 0, 0, 1, 712, 0}";
},
{
name = uc_main_stem;
transform = "{1, 0, 0, 1, 0, 0}";
}
);
layerId = "1F09728C-766D-4240-AE17-E499EF32E23D";
name = Regular;
paths = (
{
closed = 1;
nodes = (
"342 667 LINE",
"343 538 LINE",
"1043 538 LINE",
"1042 667 LINE"
);
}
);
width = 1354;
},
{
anchors = (
{
name = bot;
position = "{762, 0}";
},
{
name = top;
position = "{757, 1152}";
}
);
components = (
{
name = uc_main_stem;
transform = "{1, 0, 0, 1, 752, 0}";
},
{
name = uc_main_stem;
transform = "{1, 0, 0, 1, 0, 0}";
}
);
layerId = "EFCDB4D9-E20B-4A8D-9DB5-150AD166B0AE";
name = Bold;
paths = (
{
closed = 1;
nodes = (
"406 674 LINE",
"406 521 LINE",
"1144 521 LINE",
"1144 674 LINE"
);
}
);
width = 1513;
}
);
leftKerningGroup = H_Right;
rightKerningGroup = H_Left;
unicode = 0048;
userData = {
com.typemytype.robofont.layerData = {
b = {
anchors = (
);
components = (
);
contours = (
);
lib = {
};
name = H;
unicodes = (
);
width = 1445;
};
};
};
},
{
glyphname = J;
lastChange = "2013-12-17 14:30:03 -0800";
layers = (
{
anchors = (
{
name = top;
position = "{369, 1152}";
}
);
layerId = "98C086B7-81AA-4491-8494-0C6A76849168";
name = Light;
paths = (
{
closed = 1;
nodes = (
"195 1152 LINE",
"195 1096 LINE",
"325 1096 LINE",
"325 33 LINE SMOOTH",
"325 -88 OFFCURVE",
"310 -111 OFFCURVE",
"229 -111 CURVE SMOOTH",
"158 -111 LINE",
"158 -178 LINE",
"224 -178 LINE SMOOTH",
"342 -178 OFFCURVE",
"402 -156 OFFCURVE",
"402 23 CURVE SMOOTH",
"402 1096 LINE",
"532 1096 LINE",
"532 1152 LINE"
);
}
);
width = 611;
},
{
anchors = (
{
name = top;
position = "{426, 1152}";
}
);
layerId = "1F09728C-766D-4240-AE17-E499EF32E23D";
name = Regular;
paths = (
{
closed = 1;
nodes = (
"184 1152 LINE",
"184 1036 LINE",
"339 1036 LINE",
"339 104 LINE SMOOTH",
"339 9 OFFCURVE",
"318 -44 OFFCURVE",
"228 -44 CURVE SMOOTH",
"108 -44 LINE",
"108 -179 LINE",
"255 -179 LINE",
"414 -181 OFFCURVE",
"502 -74 OFFCURVE",
"502 99 CURVE SMOOTH",
"502 1036 LINE",
"655 1036 LINE",
"655 1152 LINE"
);
}
);
width = 761;
},
{
anchors = (
{
name = top;
position = "{455, 1152}";
}
);
layerId = "EFCDB4D9-E20B-4A8D-9DB5-150AD166B0AE";
name = Bold;
paths = (
{
closed = 1;
nodes = (
"177 1152 LINE",
"177 1012 LINE",
"346 1012 LINE",
"346 80 LINE SMOOTH",
"346 -10 OFFCURVE",
"327 -83 OFFCURVE",
"219 -83 CURVE SMOOTH",
"94 -83 LINE",
"94 -256 LINE",
"265 -256 LINE SMOOTH",
"489 -256 OFFCURVE",
"565 -121 OFFCURVE",
"565 88 CURVE SMOOTH",
"565 1012 LINE",
"727 1012 LINE",
"727 1152 LINE"
);
}
);
width = 792;
}
);
unicode = 004A;
userData = {
com.typemytype.robofont.layerData = {
b = {
anchors = (
);
components = (
);
contours = (
);
lib = {
};
name = J;
unicodes = (
);
width = 611.49;
};
};
};
},
{
glyphname = K;
lastChange = "2013-12-17 14:30:03 -0800";
layers = (
{
anchors = (
{
name = bot;
position = "{663, 0}";
},
{
name = top;
position = "{650, 1152}";
}
);
components = (
{
name = uc_main_stem;
transform = "{1, 0, 0, 1, 0, 0}";
}
);
layerId = "98C086B7-81AA-4491-8494-0C6A76849168";
name = Light;
paths = (
{
closed = 1;
nodes = (
"764 1152 LINE",
"764 1096 LINE",
"907 1096 LINE",
"350 593 LINE",
"952 56 LINE",
"796 56 LINE",
"796 0 LINE",
"1201 0 LINE",
"1201 56 LINE",
"1062 56 LINE",
"448 593 LINE",
"1006 1096 LINE",
"1168 1096 LINE",
"1168 1152 LINE"
);
}
);
width = 1270;
},
{
anchors = (
{
name = bot;
position = "{660, 0}";
},
{
name = top;
position = "{670, 1153}";
}
);
components = (
{
name = uc_main_stem;
transform = "{1, 0, 0, 1, 14, 0}";
}
);
layerId = "1F09728C-766D-4240-AE17-E499EF32E23D";
name = Regular;
paths = (
{
closed = 1;
nodes = (
"743 1153 LINE",
"743 1037 LINE",
"879 1037 LINE",
"424 604 LINE",
"425 573 LINE",
"892 116 LINE",
"739 116 LINE",
"739 0 LINE",
"1220 0 LINE",
"1220 116 LINE",
"1089 116 LINE",
"600 589 LINE",
"1065 1037 LINE",
"1194 1037 LINE",
"1194 1153 LINE"
);
}
);
width = 1237;
},
{
anchors = (
{
name = bot;
position = "{704, 0}";
},
{
name = top;
position = "{715, 1152}";
}
);
components = (
{
name = uc_main_stem;
transform = "{1, 0, 0, 1, 0, 0}";
}
);
layerId = "EFCDB4D9-E20B-4A8D-9DB5-150AD166B0AE";
name = Bold;
paths = (
{
closed = 1;
nodes = (
"802 1152 LINE",
"802 1012 LINE",
"922 1012 LINE",
"484 595 LINE",
"485 546 LINE",
"900 141 LINE",
"776 141 LINE",
"776 0 LINE",
"1320 0 LINE",
"1320 141 LINE",
"1169 141 LINE",
"719 579 LINE",
"1180 1012 LINE",
"1319 1012 LINE",
"1319 1152 LINE"
);
}
);
width = 1384;
}
);
leftKerningGroup = H_Right;
unicode = 004B;
userData = {
com.typemytype.robofont.guides = (
{
angle = 0;
isGlobal = 0;
magnetic = 5;
x = 467;
y = 593;
}
);
com.typemytype.robofont.layerData = {
b = {
anchors = (
);
components = (
);
contours = (
);
lib = {
};
name = K;
unicodes = (
);
width = 1269.73;
};
};
};
},
{
glyphname = L;
lastChange = "2013-12-17 18:14:07 -0800";
layers = (
{
anchors = (
{
name = bot;
position = "{613, 0}";
},
{
name = mid;
position = "{684, 805}";
},
{
name = top;
position = "{680, 1152}";
}
);
components = (
{
name = uc_main_stem;
transform = "{1, 0, 0, 1, 0, 0}";
}
);
layerId = "98C086B7-81AA-4491-8494-0C6A76849168";
name = Light;
paths = (
{
closed = 1;
nodes = (
"916 385 LINE",
"916 58 LINE",
"314 58 LINE",
"314 0 LINE",
"987 0 LINE",
"987 385 LINE"
);
}
);
width = 1041;
},
{
anchors = (
{
name = bot;
position = "{555, 0}";
},
{
name = top;
position = "{640, 1153}";
}
);
components = (
{
name = uc_main_stem;
transform = "{1, 0, 0, 1, 0, 0}";
}
);
layerId = "1F09728C-766D-4240-AE17-E499EF32E23D";
name = Regular;
paths = (
{
closed = 1;
nodes = (
"843 452 LINE",
"843 116 LINE",
"334 116 LINE",
"334 0 LINE",
"988 0 LINE",
"988 452 LINE"
);
}
);
width = 1084;
},
{
anchors = (
{
name = bot;
position = "{599, 0}";
},
{
name = mid;
position = "{805, 733}";
},
{
name = top;
position = "{825, 1152}";
}
);
components = (
{
name = uc_main_stem;
transform = "{1, 0, 0, 1, 0, 0}";
}
);
layerId = "EFCDB4D9-E20B-4A8D-9DB5-150AD166B0AE";
name = Bold;
paths = (
{
closed = 1;
nodes = (
"921 506 LINE",
"921 141 LINE",
"395 141 LINE",
"395 0 LINE",
"1101 0 LINE",
"1101 506 LINE"
);
}
);
width = 1189;
}
);
leftKerningGroup = H_Right;
unicode = 004C;
userData = {
com.typemytype.robofont.layerData = {
b = {
anchors = (
);
components = (
);
contours = (
);
lib = {
};
name = L;
unicodes = (
);
width = 1040.655;
};
};
};
},
{
glyphname = M;
lastChange = "2013-12-17 14:43:43 -0800";
layers = (
{
anchors = (
{
name = top;
position = "{800, 1152}";
}
);
layerId = "98C086B7-81AA-4491-8494-0C6A76849168";
name = Light;
paths = (
{
closed = 1;
nodes = (
"1243 1152 LINE",
"812 226 LINE",
"362 1152 LINE",
"122 1152 LINE",
"122 1093 LINE",
"273 1093 LINE",
"273 58 LINE",
"122 58 LINE",
"122 0 LINE",
"497 0 LINE",
"497 58 LINE",
"347 58 LINE",
"347 1015 LINE",
"804 88 LINE",
"819 88 LINE",
"1258 1015 LINE",
"1258 58 LINE",
"1107 58 LINE",
"1107 0 LINE",
"1482 0 LINE",
"1482 58 LINE",
"1331 58 LINE",
"1331 1093 LINE",
"1482 1093 LINE",
"1482 1152 LINE"
);
}
);
width = 1604;
},
{
anchors = (
{
name = top;
position = "{850, 1153}";
}
);
layerId = "1F09728C-766D-4240-AE17-E499EF32E23D";
name = Regular;
paths = (
{
closed = 1;
nodes = (
"1170 1153 LINE",
"832 362 LINE",
"499 1153 LINE",
"114 1153 LINE",
"114 1037 LINE",
"262 1037 LINE",
"262 116 LINE",
"114 116 LINE",
"114 0 LINE",
"529 0 LINE",
"529 116 LINE",
"396 116 LINE",
"396 1022 LINE",
"808 45 LINE",
"850 45 LINE",
"1265 1023 LINE",
"1265 116 LINE",
"1132 116 LINE",
"1132 0 LINE",
"1560 0 LINE",
"1560 116 LINE",
"1413 116 LINE",
"1413 1037 LINE",
"1560 1037 LINE",
"1560 1153 LINE"
);
}
);
width = 1674;
},
{
anchors = (
{
name = top;
position = "{925, 1152}";
}
);
layerId = "EFCDB4D9-E20B-4A8D-9DB5-150AD166B0AE";
name = Bold;
paths = (
{
closed = 1;
nodes = (
"1253 1152 LINE",
"921 399 LINE",
"586 1152 LINE",
"125 1152 LINE",
"125 1012 LINE",
"282 1012 LINE",
"282 141 LINE",
"125 141 LINE",
"125 0 LINE",
"587 0 LINE",
"587 141 LINE",
"440 141 LINE",
"440 997 LINE",
"866 40 LINE",
"941 40 LINE",
"1369 998 LINE",
"1369 141 LINE",
"1222 141 LINE",
"1222 0 LINE",
"1731 0 LINE",
"1731 141 LINE",
"1574 141 LINE",
"1574 1012 LINE",
"1730 1012 LINE",
"1730 1152 LINE"
);
}
);
width = 1856;
}
);
leftKerningGroup = H_Right;
rightKerningGroup = H_Left;
unicode = 004D;
userData = {
com.typemytype.robofont.layerData = {
b = {
anchors = (
);
components = (
);
contours = (
);
lib = {
};
name = M;
unicodes = (
);
width = 1604.46;
};
};
};
},
{
glyphname = N;
lastChange = "2013-12-17 14:30:03 -0800";
layers = (
{
anchors = (
{
name = bot;
position = "{713, 0}";
},
{
name = top;
position = "{710, 1152}";
}
);
layerId = "98C086B7-81AA-4491-8494-0C6A76849168";
name = Light;
paths = (
{
closed = 1;
nodes = (
"985 1152 LINE",
"985 1093 LINE",
"1136 1093 LINE",
"1136 117 LINE",
"347 1152 LINE",
"122 1152 LINE",
"122 1093 LINE",
"273 1093 LINE",
"273 58 LINE",
"122 58 LINE",
"122 0 LINE",
"497 0 LINE",
"497 58 LINE",
"347 58 LINE",
"347 1040 LINE",
"1136 0 LINE",
"1210 0 LINE",
"1210 1093 LINE",
"1347 1093 LINE",
"1347 1152 LINE"
);
}
);
width = 1423;
},
{
anchors = (
{
name = bot;
position = "{755, 0}";
},
{
name = top;
position = "{720, 1153}";
}
);
layerId = "1F09728C-766D-4240-AE17-E499EF32E23D";
name = Regular;
paths = (
{
closed = 1;
nodes = (
"879 1153 LINE",
"879 1037 LINE",
"1044 1037 LINE",
"1044 211 LINE",
"496 1153 LINE",
"114 1153 LINE",
"114 1037 LINE",
"283 1037 LINE",
"283 116 LINE",
"114 116 LINE",
"114 0 LINE",
"586 0 LINE",
"586 116 LINE",
"417 116 LINE",
"417 997 LINE",
"995 0 LINE",
"1178 0 LINE",
"1178 1037 LINE",
"1351 1037 LINE",
"1351 1153 LINE"
);
}
);
width = 1416;
},
{
anchors = (
{
name = bot;
position = "{789, 0}";
},
{
name = top;
position = "{785, 1152}";
}
);
layerId = "EFCDB4D9-E20B-4A8D-9DB5-150AD166B0AE";
name = Bold;
paths = (
{
closed = 1;
nodes = (
"957 1152 LINE",
"957 1012 LINE",
"1126 1012 LINE",
"1126 289 LINE",
"561 1152 LINE",
"125 1152 LINE",
"125 1012 LINE",
"298 1012 LINE",
"298 141 LINE",
"125 141 LINE",
"125 0 LINE",
"631 0 LINE",
"631 141 LINE",
"461 141 LINE",
"461 943 LINE",
"1074 0 LINE",
"1290 0 LINE",
"1290 1012 LINE",
"1468 1012 LINE",
"1468 1152 LINE"
);
}
);
width = 1571;
}
);
leftKerningGroup = H_Right;
rightKerningGroup = H_Left;
unicode = 004E;
userData = {
com.typemytype.robofont.layerData = {
b = {
anchors = (
);
components = (
);
contours = (
);
lib = {
};
name = N;
unicodes = (
);
width = 1423.07;
};
};
};
},
{
glyphname = O;
lastChange = "2013-12-17 14:30:03 -0800";
layers = (
{
anchors = (
{
name = ogonek;
position = "{779, 0}";
},
{
name = top;
position = "{717, 1152}";
}
);
layerId = "98C086B7-81AA-4491-8494-0C6A76849168";
name = Light;
paths = (
{
closed = 1;
nodes = (
"321 1172 OFFCURVE",
"120 872 OFFCURVE",
"120 572 CURVE SMOOTH",
"120 273 OFFCURVE",
"319 -23 OFFCURVE",
"718 -23 CURVE SMOOTH",
"1118 -23 OFFCURVE",
"1317 273 OFFCURVE",
"1317 572 CURVE SMOOTH",
"1317 872 OFFCURVE",
"1116 1172 OFFCURVE",
"718 1172 CURVE SMOOTH"
);
},
{
closed = 1;
nodes = (
"1061 1104 OFFCURVE",
"1238 836 OFFCURVE",
"1238 573 CURVE SMOOTH",
"1238 309 OFFCURVE",
"1061 43 OFFCURVE",
"718 43 CURVE SMOOTH",
"369 43 OFFCURVE",
"198 302 OFFCURVE",
"198 573 CURVE SMOOTH",
"198 836 OFFCURVE",
"372 1104 OFFCURVE",
"718 1104 CURVE SMOOTH"
);
}
);
width = 1437;
},
{
anchors = (
{
name = ogonek;
position = "{755, 0}";
},
{
name = top;
position = "{700, 1153}";
}
);
layerId = "1F09728C-766D-4240-AE17-E499EF32E23D";
name = Regular;
paths = (
{
closed = 1;
nodes = (
"348 1171 OFFCURVE",
"108 923 OFFCURVE",
"108 575 CURVE SMOOTH",
"108 229 OFFCURVE",
"351 -16 OFFCURVE",
"702 -18 CURVE",
"1053 -18 OFFCURVE",
"1298 234 OFFCURVE",
"1298 575 CURVE SMOOTH",
"1298 924 OFFCURVE",
"1055 1171 OFFCURVE",
"701 1171 CURVE SMOOTH"
);
},
{
closed = 1;
nodes = (
"953 1036 OFFCURVE",
"1120 831 OFFCURVE",
"1120 576 CURVE SMOOTH",
"1120 322 OFFCURVE",
"954 116 OFFCURVE",
"702 116 CURVE SMOOTH",
"453 116 OFFCURVE",
"285 324 OFFCURVE",
"285 576 CURVE SMOOTH",
"285 830 OFFCURVE",
"452 1036 OFFCURVE",
"702 1037 CURVE"
);
}
);
width = 1406;
},
{
anchors = (
{
name = ogonek;
position = "{873, 0}";
},
{
name = top;
position = "{765, 1152}";
}
);
layerId = "EFCDB4D9-E20B-4A8D-9DB5-150AD166B0AE";
name = Bold;
paths = (
{
closed = 1;
nodes = (
"405 1174 OFFCURVE",
"134 917 OFFCURVE",
"134 574 CURVE SMOOTH",
"134 233 OFFCURVE",
"406 -22 OFFCURVE",
"768 -22 CURVE SMOOTH",
"1131 -22 OFFCURVE",
"1404 233 OFFCURVE",
"1404 573 CURVE SMOOTH",
"1404 916 OFFCURVE",
"1131 1174 OFFCURVE",
"767 1174 CURVE SMOOTH"
);
},
{
closed = 1;
nodes = (
"995 1016 OFFCURVE",
"1165 826 OFFCURVE",
"1165 573 CURVE SMOOTH",
"1165 324 OFFCURVE",
"994 138 OFFCURVE",
"767 138 CURVE SMOOTH",
"541 138 OFFCURVE",
"371 324 OFFCURVE",
"371 572 CURVE SMOOTH",
"371 826 OFFCURVE",
"541 1016 OFFCURVE",
"768 1016 CURVE SMOOTH"
);
}
);
width = 1538;
}
);
leftKerningGroup = O_Right;
rightKerningGroup = O_Left;
unicode = 004F;
userData = {
com.typemytype.robofont.layerData = {
b = {
anchors = (
);
components = (
);
contours = (
);
lib = {
};
name = O;
unicodes = (
);
width = 1437;
};
};
};
},
{
glyphname = P;
lastChange = "2013-12-17 14:30:03 -0800";
layers = (
{
anchors = (
{
name = top;
position = "{640, 1152}";
}
);
components = (
{
name = uc_main_stem;
transform = "{1, 0, 0, 1, 0, 0}";
}
);
layerId = "98C086B7-81AA-4491-8494-0C6A76849168";
name = Light;
paths = (
{
closed = 1;
nodes = (
"317 1152 LINE",
"317 1093 LINE",
"718 1093 LINE SMOOTH",
"881 1093 OFFCURVE",
"984 994 OFFCURVE",
"984 836 CURVE SMOOTH",
"984 657 OFFCURVE",
"876 544 OFFCURVE",
"705 544 CURVE SMOOTH",
"447 544 LINE",
"447 483 LINE",
"705 483 LINE SMOOTH",
"922 483 OFFCURVE",
"1058 620 OFFCURVE",
"1058 839 CURVE SMOOTH",
"1058 1031 OFFCURVE",
"927 1152 OFFCURVE",
"718 1152 CURVE SMOOTH"
);
}
);
width = 1180;
},
{
anchors = (
{
name = top;
position = "{580, 1153}";
}
);
components = (
{
name = uc_main_stem;
transform = "{1, 0, 0, 1, 0, 0}";
}
);
layerId = "1F09728C-766D-4240-AE17-E499EF32E23D";
name = Regular;
paths = (
{
closed = 1;
nodes = (
"334 1152 LINE",
"334 1036 LINE",
"670 1036 LINE SMOOTH",
"809 1036 OFFCURVE",
"896 952 OFFCURVE",
"896 818 CURVE SMOOTH",
"894 670 OFFCURVE",
"788 577 OFFCURVE",
"621 577 CURVE SMOOTH",
"481 577 LINE",
"483 472 LINE",
"591 472 LINE SMOOTH",
"880 472 OFFCURVE",
"1061 605 OFFCURVE",
"1061 816 CURVE SMOOTH",
"1061 1022 OFFCURVE",
"909 1152 OFFCURVE",
"668 1152 CURVE SMOOTH"
);
}
);
width = 1144;
},
{
anchors = (
{
name = top;
position = "{629, 1152}";
}
);
components = (
{
name = uc_main_stem;
transform = "{1, 0, 0, 1, 0, 0}";
}
);
layerId = "EFCDB4D9-E20B-4A8D-9DB5-150AD166B0AE";
name = Bold;
paths = (
{
closed = 1;
nodes = (
"400 1152 LINE",
"400 1012 LINE",
"702 1012 LINE SMOOTH",
"849 1012 OFFCURVE",
"926 944 OFFCURVE",
"926 814 CURVE SMOOTH",
"926 678 OFFCURVE",
"830 607 OFFCURVE",
"645 607 CURVE SMOOTH",
"571 607 LINE",
"571 467 LINE",
"654 467 LINE SMOOTH",
"982 467 OFFCURVE",
"1153 586 OFFCURVE",
"1153 814 CURVE SMOOTH",
"1153 1036 OFFCURVE",
"989 1152 OFFCURVE",
"674 1152 CURVE SMOOTH"
);
}
);
width = 1250;
}
);
leftKerningGroup = H_Right;
rightKerningGroup = P_Left;
unicode = 0050;
userData = {
com.typemytype.robofont.layerData = {
b = {
anchors = (
);
components = (
);
contours = (
{
points = (
{
segmentType = line;
smooth = 0;
x = 353;
y = 1095;
},
{
segmentType = line;
smooth = 1;
x = 759;
y = 1095;
},
{
smooth = 0;
x = 936;
y = 1095;
},
{
smooth = 0;
x = 1024;
y = 960;
},
{
segmentType = curve;
smooth = 1;
x = 1024;
y = 823;
},
{
smooth = 0;
x = 1024;
y = 683;
},
{
smooth = 0;
x = 934;
y = 544;
},
{
segmentType = curve;
smooth = 1;
x = 759;
y = 544;
},
{
segmentType = line;
smooth = 0;
x = 353;
y = 544;
}
);
},
{
points = (
{
segmentType = line;
smooth = 0;
x = 135;
y = 0;
},
{
segmentType = line;
smooth = 0;
x = 512;
y = 0;
},
{
segmentType = line;
smooth = 0;
x = 512;
y = 58;
},
{
segmentType = line;
smooth = 0;
x = 353;
y = 58;
},
{
segmentType = line;
smooth = 0;
x = 353;
y = 483;
},
{
segmentType = line;
smooth = 1;
x = 759;
y = 483;
},
{
smooth = 0;
x = 984;
y = 483;
},
{
smooth = 0;
x = 1098;
y = 656;
},
{
segmentType = curve;
smooth = 1;
x = 1098;
y = 826;
},
{
smooth = 0;
x = 1098;
y = 989;
},
{
smooth = 0;
x = 984;
y = 1154;
},
{
segmentType = curve;
smooth = 1;
x = 759;
y = 1154;
},
{
segmentType = line;
smooth = 0;
x = 122;
y = 1154;
},
{
segmentType = line;
smooth = 0;
x = 122;
y = 1095;
},
{
segmentType = line;
smooth = 0;
x = 278;
y = 1095;
},
{
segmentType = line;
smooth = 0;
x = 278;
y = 58;
},
{
segmentType = line;
smooth = 0;
x = 135;
y = 58;
}
);
}
);
lib = {
};
name = P;
unicodes = (
);
width = 1179.97;
};
};
};
},
{
glyphname = Q;
lastChange = "2013-12-17 14:30:03 -0800";
layers = (
{
components = (
{
name = O;
transform = "{1, 0, 0, 1, 0, 0}";
}
);
layerId = "98C086B7-81AA-4491-8494-0C6A76849168";
name = Light;
paths = (
{
closed = 1;
nodes = (
"656 10 LINE",
"806 -108 OFFCURVE",
"887 -206 OFFCURVE",
"1024 -206 CURVE SMOOTH",
"1070 -206 OFFCURVE",
"1117 -198 OFFCURVE",
"1172 -179 CURVE",
"1151 -124 LINE",
"1107 -139 OFFCURVE",
"1069 -146 OFFCURVE",
"1032 -146 CURVE SMOOTH",
"932 -146 OFFCURVE",
"847 -68 OFFCURVE",
"752 10 CURVE"
);
}
);
width = 1429;
},
{
components = (
{
name = O;
transform = "{1, 0, 0, 1, 0, 0}";
}
);
layerId = "1F09728C-766D-4240-AE17-E499EF32E23D";
name = Regular;
paths = (
{
closed = 1;
nodes = (
"743 -140 OFFCURVE",
"905 -229 OFFCURVE",
"1035 -229 CURVE SMOOTH",
"1100 -229 OFFCURVE",
"1159 -214 OFFCURVE",
"1217 -192 CURVE",
"1172 -70 LINE",
"1137 -81 OFFCURVE",
"1088 -97 OFFCURVE",
"1029 -97 CURVE SMOOTH",
"959 -97 OFFCURVE",
"856 -45 OFFCURVE",
"766 44 CURVE",
"554 49 LINE"
);
}
);
width = 1407;
},
{
components = (
{
name = O;
transform = "{1, 0, 0, 1, 0, 0}";
}
);
layerId = "EFCDB4D9-E20B-4A8D-9DB5-150AD166B0AE";
name = Bold;
paths = (
{
closed = 1;
nodes = (
"774 -194 OFFCURVE",
"991 -263 OFFCURVE",
"1150 -263 CURVE SMOOTH",
"1219 -263 OFFCURVE",
"1278 -251 OFFCURVE",
"1324 -230 CURVE",
"1278 -93 LINE",
"1238 -109 OFFCURVE",
"1194 -117 OFFCURVE",
"1149 -117 CURVE SMOOTH",
"1041 -117 OFFCURVE",
"927 -68 OFFCURVE",
"844 53 CURVE",
"602 57 LINE"
);
}
);
width = 1538;
}
);
leftKerningGroup = O_Right;
rightKerningGroup = O_Left;
unicode = 0051;
userData = {
com.typemytype.robofont.layerData = {
b = {
anchors = (
);
components = (
);
contours = (
);
lib = {
};
name = Q;
unicodes = (
);
width = 1428.68;
};
};
};
},
{
glyphname = R;
lastChange = "2013-12-17 14:30:03 -0800";
layers = (
{
anchors = (
{
name = bot;
position = "{703, 0}";
},
{
name = top;
position = "{630, 1152}";
}
);
components = (
{
name = uc_main_stem;
transform = "{1, 0, 0, 1, 0, 0}";
}
);
layerId = "98C086B7-81AA-4491-8494-0C6A76849168";
name = Light;
paths = (
{
closed = 1;
nodes = (
"317 1152 LINE",
"317 1093 LINE",
"721 1093 LINE SMOOTH",
"898 1093 OFFCURVE",
"985 971 OFFCURVE",
"985 845 CURVE SMOOTH",
"985 723 OFFCURVE",
"896 600 OFFCURVE",
"721 600 CURVE SMOOTH",
"317 600 LINE",
"317 539 LINE",
"641 539 LINE",
"961 0 LINE",
"1178 0 LINE",
"1178 58 LINE",
"1015 58 LINE",
"721 539 LINE",
"945 539 OFFCURVE",
"1059 696 OFFCURVE",
"1059 848 CURVE SMOOTH",
"1059 1000 OFFCURVE",
"945 1152 OFFCURVE",
"721 1152 CURVE SMOOTH"
);
}
);
width = 1259;
},
{
anchors = (
{
name = bot;
position = "{703, 0}";
},
{
name = top;
position = "{600, 1152}";
}
);
components = (
{
name = uc_main_stem;
transform = "{1, 0, 0, 1, 0, 0}";
}
);
layerId = "1F09728C-766D-4240-AE17-E499EF32E23D";
name = Regular;
paths = (
{
closed = 1;
nodes = (
"330 1152 LINE",
"330 1037 LINE",
"653 1037 LINE",
"781 1037 OFFCURVE",
"879 979 OFFCURVE",
"879 857 CURVE SMOOTH",
"879 726 OFFCURVE",
"801 658 OFFCURVE",
"660 657 CURVE",
"344 657 LINE",
"344 538 LINE",
"630 538 LINE",
"913 0 LINE",
"1166 0 LINE",
"1166 116 LINE",
"1020 116 LINE",
"786 558 LINE",
"959 592 OFFCURVE",
"1045 691 OFFCURVE",
"1045 855 CURVE SMOOTH",
"1045 1067 OFFCURVE",
"900 1152 OFFCURVE",
"665 1152 CURVE SMOOTH"
);
}
);
width = 1252;
},
{
anchors = (
{
name = bot;
position = "{759, 0}";
},
{
name = top;
position = "{642, 1152}";
}
);
components = (
{
name = uc_main_stem;
transform = "{1, 0, 0, 1, 0, 0}";
}
);
layerId = "EFCDB4D9-E20B-4A8D-9DB5-150AD166B0AE";
name = Bold;
paths = (
{
closed = 1;
nodes = (
"397 1152 LINE",
"397 1012 LINE",
"726 1012 LINE",
"859 1012 OFFCURVE",
"928 949 OFFCURVE",
"928 850 CURVE SMOOTH",
"928 758 OFFCURVE",
"880 669 OFFCURVE",
"712 669 CURVE SMOOTH",
"403 669 LINE",
"403 524 LINE",
"673 524 LINE",
"968 0 LINE",
"1292 0 LINE",
"1292 141 LINE",
"1121 141 LINE",
"879 548 LINE",
"1062 594 OFFCURVE",
"1147 691 OFFCURVE",
"1147 853 CURVE SMOOTH",
"1147 1079 OFFCURVE",
"969 1152 OFFCURVE",
"724 1152 CURVE SMOOTH"
);
}
);
width = 1373;
}
);
leftKerningGroup = H_Right;
rightKerningGroup = R_Left;
unicode = 0052;
userData = {
com.typemytype.robofont.layerData = {
b = {
anchors = (
);
components = (
);
contours = (
{
points = (
{
segmentType = line;
smooth = 0;
x = 135;
y = 0;
},
{
segmentType = line;
smooth = 0;
x = 512;
y = 0;
},
{
segmentType = line;
smooth = 0;
x = 512;
y = 58;
},
{
segmentType = line;
smooth = 0;
x = 353;
y = 58;
},
{
segmentType = line;
smooth = 0;
x = 353;
y = 539;
},
{
segmentType = line;
smooth = 0;
x = 641;
y = 539;
},
{
segmentType = line;
smooth = 0;
x = 961;
y = 0;
},
{
segmentType = line;
smooth = 0;
x = 1178;
y = 0;
},
{
segmentType = line;
smooth = 0;
x = 1178;
y = 58;
},
{
segmentType = line;
smooth = 0;
x = 1015;
y = 58;
},
{
segmentType = line;
smooth = 0;
x = 721;
y = 539;
},
{
smooth = 0;
x = 945;
y = 539;
},
{
smooth = 0;
x = 1059;
y = 696;
},
{
segmentType = curve;
smooth = 1;
x = 1059;
y = 848;
},
{
smooth = 0;
x = 1059;
y = 1000;
},
{
smooth = 0;
x = 945;
y = 1154;
},
{
segmentType = curve;
smooth = 1;
x = 721;
y = 1154;
},
{
segmentType = line;
smooth = 0;
x = 122;
y = 1154;
},
{
segmentType = line;
smooth = 0;
x = 122;
y = 1095;
},
{
segmentType = line;
smooth = 0;
x = 278;
y = 1095;
},
{
segmentType = line;
smooth = 0;
x = 278;
y = 58;
},
{
segmentType = line;
smooth = 0;
x = 135;
y = 58;
}
);
},
{
points = (
{
segmentType = line;
smooth = 0;
x = 353;
y = 1095;
},
{
segmentType = line;
smooth = 1;
x = 721;
y = 1095;
},
{
smooth = 0;
x = 898;
y = 1095;
},
{
smooth = 0;
x = 985;
y = 971;
},
{
segmentType = curve;
smooth = 1;
x = 985;
y = 845;
},
{
smooth = 0;
x = 985;
y = 723;
},
{
smooth = 0;
x = 896;
y = 600;
},
{
segmentType = curve;
smooth = 1;
x = 721;
y = 600;
},
{
segmentType = line;
smooth = 0;
x = 353;
y = 600;
}
);
}
);
lib = {
};
name = R;
unicodes = (
);
width = 1258.51;
};
};
};
},
{
glyphname = S;
lastChange = "2013-12-17 14:30:03 -0800";
layers = (
{
anchors = (
{
name = bot;
position = "{642, 0}";
},
{
name = top;
position = "{580, 1152}";
}
);
layerId = "98C086B7-81AA-4491-8494-0C6A76849168";
name = Light;
paths = (
{
closed = 1;
nodes = (
"355 1172 OFFCURVE",
"184 1067 OFFCURVE",
"184 856 CURVE SMOOTH",
"184 360 OFFCURVE",
"969 730 OFFCURVE",
"955 297 CURVE SMOOTH",
"951 166 OFFCURVE",
"861 47 OFFCURVE",
"644 47 CURVE SMOOTH",
"417 47 OFFCURVE",
"261 134 OFFCURVE",
"261 277 CURVE SMOOTH",
"261 387 LINE",
"187 387 LINE",
"187 -1 LINE",
"261 -1 LINE",
"261 122 LINE",
"335 22 OFFCURVE",
"459 -23 OFFCURVE",
"639 -23 CURVE SMOOTH",
"945 -23 OFFCURVE",
"1026 171 OFFCURVE",
"1026 295 CURVE SMOOTH",
"1026 821 OFFCURVE",
"255 439 OFFCURVE",
"264 857 CURVE SMOOTH",
"267 1001 OFFCURVE",
"354 1104 OFFCURVE",
"568 1104 CURVE SMOOTH",
"714 1104 OFFCURVE",
"885 1024 OFFCURVE",
"885 941 CURVE SMOOTH",
"885 839 LINE",
"959 839 LINE",
"959 1152 LINE",
"885 1152 LINE",
"885 1049 LINE",
"828 1131 OFFCURVE",
"679 1172 OFFCURVE",
"567 1172 CURVE SMOOTH"
);
}
);
width = 1144;
},
{
anchors = (
{
name = bot;
position = "{631, 0}";
},
{
name = top;
position = "{570, 1153}";
}
);
layerId = "1F09728C-766D-4240-AE17-E499EF32E23D";
name = Regular;
paths = (
{
closed = 1;
nodes = (
"351 1171 OFFCURVE",
"195 1059 OFFCURVE",
"195 858 CURVE SMOOTH",
"195 399 OFFCURVE",
"852 642 OFFCURVE",
"852 298 CURVE SMOOTH",
"852 178 OFFCURVE",
"741 110 OFFCURVE",
"609 110 CURVE SMOOTH",
"490 110 OFFCURVE",
"394 180 OFFCURVE",
"338 261 CURVE",
"338 387 LINE",
"203 387 LINE",
"203 0 LINE",
"338 0 LINE",
"338 101 LINE",
"407 24 OFFCURVE",
"521 -18 OFFCURVE",
"635 -18 CURVE SMOOTH",
"844 -18 OFFCURVE",
"1017 105 OFFCURVE",
"1017 303 CURVE SMOOTH",
"1017 771 OFFCURVE",
"351 563 OFFCURVE",
"351 855 CURVE SMOOTH",
"351 984 OFFCURVE",
"438 1043 OFFCURVE",
"569 1043 CURVE SMOOTH",
"673 1043 OFFCURVE",
"775 993 OFFCURVE",
"820 928 CURVE",
"820 818 LINE",
"955 818 LINE",
"955 1153 LINE",
"820 1153 LINE",
"820 1079 LINE",
"742 1140 OFFCURVE",
"652 1171 OFFCURVE",
"551 1171 CURVE SMOOTH"
);
}
);
width = 1147;
},
{
anchors = (
{
name = bot;
position = "{629, -1}";
},
{
name = top;
position = "{575, 1152}";
}
);
layerId = "EFCDB4D9-E20B-4A8D-9DB5-150AD166B0AE";
name = Bold;
paths = (
{
closed = 1;
nodes = (
"335 1174 OFFCURVE",
"174 1066 OFFCURVE",
"174 863 CURVE SMOOTH",
"174 650 OFFCURVE",
"341 578 OFFCURVE",
"520 528 CURVE SMOOTH",
"698 478 OFFCURVE",
"819 440 OFFCURVE",
"819 308 CURVE SMOOTH",
"819 209 OFFCURVE",
"749 135 OFFCURVE",
"623 135 CURVE SMOOTH",
"507 135 OFFCURVE",
"392 204 OFFCURVE",
"353 266 CURVE",
"353 390 LINE",
"182 390 LINE",
"182 -1 LINE",
"353 -1 LINE",
"353 94 LINE",
"431 26 OFFCURVE",
"527 -19 OFFCURVE",
"639 -19 CURVE SMOOTH",
"848 -19 OFFCURVE",
"1030 107 OFFCURVE",
"1030 318 CURVE SMOOTH",
"1030 540 OFFCURVE",
"859 617 OFFCURVE",
"692 665 CURVE SMOOTH",
"507 718 OFFCURVE",
"370 750 OFFCURVE",
"370 884 CURVE SMOOTH",
"370 957 OFFCURVE",
"444 1022 OFFCURVE",
"571 1022 CURVE SMOOTH",
"666 1022 OFFCURVE",
"738 994 OFFCURVE",
"797 922 CURVE",
"797 820 LINE",
"966 820 LINE",
"966 1157 LINE",
"797 1157 LINE",
"797 1083 LINE",
"731 1143 OFFCURVE",
"644 1174 OFFCURVE",
"550 1174 CURVE SMOOTH"
);
}
);
width = 1170;
}
);
leftKerningGroup = S_Right;
rightKerningGroup = S_Left;
unicode = 0053;
userData = {
com.typemytype.robofont.layerData = {
b = {
anchors = (
);
components = (
);
contours = (
{
points = (
{
segmentType = curve;
smooth = 1;
x = 636;
y = "-23";
},
{
smooth = 0;
x = 930;
y = "-23";
},
{
smooth = 0;
x = 1026;
y = 171;
},
{
segmentType = curve;
smooth = 1;
x = 1026;
y = 295;
},
{
smooth = 0;
x = 1026;
y = 543;
},
{
smooth = 0;
x = 829;
y = 599;
},
{
segmentType = curve;
smooth = 1;
x = 606;
y = 622;
},
{
smooth = 0;
x = 405;
y = 643;
},
{
smooth = 0;
x = 269;
y = 667;
},
{
segmentType = curve;
smooth = 1;
x = 269;
y = 851;
},
{
smooth = 0;
x = 269;
y = 998;
},
{
smooth = 0;
x = 360;
y = 1104;
},
{
segmentType = curve;
smooth = 1;
x = 573;
y = 1104;
},
{
smooth = 0;
x = 719;
y = 1104;
},
{
smooth = 0;
x = 885;
y = 1024;
},
{
segmentType = curve;
smooth = 1;
x = 885;
y = 941;
},
{
segmentType = line;
smooth = 0;
x = 885;
y = 839;
},
{
segmentType = line;
smooth = 0;
x = 959;
y = 839;
},
{
segmentType = line;
smooth = 0;
x = 959;
y = 1152;
},
{
segmentType = line;
smooth = 0;
x = 885;
y = 1152;
},
{
segmentType = line;
smooth = 0;
x = 885;
y = 1049;
},
{
smooth = 0;
x = 828;
y = 1131;
},
{
smooth = 0;
x = 673;
y = 1172;
},
{
segmentType = curve;
smooth = 1;
x = 561;
y = 1172;
},
{
smooth = 0;
x = 360;
y = 1172;
},
{
smooth = 0;
x = 184;
y = 1066;
},
{
segmentType = curve;
smooth = 1;
x = 184;
y = 863;
},
{
smooth = 0;
x = 184;
y = 635;
},
{
smooth = 0;
x = 332;
y = 579;
},
{
segmentType = curve;
smooth = 1;
x = 584;
y = 553;
},
{
smooth = 0;
x = 805;
y = 531;
},
{
smooth = 0;
x = 942;
y = 488;
},
{
segmentType = curve;
smooth = 1;
x = 942;
y = 300;
},
{
smooth = 0;
x = 942;
y = 169;
},
{
smooth = 0;
x = 831;
y = 47;
},
{
segmentType = curve;
smooth = 1;
x = 644;
y = 47;
},
{
smooth = 0;
x = 448;
y = 47;
},
{
smooth = 0;
x = 261;
y = 118;
},
{
segmentType = curve;
smooth = 1;
x = 261;
y = 247;
},
{
segmentType = line;
smooth = 0;
x = 261;
y = 387;
},
{
segmentType = line;
smooth = 0;
x = 187;
y = 387;
},
{
segmentType = line;
smooth = 0;
x = 187;
y = "-1";
},
{
segmentType = line;
smooth = 0;
x = 261;
y = "-1";
},
{
segmentType = line;
smooth = 0;
x = 261;
y = 122;
},
{
smooth = 0;
x = 335;
y = 22;
},
{
smooth = 0;
x = 496;
y = "-23";
}
);
}
);
lib = {
};
name = S;
unicodes = (
);
width = 1143.505;
};
};
};
},
{
glyphname = T;
lastChange = "2013-12-17 14:44:48 -0800";
layers = (
{
anchors = (
{
name = bot;
position = "{573, 0}";
},
{
name = top;
position = "{573, 1152}";
}
);
components = (
{
name = uc_main_stem;
transform = "{1, 0, 0, 1, 255, 0}";
}
);
layerId = "98C086B7-81AA-4491-8494-0C6A76849168";
name = Light;
paths = (
{
closed = 1;
nodes = (
"68 1152 LINE",
"68 786 LINE",
"139 786 LINE",
"139 1093 LINE",
"1013 1093 LINE",
"1013 786 LINE",
"1085 786 LINE",
"1085 1152 LINE"
);
}
);
width = 1151;
},
{
anchors = (
{
name = bot;
position = "{597, 0}";
},
{
name = mid;
position = "{584, 622}";
},
{
name = top;
position = "{591, 1153}";
}
);
components = (
{
name = uc_main_stem;
transform = "{1, 0, 0, 1, 260, 0}";
}
);
layerId = "1F09728C-766D-4240-AE17-E499EF32E23D";
name = Regular;
paths = (
{
closed = 1;
nodes = (
"107 1153 LINE",
"107 808 LINE",
"236 808 LINE",
"236 1037 LINE",
"923 1037 LINE",
"923 808 LINE",
"1054 808 LINE",
"1054 1153 LINE"
);
}
);
width = 1161;
},
{
anchors = (
{
name = bot;
position = "{635, 0}";
},
{
name = mid;
position = "{627, 623}";
},
{
name = top;
position = "{627, 1152}";
}
);
components = (
{
name = uc_main_stem;
transform = "{1, 0, 0, 1, 242, 0}";
}
);
layerId = "EFCDB4D9-E20B-4A8D-9DB5-150AD166B0AE";
name = Bold;
paths = (
{
closed = 1;
nodes = (
"107 1152 LINE",
"107 741 LINE",
"267 741 LINE",
"267 1012 LINE",
"985 1012 LINE",
"985 741 LINE",
"1145 741 LINE",
"1145 1152 LINE"
);
}
);
width = 1252;
}
);
leftKerningGroup = T_Right;
rightKerningGroup = T_Left;
unicode = 0054;
userData = {
com.typemytype.robofont.layerData = {
b = {
anchors = (
);
components = (
);
contours = (
);
lib = {
};
name = T;
unicodes = (
);
width = 1150.985;
};
};
};
},
{
glyphname = U;
lastChange = "2013-12-17 14:30:03 -0800";
layers = (
{
anchors = (
{
name = ogonek;
position = "{803, 0}";
},
{
name = top;
position = "{733, 1152}";
}
);
layerId = "98C086B7-81AA-4491-8494-0C6A76849168";
name = Light;
paths = (
{
closed = 1;
nodes = (
"1003 1152 LINE",
"1003 1093 LINE",
"1154 1093 LINE",
"1154 378 LINE SMOOTH",
"1154 157 OFFCURVE",
"937 43 OFFCURVE",
"722 43 CURVE SMOOTH",
"518 43 OFFCURVE",
"314 152 OFFCURVE",
"314 378 CURVE SMOOTH",
"314 1093 LINE",
"465 1093 LINE",
"465 1152 LINE",
"88 1152 LINE",
"88 1093 LINE",
"238 1093 LINE",
"238 376 LINE SMOOTH",
"238 109 OFFCURVE",
"481 -23 OFFCURVE",
"724 -23 CURVE SMOOTH",
"976 -23 OFFCURVE",
"1230 112 OFFCURVE",
"1230 376 CURVE SMOOTH",
"1230 1093 LINE",
"1380 1093 LINE",
"1380 1152 LINE"
);
}
);
width = 1455;
},
{
anchors = (
{
name = ogonek;
position = "{755, 0}";
},
{
name = top;
position = "{670, 1153}";
}
);
layerId = "1F09728C-766D-4240-AE17-E499EF32E23D";
name = Regular;
paths = (
{
closed = 1;
nodes = (
"793 1153 LINE",
"793 1037 LINE",
"935 1037 LINE",
"935 389 LINE SMOOTH",
"935 202 OFFCURVE",
"863 116 OFFCURVE",
"672 116 CURVE SMOOTH",
"494 116 OFFCURVE",
"388 195 OFFCURVE",
"388 378 CURVE SMOOTH",
"388 1037 LINE",
"530 1037 LINE",
"530 1153 LINE",
"83 1153 LINE",
"83 1037 LINE",
"226 1037 LINE",
"226 382 LINE SMOOTH",
"226 116 OFFCURVE",
"401 -18 OFFCURVE",
"665 -18 CURVE SMOOTH",
"940 -18 OFFCURVE",
"1097 106 OFFCURVE",
"1097 380 CURVE SMOOTH",
"1097 1037 LINE",
"1226 1037 LINE",
"1226 1153 LINE"
);
}
);
width = 1307;
},
{
anchors = (
{
name = ogonek;
position = "{813, 0}";
},
{
name = top;
position = "{745, 1152}";
}
);
layerId = "EFCDB4D9-E20B-4A8D-9DB5-150AD166B0AE";
name = Bold;
paths = (
{
closed = 1;
nodes = (
"859 1152 LINE",
"859 1012 LINE",
"1010 1012 LINE",
"1010 411 LINE SMOOTH",
"1010 237 OFFCURVE",
"919 141 OFFCURVE",
"738 141 CURVE SMOOTH",
"565 141 OFFCURVE",
"476 238 OFFCURVE",
"476 406 CURVE SMOOTH",
"476 1012 LINE",
"631 1012 LINE",
"631 1152 LINE",
"106 1152 LINE",
"106 1012 LINE",
"258 1012 LINE",
"258 440 LINE SMOOTH",
"258 180 OFFCURVE",
"364 -19 OFFCURVE",
"732 -19 CURVE SMOOTH",
"1002 -19 OFFCURVE",
"1193 111 OFFCURVE",
"1193 420 CURVE SMOOTH",
"1193 1012 LINE",
"1347 1012 LINE",
"1347 1152 LINE"
);
},
{
closed = 0;
nodes = (
"1242 10 LINE"
);
}
);
width = 1428;
}
);
leftKerningGroup = U_Right;
rightKerningGroup = U_Left;
unicode = 0055;
userData = {
com.typemytype.robofont.layerData = {
b = {
anchors = (
);
components = (
);
contours = (
);
lib = {
};
name = U;
unicodes = (
);
width = 1454.86;
};
};
};
},
{
glyphname = V;
lastChange = "2013-12-17 14:30:03 -0800";
layers = (
{
layerId = "98C086B7-81AA-4491-8494-0C6A76849168";
name = Light;
paths = (
{
closed = 1;
nodes = (
"847 1154 LINE",
"847 1095 LINE",
"1000 1095 LINE",
"633 94 LINE",
"263 1095 LINE",
"418 1095 LINE",
"418 1154 LINE",
"41 1154 LINE",
"41 1095 LINE",
"180 1095 LINE",
"592 0 LINE",
"672 0 LINE",
"1087 1095 LINE",
"1215 1095 LINE",
"1215 1154 LINE"
);
}
);
width = 1258;
},
{
layerId = "1F09728C-766D-4240-AE17-E499EF32E23D";
name = Regular;
paths = (
{
closed = 1;
nodes = (
"848 1153 LINE",
"848 1037 LINE",
"989 1037 LINE",
"677 184 LINE",
"360 1037 LINE",
"501 1037 LINE",
"501 1153 LINE",
"46 1153 LINE",
"46 1037 LINE",
"192 1037 LINE",
"595 0 LINE",
"749 0 LINE",
"1147 1037 LINE",
"1293 1037 LINE",
"1293 1153 LINE"
);
}
);
width = 1334;
},
{
layerId = "EFCDB4D9-E20B-4A8D-9DB5-150AD166B0AE";
name = Bold;
paths = (
{
closed = 1;
nodes = (
"872 1152 LINE",
"872 1012 LINE",
"1016 1012 LINE",
"724 236 LINE",
"428 1012 LINE",
"574 1012 LINE",
"574 1152 LINE",
"53 1152 LINE",
"53 1012 LINE",
"203 1012 LINE",
"614 0 LINE",
"802 0 LINE",
"1204 1012 LINE",
"1354 1012 LINE",
"1354 1152 LINE"
);
}
);
width = 1407;
}
);
leftKerningGroup = V_Right;
rightKerningGroup = V_Left;
unicode = 0056;
userData = {
com.typemytype.robofont.layerData = {
b = {
anchors = (
);
components = (
);
contours = (
);
lib = {
};
name = V;
unicodes = (
);
width = 1257.575;
};
};
};
},
{
glyphname = W;
lastChange = "2013-12-17 14:30:03 -0800";
layers = (
{
anchors = (
{
name = bot;
position = "{973, 0}";
},
{
name = top;
position = "{970, 1152}";
}
);
layerId = "98C086B7-81AA-4491-8494-0C6A76849168";
name = Light;
paths = (
{
closed = 1;
nodes = (
"1495 1152 LINE",
"1495 1093 LINE",
"1644 1093 LINE",
"1333 94 LINE",
"1008 1093 LINE",
"1155 1093 LINE",
"1155 1152 LINE",
"783 1152 LINE",
"783 1093 LINE",
"926 1093 LINE",
"615 94 LINE",
"290 1093 LINE",
"446 1093 LINE",
"446 1152 LINE",
"69 1152 LINE",
"69 1093 LINE",
"208 1093 LINE",
"573 0 LINE",
"656 0 LINE",
"968 974 LINE",
"1291 0 LINE",
"1373 0 LINE",
"1728 1093 LINE",
"1868 1093 LINE",
"1868 1152 LINE"
);
}
);
width = 1937;
},
{
anchors = (
{
name = top;
position = "{951, 1153}";
}
);
layerId = "1F09728C-766D-4240-AE17-E499EF32E23D";
name = Regular;
paths = (
{
closed = 1;
nodes = (
"1423 1153 LINE",
"1423 1037 LINE",
"1553 1037 LINE",
"1323 210 LINE",
"1082 1037 LINE",
"1221 1037 LINE",
"1221 1153 LINE",
"702 1153 LINE",
"702 1037 LINE",
"842 1037 LINE",
"602 210 LINE",
"364 1037 LINE",
"501 1037 LINE",
"501 1153 LINE",
"60 1153 LINE",
"60 1037 LINE",
"203 1037 LINE",
"519 0 LINE",
"677 0 LINE",
"955 949 LINE",
"1240 0 LINE",
"1398 0 LINE",
"1708 1037 LINE",
"1852 1037 LINE",
"1852 1153 LINE"
);
}
);
width = 1906;
},
{
anchors = (
{
name = top;
position = "{986, 1152}";
}
);
layerId = "EFCDB4D9-E20B-4A8D-9DB5-150AD166B0AE";
name = Bold;
paths = (
{
closed = 1;
nodes = (
"1435 1152 LINE",
"1435 1012 LINE",
"1579 1012 LINE",
"1343 282 LINE",
"1106 1012 LINE",
"1233 1012 LINE",
"1233 1152 LINE",
"729 1152 LINE",
"729 1012 LINE",
"859 1012 LINE",
"627 282 LINE",
"389 1012 LINE",
"532 1012 LINE",
"532 1152 LINE",
"38 1152 LINE",
"38 1012 LINE",
"183 1012 LINE",
"522 0 LINE",
"703 0 LINE",
"969 816 LINE",
"1239 0 LINE",
"1423 0 LINE",
"1754 1012 LINE",
"1897 1012 LINE",
"1897 1152 LINE"
);
}
);
width = 1935;
}
);
leftKerningGroup = W_Right;
rightKerningGroup = W_Left;
unicode = 0057;
userData = {
com.typemytype.robofont.layerData = {
b = {
anchors = (
);
components = (
);
contours = (
);
lib = {
};
name = W;
unicodes = (
);
width = 1937.32;
};
};
};
},
{
glyphname = X;
lastChange = "2013-12-17 14:30:03 -0800";
layers = (
{
layerId = "98C086B7-81AA-4491-8494-0C6A76849168";
name = Light;
paths = (
{
closed = 1;
nodes = (
"781 1154 LINE",
"781 1095 LINE",
"930 1095 LINE",
"633 650 LINE",
"335 1095 LINE",
"484 1095 LINE",
"484 1154 LINE",
"108 1154 LINE",
"108 1095 LINE",
"258 1095 LINE",
"595 593 LINE",
"240 58 LINE",
"96 58 LINE",
"96 0 LINE",
"473 0 LINE",
"473 58 LINE",
"324 58 LINE",
"636 531 LINE",
"954 58 LINE",
"803 58 LINE",
"803 0 LINE",
"1180 0 LINE",
"1180 58 LINE",
"1030 58 LINE",
"674 588 LINE",
"1010 1095 LINE",
"1158 1095 LINE",
"1158 1154 LINE"
);
}
);
width = 1273;
},
{
layerId = "1F09728C-766D-4240-AE17-E499EF32E23D";
name = Regular;
paths = (
{
closed = 1;
nodes = (
"698 1153 LINE",
"698 1037 LINE",
"840 1037 LINE",
"610 705 LINE",
"385 1037 LINE",
"522 1037 LINE",
"522 1153 LINE",
"53 1153 LINE",
"53 1037 LINE",
"209 1037 LINE",
"523 582 LINE",
"205 116 LINE",
"42 116 LINE",
"42 0 LINE",
"510 0 LINE",
"510 116 LINE",
"364 116 LINE",
"603 470 LINE",
"843 116 LINE",
"702 116 LINE",
"702 0 LINE",
"1181 0 LINE",
"1181 116 LINE",
"1023 116 LINE",
"690 595 LINE",
"997 1037 LINE",
"1150 1037 LINE",
"1150 1153 LINE"
);
}
);
width = 1223;
},
{
layerId = "EFCDB4D9-E20B-4A8D-9DB5-150AD166B0AE";
name = Bold;
paths = (
{
closed = 1;
nodes = (
"810 1152 LINE",
"810 1020 LINE",
"946 1020 LINE",
"729 711 LINE",
"511 1020 LINE",
"645 1020 LINE",
"645 1152 LINE",
"113 1152 LINE",
"113 1020 LINE",
"275 1020 LINE",
"594 587 LINE",
"270 133 LINE",
"100 133 LINE",
"100 0 LINE",
"607 0 LINE",
"607 133 LINE",
"465 133 LINE",
"695 471 LINE",
"926 133 LINE",
"786 133 LINE",
"786 0 LINE",
"1334 0 LINE",
"1334 133 LINE",
"1165 133 LINE",
"827 596 LINE",
"1139 1020 LINE",
"1301 1020 LINE",
"1301 1152 LINE"
);
}
);
width = 1434;
}
);
rightKerningGroup = X_Left;
unicode = 0058;
userData = {
com.typemytype.robofont.layerData = {
b = {
anchors = (
);
components = (
);
contours = (
);
lib = {
};
name = X;
unicodes = (
);
width = 1273.47;
};
};
};
},
{
glyphname = Y;
lastChange = "2013-12-17 14:30:03 -0800";
layers = (
{
anchors = (
{
name = top;
position = "{640, 1152}";
}
);
layerId = "98C086B7-81AA-4491-8494-0C6A76849168";
name = Light;
paths = (
{
closed = 1;
nodes = (
"849 1152 LINE",
"849 1093 LINE",
"998 1093 LINE",
"633 475 LINE",
"262 1093 LINE",
"409 1093 LINE",
"409 1152 LINE",
"32 1152 LINE",
"32 1093 LINE",
"180 1093 LINE",
"593 408 LINE",
"593 58 LINE",
"442 58 LINE",
"442 0 LINE",
"819 0 LINE",
"819 58 LINE",
"669 58 LINE",
"669 408 LINE",
"1080 1093 LINE",
"1226 1093 LINE",
"1226 1152 LINE"
);
}
);
width = 1258;
},
{
anchors = (
{
name = top;
position = "{660, 1153}";
}
);
layerId = "1F09728C-766D-4240-AE17-E499EF32E23D";
name = Regular;
paths = (
{
closed = 1;
nodes = (
"764 1153 LINE",
"764 1037 LINE",
"914 1037 LINE",
"657 648 LINE",
"383 1037 LINE",
"533 1037 LINE",
"533 1153 LINE",
"58 1153 LINE",
"58 1037 LINE",
"207 1037 LINE",
"565 530 LINE",
"565 116 LINE",
"406 116 LINE",
"406 0 LINE",
"889 0 LINE",
"889 116 LINE",
"725 116 LINE",
"725 530 LINE",
"1068 1037 LINE",
"1224 1037 LINE",
"1224 1153 LINE"
);
}
);
width = 1268;
},
{
anchors = (
{
name = top;
position = "{684, 1152}";
}
);
layerId = "EFCDB4D9-E20B-4A8D-9DB5-150AD166B0AE";
name = Bold;
paths = (
{
closed = 1;
nodes = (
"795 1152 LINE",
"795 1012 LINE",
"937 1012 LINE",
"694 646 LINE",
"436 1012 LINE",
"579 1012 LINE",
"579 1152 LINE",
"48 1152 LINE",
"48 1012 LINE",
"200 1012 LINE",
"564 509 LINE",
"564 141 LINE",
"397 141 LINE",
"397 0 LINE",
"953 0 LINE",
"953 141 LINE",
"782 141 LINE",
"782 510 LINE",
"1130 1012 LINE",
"1289 1012 LINE",
"1289 1152 LINE"
);
}
);
width = 1337;
}
);
leftKerningGroup = Y_Right;
rightKerningGroup = Y_Left;
unicode = 0059;
userData = {
com.typemytype.robofont.layerData = {
b = {
anchors = (
);
components = (
);
contours = (
);
lib = {
};
name = Y;
unicodes = (
);
width = 1257.575;
};
};
};
},
{
glyphname = Z;
lastChange = "2013-12-17 14:30:03 -0800";
layers = (
{
anchors = (
{
name = bot;
position = "{633, 0}";
},
{
name = top;
position = "{640, 1152}";
}
);
layerId = "98C086B7-81AA-4491-8494-0C6A76849168";
name = Light;
paths = (
{
closed = 1;
nodes = (
"162 1152 LINE",
"162 811 LINE",
"234 811 LINE",
"234 1086 LINE",
"964 1086 LINE",
"144 90 LINE",
"144 0 LINE",
"1081 0 LINE",
"1081 352 LINE",
"1009 352 LINE",
"1009 65 LINE",
"222 65 LINE",
"1047 1076 LINE",
"1047 1152 LINE"
);
}
);
width = 1219;
},
{
anchors = (
{
name = top;
position = "{620, 1153}";
}
);
layerId = "1F09728C-766D-4240-AE17-E499EF32E23D";
name = Regular;
paths = (
{
closed = 1;
nodes = (
"177 1153 LINE",
"177 818 LINE",
"306 818 LINE",
"306 1037 LINE",
"804 1037 LINE",
"147 128 LINE",
"147 0 LINE",
"1019 0 LINE",
"1019 335 LINE",
"890 335 LINE",
"890 116 LINE",
"342 116 LINE",
"1009 1041 LINE",
"1009 1153 LINE"
);
}
);
width = 1163;
},
{
anchors = (
{
name = top;
position = "{657, 1152}";
}
);
layerId = "EFCDB4D9-E20B-4A8D-9DB5-150AD166B0AE";
name = Bold;
paths = (
{
closed = 1;
nodes = (
"195 1152 LINE",
"195 792 LINE",
"354 792 LINE",
"354 1012 LINE",
"827 1012 LINE",
"163 151 LINE",
"163 0 LINE",
"1106 0 LINE",
"1106 375 LINE",
"948 375 LINE",
"948 141 LINE",
"423 141 LINE",
"1096 1018 LINE",
"1096 1152 LINE"
);
}
);
width = 1256;
}
);
unicode = 005A;
userData = {
com.typemytype.robofont.layerData = {
b = {
anchors = (
);
components = (
);
contours = (
);
lib = {
};
name = Z;
unicodes = (
);
width = 1219.24;
};
};
};
},
{
glyphname = AE;
lastChange = "2013-12-16 01:34:34 -0800";
layers = (
{
layerId = "98C086B7-81AA-4491-8494-0C6A76849168";
name = Light;
paths = (
{
closed = 1;
nodes = (
"462 0 LINE",
"474 62 LINE",
"316 62 LINE",
"558 441 LINE",
"1039 441 LINE",
"1116 62 LINE",
"952 62 LINE",
"940 0 LINE",
"1968 0 LINE",
"1899 376 LINE",
"1822 376 LINE",
"1878 70 LINE",
"1201 70 LINE",
"1103 534 LINE",
"1529 534 LINE",
"1560 362 LINE",
"1627 362 LINE",
"1553 762 LINE",
"1486 762 LINE",
"1516 604 LINE",
"1090 604 LINE",
"996 1082 LINE",
"1654 1082 LINE",
"1710 776 LINE",
"1787 776 LINE",
"1717 1152 LINE",
"707 1152 LINE",
"695 1089 LINE",
"853 1089 LINE",
"229 62 LINE",
"72 62 LINE",
"60 0 LINE"
);
},
{
closed = 1;
nodes = (
"915 1078 LINE",
"924 1078 LINE",
"1028 502 LINE",
"591 502 LINE"
);
}
);
width = 2097;
},
{
layerId = "1F09728C-766D-4240-AE17-E499EF32E23D";
name = Regular;
paths = (
{
closed = 1;
nodes = (
"825 545 LINE",
"707 1037 LINE",
"639 1037 LINE",
"442 545 LINE"
);
},
{
closed = 1;
nodes = (
"410 1153 LINE",
"1487 1153 LINE",
"1563 832 LINE",
"1431 832 LINE",
"1380 1037 LINE",
"867 1037 LINE",
"958 655 LINE",
"1320 655 LINE",
"1296 769 LINE",
"1393 769 LINE",
"1478 410 LINE",
"1380 410 LINE",
"1341 548 LINE",
"982 548 LINE",
"1089 116 LINE",
"1580 116 LINE",
"1528 328 LINE",
"1657 328 LINE",
"1735 0 LINE",
"744 0 LINE",
"756 116 LINE",
"928 116 LINE",
"854 424 LINE",
"393 424 LINE",
"287 116 LINE",
"441 116 LINE",
"430 0 LINE",
"-23 0 LINE",
"-12 116 LINE",
"121 116 LINE",
"496 1037 LINE",
"394 1037 LINE"
);
}
);
width = 1733;
},
{
layerId = "EFCDB4D9-E20B-4A8D-9DB5-150AD166B0AE";
name = Bold;
paths = (
{
closed = 1;
nodes = (
"501 0 LINE",
"501 141 LINE",
"362 141 LINE",
"524 413 LINE",
"911 413 LINE",
"911 141 LINE",
"757 141 LINE",
"757 0 LINE",
"1794 0 LINE",
"1794 355 LINE",
"1628 355 LINE",
"1628 141 LINE",
"1128 141 LINE",
"1128 524 LINE",
"1457 524 LINE",
"1457 411 LINE",
"1559 411 LINE",
"1559 789 LINE",
"1457 789 LINE",
"1457 673 LINE",
"1127 673 LINE",
"1127 1012 LINE",
"1626 1012 LINE",
"1626 804 LINE",
"1792 804 LINE",
"1792 1152 LINE",
"577 1152 LINE",
"577 1012 LINE",
"695 1012 LINE",
"135 141 LINE",
"-11 141 LINE",
"-11 0 LINE"
);
},
{
closed = 1;
nodes = (
"911 1012 LINE",
"911 544 LINE",
"590 544 LINE",
"887 1012 LINE"
);
},
{
closed = 0;
nodes = (
"939 1152 LINE"
);
}
);
width = 1877;
}
);
unicode = 00C6;
userData = {
com.typemytype.robofont.layerData = {
b = {
anchors = (
);
components = (
);
contours = (
);
lib = {
};
name = AE;
unicodes = (
);
width = 2097;
};
};
};
},
{
glyphname = Eth;
lastChange = "2013-12-16 01:34:42 -0800";
layers = (
{
components = (
{
name = D;
transform = "{1, 0, 0, 1, 0, 0}";
},
{
name = hyphen;
transform = "{1, 0, 0, 1, -93, 151}";
}
);
layerId = "98C086B7-81AA-4491-8494-0C6A76849168";
name = Light;
width = 1400;
},
{
components = (
{
name = D;
transform = "{1, 0, 0, 1, 0, 0}";
},
{
name = hyphen;
transform = "{1, 0, 0, 1, -6, 169}";
}
);
layerId = "1F09728C-766D-4240-AE17-E499EF32E23D";
name = Regular;
width = 1362;
},
{
layerId = "EFCDB4D9-E20B-4A8D-9DB5-150AD166B0AE";
name = Bold;
paths = (
{
closed = 1;
nodes = (
"650 1075 LINE SMOOTH",
"951 1075 OFFCURVE",
"1074 877 OFFCURVE",
"1074 609 CURVE SMOOTH",
"1074 339 OFFCURVE",
"955 141 OFFCURVE",
"642 141 CURVE SMOOTH",
"453 141 LINE",
"453 545 LINE",
"634 545 LINE",
"634 694 LINE",
"453 694 LINE",
"453 1075 LINE"
);
},
{
closed = 1;
nodes = (
"90 545 LINE",
"234 545 LINE",
"234 141 LINE",
"61 141 LINE",
"61 0 LINE",
"661 0 LINE SMOOTH",
"1086 0 OFFCURVE",
"1300 236 OFFCURVE",
"1300 615 CURVE SMOOTH",
"1300 952 OFFCURVE",
"1095 1215 OFFCURVE",
"662 1215 CURVE SMOOTH",
"61 1215 LINE",
"61 1075 LINE",
"234 1075 LINE",
"234 694 LINE",
"90 694 LINE"
);
}
);
width = 1374;
}
);
rightKerningGroup = O_Left;
unicode = 00D0;
userData = {
com.typemytype.robofont.layerData = {
b = {
anchors = (
);
components = (
);
contours = (
);
lib = {
};
name = Eth;
unicodes = (
);
width = 1434;
};
};
};
},
{
glyphname = Oslash;
lastChange = "2013-12-16 01:38:34 -0800";
layers = (
{
components = (
{
name = O;
transform = "{1, 0, 0, 1, 0, 0}";
}
);
layerId = "98C086B7-81AA-4491-8494-0C6A76849168";
name = Light;
paths = (
{
closed = 1;
nodes = (
"1243 1179 LINE",
"1211 1203 LINE",
"235 -47 LINE SMOOTH",
"269 -73 LINE"
);
}
);
width = 1519;
},
{
components = (
{
name = O;
transform = "{1, -0.035, 0.035, 1, -20, 25}";
}
);
layerId = "1F09728C-766D-4240-AE17-E499EF32E23D";
name = Regular;
paths = (
{
closed = 1;
nodes = (
"277 -77 LINE",
"1253 1139 LINE",
"1169 1198 LINE",
"193 -18 LINE"
);
}
);
width = 1321;
},
{
components = (
{
name = O;
transform = "{1, 0, 0, 1, 0, 0}";
}
);
layerId = "EFCDB4D9-E20B-4A8D-9DB5-150AD166B0AE";
name = Bold;
paths = (
{
closed = 1;
nodes = (
"1330 1152 LINE",
"1231 1222 LINE",
"259 -7 LINE",
"358 -77 LINE"
);
}
);
width = 1439;
}
);
leftKerningGroup = O_Right;
rightKerningGroup = O_Left;
unicode = 00D8;
userData = {
com.typemytype.robofont.layerData = {
b = {
anchors = (
);
components = (
);
contours = (
);
lib = {
};
name = Oslash;
unicodes = (
);
width = 1519;
};
};
};
},
{
glyphname = Thorn;
lastChange = "2013-12-16 01:39:32 -0800";
layers = (
{
layerId = "98C086B7-81AA-4491-8494-0C6A76849168";
name = Light;
paths = (
{
closed = 1;
nodes = (
"338 1089 LINE",
"493 1089 LINE",
"493 1152 LINE",
"106 1152 LINE",
"106 1089 LINE",
"257 1089 LINE",
"257 62 LINE",
"104 62 LINE",
"104 0 LINE",
"508 0 LINE",
"508 62 LINE",
"338 62 LINE",
"338 302 LINE",
"699 302 LINE SMOOTH",
"919 302 OFFCURVE",
"1037 464 OFFCURVE",
"1037 621 CURVE SMOOTH",
"1037 774 OFFCURVE",
"928 923 OFFCURVE",
"699 923 CURVE SMOOTH",
"338 923 LINE"
);
},
{
closed = 1;
nodes = (
"338 860 LINE",
"699 860 LINE SMOOTH",
"875 860 OFFCURVE",
"958 743 OFFCURVE",
"958 621 CURVE SMOOTH",
"958 495 OFFCURVE",
"867 367 OFFCURVE",
"699 367 CURVE SMOOTH",
"338 367 LINE"
);
}
);
width = 1130;
},
{
layerId = "1F09728C-766D-4240-AE17-E499EF32E23D";
name = Regular;
paths = (
{
closed = 1;
nodes = (
"827 596 CURVE",
"827 741 OFFCURVE",
"746 815 OFFCURVE",
"601 815 CURVE SMOOTH",
"374 815 LINE",
"374 386 LINE",
"552 386 LINE SMOOTH",
"738 386 OFFCURVE",
"824 448 OFFCURVE"
);
},
{
closed = 1;
nodes = (
"63 1153 LINE",
"534 1153 LINE",
"534 1038 LINE",
"374 1038 LINE",
"374 942 LINE",
"596 942 LINE",
"825 943 OFFCURVE",
"992 830 OFFCURVE",
"992 607 CURVE SMOOTH",
"992 333 OFFCURVE",
"825 261 OFFCURVE",
"522 261 CURVE SMOOTH",
"376 261 LINE",
"376 116 LINE",
"534 116 LINE",
"534 0 LINE",
"63 0 LINE",
"63 116 LINE",
"214 116 LINE",
"214 1037 LINE",
"63 1037 LINE"
);
}
);
width = 1030;
},
{
layerId = "EFCDB4D9-E20B-4A8D-9DB5-150AD166B0AE";
name = Bold;
paths = (
{
closed = 1;
nodes = (
"439 1012 LINE",
"619 1012 LINE",
"619 1152 LINE",
"62 1152 LINE",
"62 1012 LINE",
"220 1012 LINE",
"220 141 LINE",
"57 141 LINE",
"57 0 LINE",
"606 0 LINE",
"606 141 LINE",
"439 141 LINE",
"439 259 LINE",
"586 259 LINE SMOOTH",
"878 259 OFFCURVE",
"1085 340 OFFCURVE",
"1085 603 CURVE SMOOTH",
"1085 824 OFFCURVE",
"916 925 OFFCURVE",
"606 925 CURVE SMOOTH",
"439 925 LINE"
);
},
{
closed = 1;
nodes = (
"439 780 LINE",
"593 780 LINE SMOOTH",
"788 780 OFFCURVE",
"858 734 OFFCURVE",
"858 604 CURVE SMOOTH",
"858 482 OFFCURVE",
"791 406 OFFCURVE",
"577 406 CURVE SMOOTH",
"439 406 LINE"
);
}
);
width = 1124;
}
);
leftKerningGroup = H_Right;
unicode = 00DE;
userData = {
com.typemytype.robofont.layerData = {
b = {
anchors = (
);
components = (
);
contours = (
);
lib = {
};
name = Thorn;
unicodes = (
);
width = 1130;
};
};
};
},
{
glyphname = Hbar;
lastChange = "2013-12-16 01:41:15 -0800";
layers = (
{
components = (
{
name = H;
transform = "{1, 0, 0, 1, 0, 0}";
}
);
layerId = "98C086B7-81AA-4491-8494-0C6A76849168";
name = Light;
paths = (
{
closed = 1;
nodes = (
"141 882 LINE",
"141 831 LINE",
"1302 831 LINE",
"1302 882 LINE"
);
}
);
width = 1350;
},
{
components = (
{
name = H;
transform = "{1, 0, 0, 1, 0, 0}";
}
);
layerId = "1F09728C-766D-4240-AE17-E499EF32E23D";
name = Regular;
paths = (
{
closed = 1;
nodes = (
"116 810 LINE",
"1266 810 LINE",
"1266 895 LINE",
"116 895 LINE"
);
}
);
width = 1294;
},
{
components = (
{
name = H;
transform = "{1, 0, 0, 1, 0, 0}";
}
);
layerId = "EFCDB4D9-E20B-4A8D-9DB5-150AD166B0AE";
name = Bold;
paths = (
{
closed = 1;
nodes = (
"162 895 LINE",
"162 790 LINE",
"1371 790 LINE",
"1371 895 LINE"
);
}
);
width = 1372;
}
);
unicode = 0126;
userData = {
com.typemytype.robofont.layerData = {
b = {
anchors = (
);
components = (
);
contours = (
);
lib = {
};
name = Hbar;
unicodes = (
);
width = 1350;
};
};
};
},
{
glyphname = Lslash;
lastChange = "2013-12-15 21:02:56 -0800";
layers = (
{
layerId = "98C086B7-81AA-4491-8494-0C6A76849168";
name = Light;
paths = (
{
closed = 1;
nodes = (
"133 1234 LINE",
"133 1174 LINE",
"272 1174 LINE",
"272 715 LINE",
"140 637 LINE",
"140 557 LINE",
"272 635 LINE",
"272 70 LINE",
"133 70 LINE",
"133 0 LINE",
"1058 0 LINE",
"1058 412 LINE",
"982 412 LINE",
"982 70 LINE",
"354 70 LINE",
"354 684 LINE",
"562 807 LINE",
"562 887 LINE",
"354 764 LINE",
"354 1174 LINE",
"493 1174 LINE",
"493 1234 LINE"
);
}
);
width = 1169;
},
{
layerId = "1F09728C-766D-4240-AE17-E499EF32E23D";
name = Regular;
paths = (
{
closed = 1;
nodes = (
"59 1153 LINE",
"533 1153 LINE",
"533 1037 LINE",
"378 1037 LINE",
"378 705 LINE",
"627 805 LINE",
"627 676 LINE",
"378 576 LINE",
"378 116 LINE",
"788 116 LINE",
"788 452 LINE",
"933 452 LINE",
"933 0 LINE",
"59 0 LINE",
"59 116 LINE",
"217 116 LINE",
"217 512 LINE",
"60 450 LINE",
"60 579 LINE",
"217 641 LINE",
"217 1037 LINE",
"59 1037 LINE"
);
}
);
width = 984;
},
{
components = (
{
name = L;
transform = "{1, 0, 0, 1, 0, 0}";
}
);
layerId = "EFCDB4D9-E20B-4A8D-9DB5-150AD166B0AE";
name = Bold;
paths = (
{
closed = 1;
nodes = (
"97 579 LINE",
"97 450 LINE",
"713 743 LINE",
"713 879 LINE"
);
}
);
width = 1189;
}
);
unicode = 0141;
userData = {
com.typemytype.robofont.layerData = {
b = {
anchors = (
);
components = (
);
contours = (
);
lib = {
};
name = Lslash;
unicodes = (
);
width = 1169;
};
};
};
},
{
glyphname = OE;
lastChange = "2013-12-16 01:46:51 -0800";
layers = (
{
layerId = "98C086B7-81AA-4491-8494-0C6A76849168";
name = Light;
paths = (
{
closed = 1;
nodes = (
"794 1152 LINE SMOOTH",
"401 1152 OFFCURVE",
"154 928 OFFCURVE",
"154 571 CURVE SMOOTH",
"154 220 OFFCURVE",
"401 0 OFFCURVE",
"794 0 CURVE SMOOTH",
"1849 0 LINE",
"1849 376 LINE",
"1772 376 LINE",
"1772 70 LINE",
"1120 70 LINE",
"1120 534 LINE",
"1553 534 LINE",
"1553 362 LINE",
"1620 362 LINE",
"1620 762 LINE",
"1553 762 LINE",
"1553 604 LINE",
"1120 604 LINE",
"1120 1082 LINE",
"1750 1082 LINE",
"1750 796 LINE",
"1827 796 LINE",
"1827 1152 LINE"
);
},
{
closed = 1;
nodes = (
"1038 70 LINE",
"794 70 LINE SMOOTH",
"452 70 OFFCURVE",
"238 264 OFFCURVE",
"238 572 CURVE SMOOTH",
"238 882 OFFCURVE",
"452 1076 OFFCURVE",
"794 1076 CURVE SMOOTH",
"1038 1076 LINE"
);
}
);
width = 2019;
},
{
layerId = "1F09728C-766D-4240-AE17-E499EF32E23D";
name = Regular;
paths = (
{
closed = 1;
nodes = (
"688 1152 LINE SMOOTH",
"355 1151 OFFCURVE",
"130 911 OFFCURVE",
"131 575 CURVE SMOOTH",
"130 241 OFFCURVE",
"356 0 OFFCURVE",
"688 0 CURVE SMOOTH",
"1818 0 LINE",
"1818 328 LINE",
"1689 328 LINE",
"1689 116 LINE",
"1178 116 LINE",
"1178 526 LINE",
"1523 526 LINE",
"1523 410 LINE",
"1624 410 LINE",
"1624 769 LINE",
"1524 769 LINE",
"1524 639 LINE",
"1176 639 LINE",
"1176 1037 LINE",
"1686 1037 LINE",
"1686 832 LINE",
"1818 832 LINE",
"1818 1152 LINE"
);
},
{
closed = 1;
nodes = (
"1017 1036 LINE",
"1017 114 LINE",
"737 116 LINE SMOOTH",
"475 118 OFFCURVE",
"308 300 OFFCURVE",
"309 577 CURVE",
"308 855 OFFCURVE",
"463 1038 OFFCURVE",
"728 1037 CURVE SMOOTH"
);
}
);
width = 1920;
},
{
layerId = "EFCDB4D9-E20B-4A8D-9DB5-150AD166B0AE";
name = Bold;
paths = (
{
closed = 1;
nodes = (
"800 1152 LINE SMOOTH",
"409 1152 OFFCURVE",
"164 933 OFFCURVE",
"164 583 CURVE SMOOTH",
"164 225 OFFCURVE",
"410 0 OFFCURVE",
"801 0 CURVE SMOOTH",
"1944 0 LINE",
"1944 341 LINE",
"1777 341 LINE",
"1777 136 LINE",
"1298 136 LINE",
"1298 526 LINE",
"1606 526 LINE",
"1606 417 LINE",
"1708 417 LINE",
"1708 780 LINE",
"1607 780 LINE",
"1607 669 LINE",
"1298 669 LINE",
"1298 1016 LINE",
"1775 1016 LINE",
"1775 817 LINE",
"1941 817 LINE",
"1941 1152 LINE"
);
},
{
closed = 1;
nodes = (
"1080 136 LINE",
"818 136 LINE SMOOTH",
"562 136 OFFCURVE",
"402 308 OFFCURVE",
"402 582 CURVE SMOOTH",
"402 849 OFFCURVE",
"562 1016 OFFCURVE",
"816 1016 CURVE SMOOTH",
"1080 1016 LINE"
);
}
);
width = 2046;
}
);
leftKerningGroup = O_Right;
unicode = 0152;
userData = {
com.typemytype.robofont.layerData = {
b = {
anchors = (
);
components = (
);
contours = (
);
lib = {
};
name = OE;
unicodes = (
);
width = 2019;
};
};
};
},
{
glyphname = a;
lastChange = "2013-12-17 14:30:03 -0800";
layers = (
{
anchors = (
{
name = ogonek;
position = "{805, 0}";
},
{
name = top;
position = "{465, 805}";
}
);
layerId = "98C086B7-81AA-4491-8494-0C6A76849168";
name = Light;
paths = (
{
closed = 1;
nodes = (
"376 826 OFFCURVE",
"287 802 OFFCURVE",
"166 757 CURVE",
"182 696 LINE",
"266 731 OFFCURVE",
"370 762 OFFCURVE",
"463 762 CURVE SMOOTH",
"587 762 OFFCURVE",
"687 713 OFFCURVE",
"687 552 CURVE SMOOTH",
"687 424 LINE",
"595 441 OFFCURVE",
"497 457 OFFCURVE",
"408 457 CURVE SMOOTH",
"247 457 OFFCURVE",
"117 398 OFFCURVE",
"117 214 CURVE SMOOTH",
"117 72 OFFCURVE",
"229 -23 OFFCURVE",
"385 -23 CURVE SMOOTH",
"475 -23 OFFCURVE",
"580 10 OFFCURVE",
"687 83 CURVE",
"703 0 LINE",
"890 0 LINE",
"890 57 LINE",
"764 57 LINE",
"764 554 LINE SMOOTH",
"764 683 OFFCURVE",
"682 826 OFFCURVE",
"458 826 CURVE SMOOTH"
);
},
{
closed = 1;
nodes = (
"505 397 OFFCURVE",
"600 382 OFFCURVE",
"687 369 CURVE",
"687 143 LINE",
"569 71 OFFCURVE",
"470 42 OFFCURVE",
"392 42 CURVE SMOOTH",
"265 42 OFFCURVE",
"195 120 OFFCURVE",
"195 212 CURVE SMOOTH",
"195 353 OFFCURVE",
"295 397 OFFCURVE",
"422 397 CURVE SMOOTH"
);
}
);
width = 941;
},
{
anchors = (
{
name = ogonek;
position = "{744, 0}";
},
{
name = top;
position = "{473, 805}";
}
);
layerId = "1F09728C-766D-4240-AE17-E499EF32E23D";
name = Regular;
paths = (
{
closed = 1;
nodes = (
"354 826 OFFCURVE",
"237 789 OFFCURVE",
"148 731 CURVE",
"201 634 LINE",
"293 681 OFFCURVE",
"383 705 OFFCURVE",
"458 705 CURVE SMOOTH",
"565 705 OFFCURVE",
"640 655 OFFCURVE",
"640 554 CURVE SMOOTH",
"640 450 LINE",
"572 463 OFFCURVE",
"507 470 OFFCURVE",
"446 470 CURVE SMOOTH",
"242 470 OFFCURVE",
"108 405 OFFCURVE",
"108 206 CURVE SMOOTH",
"108 69 OFFCURVE",
"233 -18 OFFCURVE",
"375 -18 CURVE SMOOTH",
"463 -18 OFFCURVE",
"593 19 OFFCURVE",
"653 93 CURVE",
"653 93 OFFCURVE",
"655 21 OFFCURVE",
"655 0 CURVE",
"921 0 LINE",
"921 116 LINE",
"788 116 LINE",
"788 545 LINE SMOOTH",
"788 741 OFFCURVE",
"635 826 OFFCURVE",
"464 826 CURVE SMOOTH"
);
},
{
closed = 1;
nodes = (
"517 372 OFFCURVE",
"614 361 OFFCURVE",
"640 356 CURVE",
"640 182 LINE",
"577 123 OFFCURVE",
"493 93 OFFCURVE",
"390 93 CURVE SMOOTH",
"307 93 OFFCURVE",
"248 145 OFFCURVE",
"248 222 CURVE SMOOTH",
"248 342 OFFCURVE",
"330 372 OFFCURVE",
"464 372 CURVE SMOOTH"
);
}
);
width = 961;
},
{
anchors = (
{
name = ogonek;
position = "{839, 0}";
},
{
name = top;
position = "{555, 849}";
}
);
layerId = "EFCDB4D9-E20B-4A8D-9DB5-150AD166B0AE";
name = Bold;
paths = (
{
closed = 1;
nodes = (
"418 826 OFFCURVE",
"269 790 OFFCURVE",
"179 723 CURVE",
"240 601 LINE",
"331 655 OFFCURVE",
"455 679 OFFCURVE",
"530 679 CURVE SMOOTH",
"638 679 OFFCURVE",
"704 627 OFFCURVE",
"704 522 CURVE SMOOTH",
"704 453 LINE",
"636 466 OFFCURVE",
"575 474 OFFCURVE",
"512 474 CURVE SMOOTH",
"300 474 OFFCURVE",
"141 404 OFFCURVE",
"141 217 CURVE SMOOTH",
"141 87 OFFCURVE",
"254 -22 OFFCURVE",
"431 -22 CURVE SMOOTH",
"531 -22 OFFCURVE",
"609 4 OFFCURVE",
"713 83 CURVE",
"722 0 LINE",
"1047 0 LINE",
"1047 135 LINE",
"900 135 LINE",
"900 534 LINE SMOOTH",
"900 732 OFFCURVE",
"737 826 OFFCURVE",
"539 826 CURVE SMOOTH"
);
},
{
closed = 1;
nodes = (
"589 358 OFFCURVE",
"653 345 OFFCURVE",
"704 341 CURVE",
"704 190 LINE",
"636 135 OFFCURVE",
"552 105 OFFCURVE",
"473 105 CURVE SMOOTH",
"383 105 OFFCURVE",
"328 153 OFFCURVE",
"328 223 CURVE SMOOTH",
"328 330 OFFCURVE",
"421 358 OFFCURVE",
"524 358 CURVE SMOOTH"
);
}
);
width = 1124;
}
);
leftKerningGroup = a_Right;
unicode = 0061;
userData = {
com.typemytype.robofont.layerData = {
b = {
anchors = (
);
components = (
);
contours = (
{
points = (
{
segmentType = curve;
smooth = 1;
x = 391;
y = "-14";
},
{
smooth = 0;
x = 507;
y = "-14";
},
{
smooth = 0;
x = 593;
y = 21;
},
{
segmentType = curve;
smooth = 0;
x = 687;
y = 91;
},
{
segmentType = line;
smooth = 0;
x = 703;
y = "-1";
},
{
segmentType = line;
smooth = 0;
x = 890;
y = "-1";
},
{
segmentType = line;
smooth = 0;
x = 890;
y = 57;
},
{
segmentType = line;
smooth = 0;
x = 764;
y = 57;
},
{
segmentType = line;
smooth = 1;
x = 764;
y = 569;
},
{
smooth = 0;
x = 764;
y = 672;
},
{
smooth = 0;
x = 710;
y = 819;
},
{
segmentType = curve;
smooth = 1;
x = 461;
y = 819;
},
{
smooth = 0;
x = 332;
y = 819;
},
{
smooth = 0;
x = 226;
y = 792;
},
{
segmentType = curve;
smooth = 0;
x = 155;
y = 724;
},
{
segmentType = line;
smooth = 0;
x = 190;
y = 668;
},
{
smooth = 0;
x = 247;
y = 726;
},
{
smooth = 0;
x = 339;
y = 755;
},
{
segmentType = curve;
smooth = 1;
x = 459;
y = 755;
},
{
smooth = 0;
x = 600;
y = 755;
},
{
smooth = 0;
x = 687;
y = 706;
},
{
segmentType = curve;
smooth = 1;
x = 687;
y = 551;
},
{
segmentType = line;
smooth = 0;
x = 687;
y = 428;
},
{
smooth = 0;
x = 609;
y = 443;
},
{
smooth = 0;
x = 539;
y = 455;
},
{
segmentType = curve;
smooth = 1;
x = 465;
y = 455;
},
{
smooth = 0;
x = 295;
y = 455;
},
{
smooth = 0;
x = 117;
y = 433;
},
{
segmentType = curve;
smooth = 1;
x = 117;
y = 222;
},
{
smooth = 0;
x = 117;
y = 96;
},
{
smooth = 0;
x = 206;
y = "-14";
}
);
},
{
points = (
{
segmentType = curve;
smooth = 1;
x = 401;
y = 50;
},
{
smooth = 0;
x = 246;
y = 50;
},
{
smooth = 0;
x = 195;
y = 142;
},
{
segmentType = curve;
smooth = 1;
x = 195;
y = 220;
},
{
smooth = 0;
x = 195;
y = 390;
},
{
smooth = 0;
x = 346;
y = 393;
},
{
segmentType = curve;
smooth = 1;
x = 462;
y = 393;
},
{
smooth = 0;
x = 559;
y = 393;
},
{
smooth = 0;
x = 687;
y = 368;
},
{
segmentType = curve;
smooth = 0;
x = 687;
y = 368;
},
{
segmentType = line;
smooth = 0;
x = 687;
y = 151;
},
{
smooth = 0;
x = 606;
y = 76;
},
{
smooth = 0;
x = 511;
y = 50;
}
);
}
);
lib = {
};
name = a;
unicodes = (
);
width = 941;
};
};
};
},
{
glyphname = uni0201;
lastChange = "2013-12-15 21:02:57 -0800";
layers = (
{
components = (
{
name = a;
transform = "{1, 0, 0, 1, 0, 0}";
},
{
name = uni030F;
transform = "{1, 0, 0, 1, 81, 0}";
}
);
layerId = "98C086B7-81AA-4491-8494-0C6A76849168";
name = Light;
width = 941;
},
{
components = (
{
name = a;
transform = "{1, 0, 0, 1, 0, 0}";
},
{
name = uni030F;
transform = "{1, 0, 0, 1, 124, 0}";
}
);
layerId = "1F09728C-766D-4240-AE17-E499EF32E23D";
name = Regular;
width = 961;
},
{
layerId = "EFCDB4D9-E20B-4A8D-9DB5-150AD166B0AE";
name = Bold;
paths = (
{
closed = 1;
nodes = (
"704 88 CURVE",
"713 0 LINE",
"1038 0 LINE",
"1038 141 LINE",
"891 141 LINE",
"891 567 LINE SMOOTH",
"891 769 OFFCURVE",
"705 865 OFFCURVE",
"507 865 CURVE SMOOTH",
"386 865 OFFCURVE",
"260 829 OFFCURVE",
"170 760 CURVE",
"253 636 LINE",
"344 691 OFFCURVE",
"435 718 OFFCURVE",
"510 718 CURVE SMOOTH",
"618 718 OFFCURVE",
"695 662 OFFCURVE",
"695 555 CURVE SMOOTH",
"695 485 LINE",
"627 498 OFFCURVE",
"566 506 OFFCURVE",
"503 506 CURVE SMOOTH",
"291 506 OFFCURVE",
"132 432 OFFCURVE",
"132 233 CURVE SMOOTH",
"132 100 OFFCURVE",
"245 -19 OFFCURVE",
"422 -19 CURVE SMOOTH",
"522 -19 OFFCURVE",
"600 8 OFFCURVE"
);
},
{
closed = 1;
nodes = (
"464 111 CURVE SMOOTH",
"374 111 OFFCURVE",
"319 168 OFFCURVE",
"319 239 CURVE SMOOTH",
"319 356 OFFCURVE",
"412 385 OFFCURVE",
"515 385 CURVE SMOOTH",
"580 385 OFFCURVE",
"644 372 OFFCURVE",
"695 368 CURVE",
"695 197 LINE",
"627 141 OFFCURVE",
"543 111 OFFCURVE"
);
},
{
closed = 0;
nodes = (
"553 849 LINE"
);
},
{
closed = 0;
nodes = (
"944 10 LINE"
);
}
);
width = 1129;
}
);
leftKerningGroup = a_Right;
unicode = 0201;
userData = {
com.typemytype.robofont.layerData = {
b = {
anchors = (
);
components = (
);
contours = (
);
lib = {
};
name = uni0201;
unicodes = (
);
width = 868;
};
};
};
},
{
glyphname = uni0203;
lastChange = "2013-12-15 21:02:57 -0800";
layers = (
{
components = (
{
name = a;
transform = "{1, 0, 0, 1, 0, 0}";
},
{
name = uni0311;
transform = "{1, 0, 0, 1, 31, 0}";
}
);
layerId = "98C086B7-81AA-4491-8494-0C6A76849168";
name = Light;
width = 941;
},
{
components = (
{
name = a;
transform = "{1, 0, 0, 1, 0, 0}";
},
{
name = uni0311;
transform = "{1, 0, 0, 1, 174, 0}";
}
);
layerId = "1F09728C-766D-4240-AE17-E499EF32E23D";
name = Regular;
width = 961;
},
{
layerId = "EFCDB4D9-E20B-4A8D-9DB5-150AD166B0AE";
name = Bold;
paths = (
{
closed = 1;
nodes = (
"460 968 LINE",
"472 1038 OFFCURVE",
"514 1077 OFFCURVE",
"584 1077 CURVE SMOOTH",
"650 1077 OFFCURVE",
"697 1038 OFFCURVE",
"706 968 CURVE",
"869 968 LINE",
"854 1122 OFFCURVE",
"743 1227 OFFCURVE",
"584 1227 CURVE SMOOTH",
"428 1227 OFFCURVE",
"313 1123 OFFCURVE",
"301 968 CURVE"
);
},
{
closed = 1;
nodes = (
"704 88 CURVE",
"713 0 LINE",
"1038 0 LINE",
"1038 141 LINE",
"891 141 LINE",
"891 567 LINE SMOOTH",
"891 769 OFFCURVE",
"705 865 OFFCURVE",
"507 865 CURVE SMOOTH",
"386 865 OFFCURVE",
"260 829 OFFCURVE",
"170 760 CURVE",
"253 636 LINE",
"344 691 OFFCURVE",
"435 718 OFFCURVE",
"510 718 CURVE SMOOTH",
"618 718 OFFCURVE",
"695 662 OFFCURVE",
"695 555 CURVE SMOOTH",
"695 485 LINE",
"627 498 OFFCURVE",
"566 506 OFFCURVE",
"503 506 CURVE SMOOTH",
"291 506 OFFCURVE",
"132 432 OFFCURVE",
"132 233 CURVE SMOOTH",
"132 100 OFFCURVE",
"245 -19 OFFCURVE",
"422 -19 CURVE SMOOTH",
"522 -19 OFFCURVE",
"600 8 OFFCURVE"
);
},
{
closed = 1;
nodes = (
"464 111 CURVE SMOOTH",
"374 111 OFFCURVE",
"319 168 OFFCURVE",
"319 239 CURVE SMOOTH",
"319 356 OFFCURVE",
"412 385 OFFCURVE",
"515 385 CURVE SMOOTH",
"580 385 OFFCURVE",
"644 372 OFFCURVE",
"695 368 CURVE",
"695 197 LINE",
"627 141 OFFCURVE",
"543 111 OFFCURVE"
);
},
{
closed = 0;
nodes = (
"553 849 LINE"
);
},
{
closed = 0;
nodes = (
"944 10 LINE"
);
}
);
width = 1129;
}
);
leftKerningGroup = a_Right;
unicode = 0203;
userData = {
com.typemytype.robofont.layerData = {
b = {
anchors = (
);
components = (
);
contours = (
);
lib = {
};
name = uni0203;
unicodes = (
);
width = 868;
};
};
};
},
{
glyphname = b;
lastChange = "2013-12-17 14:30:03 -0800";
layers = (
{
components = (
{
name = lc_ascender_stem_1;
transform = "{1, 0, 0, 1, -3, 0}";
},
{
name = lc_bowl_right;
transform = "{1, 0, 0, 1, -3, 0}";
}
);
layerId = "98C086B7-81AA-4491-8494-0C6A76849168";
name = Light;
width = 1108;
},
{
layerId = "1F09728C-766D-4240-AE17-E499EF32E23D";
name = Regular;
paths = (
{
closed = 1;
nodes = (
"561 820 OFFCURVE",
"458 779 OFFCURVE",
"369 688 CURVE",
"377 571 LINE",
"460 654 OFFCURVE",
"552 695 OFFCURVE",
"635 695 CURVE SMOOTH",
"764 695 OFFCURVE",
"868 594 OFFCURVE",
"868 399 CURVE SMOOTH",
"868 201 OFFCURVE",
"749 101 OFFCURVE",
"611 101 CURVE SMOOTH",
"533 101 OFFCURVE",
"449 133 OFFCURVE",
"377 196 CURVE",
"377 72 LINE",
"461 12 OFFCURVE",
"551 -18 OFFCURVE",
"636 -18 CURVE SMOOTH",
"843 -18 OFFCURVE",
"1022 147 OFFCURVE",
"1022 403 CURVE SMOOTH",
"1022 660 OFFCURVE",
"851 820 OFFCURVE",
"659 820 CURVE SMOOTH"
);
},
{
closed = 1;
nodes = (
"86 1153 LINE",
"86 1037 LINE",
"229 1037 LINE",
"229 116 LINE",
"95 116 LINE",
"95 0 LINE",
"372 0 LINE",
"378 111 LINE",
"377 1153 LINE"
);
}
);
width = 1098;
},
{
layerId = "EFCDB4D9-E20B-4A8D-9DB5-150AD166B0AE";
name = Bold;
paths = (
{
closed = 1;
nodes = (
"111 1215 LINE",
"111 1075 LINE",
"258 1075 LINE",
"258 141 LINE",
"134 141 LINE",
"134 0 LINE",
"455 0 LINE",
"456 104 LINE",
"521 23 OFFCURVE",
"630 -19 OFFCURVE",
"740 -19 CURVE SMOOTH",
"968 -19 OFFCURVE",
"1145 159 OFFCURVE",
"1145 433 CURVE SMOOTH",
"1145 677 OFFCURVE",
"986 866 OFFCURVE",
"741 866 CURVE SMOOTH",
"623 866 OFFCURVE",
"542 830 OFFCURVE",
"457 750 CURVE",
"457 1215 LINE"
);
},
{
closed = 1;
nodes = (
"854 710 OFFCURVE",
"938 586 OFFCURVE",
"938 419 CURVE SMOOTH",
"938 253 OFFCURVE",
"856 137 OFFCURVE",
"697 137 CURVE SMOOTH",
"573 137 OFFCURVE",
"479 228 OFFCURVE",
"457 253 CURVE",
"457 587 LINE",
"477 613 OFFCURVE",
"570 710 OFFCURVE",
"695 710 CURVE SMOOTH"
);
}
);
width = 1259;
}
);
rightKerningGroup = o_Left;
unicode = 0062;
userData = {
com.typemytype.robofont.layerData = {
b = {
anchors = (
);
components = (
);
contours = (
);
lib = {
};
name = b;
unicodes = (
);
width = 1108.02362213;
};
};
};
},
{
glyphname = c;
lastChange = "2013-12-17 15:09:20 -0800";
layers = (
{
anchors = (
{
name = bot;
position = "{481, 0}";
},
{
name = top;
position = "{508, 805}";
}
);
layerId = "98C086B7-81AA-4491-8494-0C6A76849168";
name = Light;
paths = (
{
closed = 1;
nodes = (
"767 825 LINE",
"767 714 LINE",
"711 783 OFFCURVE",
"614 819 OFFCURVE",
"509 819 CURVE SMOOTH",
"311 819 OFFCURVE",
"90 689 OFFCURVE",
"90 406 CURVE SMOOTH",
"90 150 OFFCURVE",
"281 -14 OFFCURVE",
"504 -14 CURVE SMOOTH",
"625 -14 OFFCURVE",
"754 34 OFFCURVE",
"868 142 CURVE",
"845 208 LINE",
"737 99 OFFCURVE",
"617 51 OFFCURVE",
"507 51 CURVE SMOOTH",
"322 51 OFFCURVE",
"169 190 OFFCURVE",
"169 406 CURVE SMOOTH",
"169 653 OFFCURVE",
"349 757 OFFCURVE",
"512 757 CURVE SMOOTH",
"646 757 OFFCURVE",
"769 688 OFFCURVE",
"776 570 CURVE",
"840 570 LINE",
"840 825 LINE"
);
}
);
width = 977;
},
{
anchors = (
{
name = bot;
position = "{495, 0}";
},
{
name = top;
position = "{481, 805}";
}
);
layerId = "1F09728C-766D-4240-AE17-E499EF32E23D";
name = Regular;
paths = (
{
closed = 1;
nodes = (
"238 820 OFFCURVE",
"64 643 OFFCURVE",
"64 408 CURVE SMOOTH",
"64 160 OFFCURVE",
"235 -19 OFFCURVE",
"483 -19 CURVE SMOOTH",
"644 -19 OFFCURVE",
"774 43 OFFCURVE",
"849 157 CURVE",
"760 246 LINE",
"699 153 OFFCURVE",
"617 103 OFFCURVE",
"476 107 CURVE SMOOTH",
"318 112 OFFCURVE",
"220 233 OFFCURVE",
"220 400 CURVE SMOOTH",
"220 569 OFFCURVE",
"331 695 OFFCURVE",
"479 695 CURVE",
"614 695 OFFCURVE",
"680 629 OFFCURVE",
"711 517 CURVE",
"840 517 LINE",
"840 805 LINE",
"707 805 LINE",
"711 713 LINE",
"676 783 OFFCURVE",
"562 820 OFFCURVE",
"471 820 CURVE SMOOTH"
);
}
);
width = 944;
},
{
anchors = (
{
name = bot;
position = "{559, 0}";
},
{
name = top;
position = "{555, 849}";
}
);
layerId = "EFCDB4D9-E20B-4A8D-9DB5-150AD166B0AE";
name = Bold;
paths = (
{
closed = 1;
nodes = (
"285 866 OFFCURVE",
"96 676 OFFCURVE",
"96 423 CURVE SMOOTH",
"96 170 OFFCURVE",
"286 -19 OFFCURVE",
"544 -19 CURVE SMOOTH",
"728 -19 OFFCURVE",
"864 63 OFFCURVE",
"938 170 CURVE",
"846 284 LINE",
"783 204 OFFCURVE",
"704 131 OFFCURVE",
"547 137 CURVE SMOOTH",
"393 143 OFFCURVE",
"302 272 OFFCURVE",
"302 428 CURVE SMOOTH",
"302 590 OFFCURVE",
"405 704 OFFCURVE",
"547 711 CURVE SMOOTH",
"678 717 OFFCURVE",
"768 653 OFFCURVE",
"795 535 CURVE",
"942 535 LINE",
"942 849 LINE",
"779 849 LINE",
"780 759 LINE",
"752 818 OFFCURVE",
"644 866 OFFCURVE",
"540 866 CURVE SMOOTH"
);
}
);
width = 1074;
}
);
leftKerningGroup = o_Right;
unicode = 0063;
userData = {
com.typemytype.robofont.layerData = {
b = {
anchors = (
);
components = (
);
contours = (
{
points = (
{
smooth = 0;
x = 633;
y = "-14";
},
{
smooth = 0;
x = 758;
y = 33;
},
{
segmentType = curve;
smooth = 0;
x = 868;
y = 142;
},
{
segmentType = line;
smooth = 0;
x = 845;
y = 213;
},
{
smooth = 0;
x = 763;
y = 105;
},
{
smooth = 0;
x = 637;
y = 51;
},
{
segmentType = curve;
smooth = 1;
x = 515;
y = 51;
},
{
smooth = 0;
x = 316;
y = 51;
},
{
smooth = 0;
x = 169;
y = 193;
},
{
segmentType = curve;
smooth = 1;
x = 169;
y = 406;
},
{
smooth = 0;
x = 169;
y = 630;
},
{
smooth = 0;
x = 336;
y = 755;
},
{
segmentType = curve;
smooth = 1;
x = 515;
y = 755;
},
{
smooth = 0;
x = 705;
y = 755;
},
{
smooth = 0;
x = 768;
y = 657;
},
{
segmentType = curve;
smooth = 0;
x = 776;
y = 570;
},
{
segmentType = line;
smooth = 0;
x = 840;
y = 570;
},
{
segmentType = line;
smooth = 0;
x = 840;
y = 825;
},
{
segmentType = line;
smooth = 0;
x = 767;
y = 825;
},
{
segmentType = line;
smooth = 0;
x = 767;
y = 714;
},
{
smooth = 0;
x = 736;
y = 764;
},
{
smooth = 0;
x = 645;
y = 819;
},
{
segmentType = curve;
smooth = 1;
x = 522;
y = 819;
},
{
smooth = 0;
x = 268.9681295134022;
y = 819;
},
{
smooth = 0;
x = 90;
y = 650;
},
{
segmentType = curve;
smooth = 1;
x = 90;
y = 406;
},
{
smooth = 0;
x = 90;
y = 145;
},
{
smooth = 0;
x = 286;
y = "-14";
},
{
segmentType = curve;
smooth = 1;
x = 515;
y = "-14";
}
);
}
);
lib = {
};
name = c;
unicodes = (
);
width = 977;
};
};
};
},
{
glyphname = ccircumflex;
lastChange = "2013-12-15 21:02:57 -0800";
layers = (
{
components = (
{
name = c;
transform = "{1, 0, 0, 1, 0, 0}";
},
{
name = circumflex;
transform = "{1, 0, 0, 1, 294, 0}";
}
);
layerId = "98C086B7-81AA-4491-8494-0C6A76849168";
name = Light;
width = 977;
},
{
components = (
{
name = c;
transform = "{1, 0, 0, 1, 0, 0}";
},
{
name = circumflex;
transform = "{1, 0, 0, 1, 182, 0}";
}
);
layerId = "1F09728C-766D-4240-AE17-E499EF32E23D";
name = Regular;
width = 944;
},
{
layerId = "EFCDB4D9-E20B-4A8D-9DB5-150AD166B0AE";
name = Bold;
paths = (
{
closed = 1;
nodes = (
"440 968 LINE",
"541 1220 LINE",
"642 968 LINE",
"822 968 LINE",
"682 1297 LINE",
"399 1297 LINE",
"265 968 LINE"
);
},
{
closed = 1;
nodes = (
"572 -19 CURVE SMOOTH",
"756 -19 OFFCURVE",
"886 53 OFFCURVE",
"966 189 CURVE",
"833 274 LINE",
"776 184 OFFCURVE",
"679 137 OFFCURVE",
"575 137 CURVE SMOOTH",
"417 137 OFFCURVE",
"327 251 OFFCURVE",
"327 428 CURVE SMOOTH",
"327 599 OFFCURVE",
"417 711 OFFCURVE",
"575 711 CURVE SMOOTH",
"701 711 OFFCURVE",
"765 637 OFFCURVE",
"792 535 CURVE",
"949 535 LINE",
"949 849 LINE",
"786 849 LINE",
"787 769 LINE",
"740 820 OFFCURVE",
"655 866 OFFCURVE",
"551 866 CURVE SMOOTH",
"299 866 OFFCURVE",
"121 672 OFFCURVE",
"121 423 CURVE SMOOTH",
"121 201 OFFCURVE",
"267 -19 OFFCURVE"
);
},
{
closed = 0;
nodes = (
"544 849 LINE"
);
},
{
closed = 0;
nodes = (
"544 0 LINE"
);
},
{
closed = 0;
nodes = (
"543 858 LINE"
);
}
);
width = 1097;
}
);
leftKerningGroup = o_Right;
unicode = 0109;
userData = {
com.typemytype.robofont.layerData = {
b = {
anchors = (
);
components = (
);
contours = (
);
lib = {
};
name = ccircumflex;
unicodes = (
);
width = 925;
};
};
};
},
{
glyphname = d;
lastChange = "2013-12-17 14:58:53 -0800";
layers = (
{
components = (
{
name = lc_bowl_left;
transform = "{1, 0, 0, 1, -45, 0}";
},
{
name = lc_ascender_stem_2;
transform = "{1, 0, 0, 1, 576, 0}";
}
);
layerId = "98C086B7-81AA-4491-8494-0C6A76849168";
name = Light;
width = 1098;
},
{
components = (
{
name = lc_bowl_left;
transform = "{1, 0, 0, 1, -25, 0}";
},
{
name = lc_ascender_stem_2;
transform = "{1, 0, 0, 1, 534, 0}";
}
);
layerId = "1F09728C-766D-4240-AE17-E499EF32E23D";
name = Regular;
width = 1084;
},
{
anchors = (
{
name = mid;
position = "{893, 937}";
}
);
layerId = "EFCDB4D9-E20B-4A8D-9DB5-150AD166B0AE";
name = Bold;
paths = (
{
closed = 1;
nodes = (
"640 1215 LINE",
"640 1075 LINE",
"798 1075 LINE",
"798 753 LINE",
"714 829 OFFCURVE",
"635 866 OFFCURVE",
"520 866 CURVE SMOOTH",
"274 866 OFFCURVE",
"114 672 OFFCURVE",
"114 428 CURVE SMOOTH",
"114 137 OFFCURVE",
"306 -19 OFFCURVE",
"519 -19 CURVE SMOOTH",
"628 -19 OFFCURVE",
"720 17 OFFCURVE",
"796 98 CURVE",
"796 0 LINE",
"1141 0 LINE",
"1141 141 LINE",
"995 141 LINE",
"995 1215 LINE"
);
},
{
closed = 1;
nodes = (
"684 711 OFFCURVE",
"774 613 OFFCURVE",
"797 588 CURVE",
"797 250 LINE",
"773 226 OFFCURVE",
"686 137 OFFCURVE",
"562 137 CURVE SMOOTH",
"402 137 OFFCURVE",
"319 256 OFFCURVE",
"319 419 CURVE SMOOTH",
"319 588 OFFCURVE",
"401 711 OFFCURVE",
"560 711 CURVE SMOOTH"
);
}
);
width = 1242;
}
);
leftKerningGroup = o_Right;
unicode = 0064;
userData = {
com.typemytype.robofont.layerData = {
b = {
anchors = (
);
components = (
);
contours = (
);
lib = {
};
name = d;
unicodes = (
);
width = 1098;
};
};
};
},
{
glyphname = dcaron;
lastChange = "2013-12-15 21:02:57 -0800";
layers = (
{
layerId = "98C086B7-81AA-4491-8494-0C6A76849168";
name = Light;
paths = (
{
closed = 1;
nodes = (
"627 1234 LINE",
"627 1174 LINE",
"831 1174 LINE",
"831 695 LINE",
"756 784 OFFCURVE",
"640 854 OFFCURVE",
"490 854 CURVE SMOOTH",
"204 854 OFFCURVE",
"51 644 OFFCURVE",
"51 434 CURVE SMOOTH",
"51 240 OFFCURVE",
"168 -14 OFFCURVE",
"487 -14 CURVE SMOOTH",
"652 -14 OFFCURVE",
"784 73 OFFCURVE",
"831 125 CURVE",
"844 0 LINE",
"1054 0 LINE",
"1054 60 LINE",
"910 60 LINE",
"910 1234 LINE"
);
},
{
closed = 1;
nodes = (
"130 426 CURVE SMOOTH",
"130 624 OFFCURVE",
"266 787 OFFCURVE",
"486 787 CURVE SMOOTH",
"613 787 OFFCURVE",
"697 756 OFFCURVE",
"831 619 CURVE",
"831 193 LINE",
"686 82 OFFCURVE",
"606 53 OFFCURVE",
"484 53 CURVE SMOOTH",
"244 53 OFFCURVE",
"130 245 OFFCURVE"
);
},
{
closed = 1;
nodes = (
"1243 1234 LINE",
"1243 1114 LINE",
"1305 1114 LINE",
"1305 1030 OFFCURVE",
"1300 1004 OFFCURVE",
"1234 982 CURVE",
"1234 938 LINE",
"1335 938 OFFCURVE",
"1369 1014 OFFCURVE",
"1369 1112 CURVE SMOOTH",
"1369 1234 LINE"
);
}
);
width = 1068;
},
{
components = (
{
name = comma;
transform = "{1, 0, 0, 1, 1178, 942}";
},
{
name = d;
transform = "{1, 0, 0, 1, 0, 0}";
}
);
layerId = "1F09728C-766D-4240-AE17-E499EF32E23D";
name = Regular;
width = 1150;
},
{
components = (
{
name = d;
transform = "{1, 0, 0, 1, 0, 0}";
},
{
name = comma;
transform = "{1, 0, 0, 1, 1055, 970}";
}
);
layerId = "EFCDB4D9-E20B-4A8D-9DB5-150AD166B0AE";
name = Bold;
width = 1242;
}
);
leftKerningGroup = o_Right;
unicode = 010F;
userData = {
com.typemytype.robofont.layerData = {
b = {
anchors = (
);
components = (
);
contours = (
);
lib = {
};
name = dcaron;
unicodes = (
);
width = 1068;
};
};
};
},
{
glyphname = e;
lastChange = "2013-12-17 14:30:03 -0800";
layers = (
{
anchors = (
{
name = ogonek;
position = "{587, 0}";
},
{
name = top;
position = "{497, 805}";
}
);
layerId = "98C086B7-81AA-4491-8494-0C6A76849168";
name = Light;
paths = (
{
closed = 1;
nodes = (
"133 442 LINE",
"133 383 LINE",
"890 383 LINE",
"890 406 LINE",
"877 979 OFFCURVE",
"90 936 OFFCURVE",
"90 403 CURVE SMOOTH",
"90 -13 OFFCURVE",
"592 -149 OFFCURVE",
"868 139 CURVE",
"836 197 LINE",
"629 -50 OFFCURVE",
"169 10 OFFCURVE",
"169 409 CURVE",
"169 827 OFFCURVE",
"773 900 OFFCURVE",
"820 442 CURVE"
);
}
);
width = 992;
},
{
anchors = (
{
name = ogonek;
position = "{586, 0}";
},
{
name = top;
position = "{496, 805}";
}
);
layerId = "1F09728C-766D-4240-AE17-E499EF32E23D";
name = Regular;
paths = (
{
closed = 1;
nodes = (
"256 820 OFFCURVE",
"76 646 OFFCURVE",
"76 402 CURVE SMOOTH",
"76 151 OFFCURVE",
"250 -18 OFFCURVE",
"506 -18 CURVE SMOOTH",
"675 -18 OFFCURVE",
"770 34 OFFCURVE",
"857 138 CURVE",
"779 224 LINE",
"694 131 OFFCURVE",
"614 107 OFFCURVE",
"506 107 CURVE SMOOTH",
"343 108 OFFCURVE",
"248 209 OFFCURVE",
"239 365 CURVE",
"883 365 LINE",
"883 631 OFFCURVE",
"757 820 OFFCURVE",
"500 820 CURVE SMOOTH"
);
},
{
closed = 1;
nodes = (
"650 695 OFFCURVE",
"723 599 OFFCURVE",
"739 467 CURVE",
"241 467 LINE",
"266 611 OFFCURVE",
"347 695 OFFCURVE",
"504 695 CURVE SMOOTH"
);
}
);
width = 967;
},
{
anchors = (
{
name = ogonek;
position = "{688, 0}";
},
{
name = top;
position = "{576, 849}";
}
);
layerId = "EFCDB4D9-E20B-4A8D-9DB5-150AD166B0AE";
name = Bold;
paths = (
{
closed = 1;
nodes = (
"312 866 OFFCURVE",
"114 680 OFFCURVE",
"114 420 CURVE SMOOTH",
"114 169 OFFCURVE",
"296 -19 OFFCURVE",
"589 -19 CURVE SMOOTH",
"762 -19 OFFCURVE",
"915 50 OFFCURVE",
"976 129 CURVE",
"900 245 LINE",
"796 161 OFFCURVE",
"692 132 OFFCURVE",
"598 132 CURVE SMOOTH",
"421 132 OFFCURVE",
"331 238 OFFCURVE",
"321 383 CURVE",
"1007 383 LINE",
"1007 655 OFFCURVE",
"862 866 OFFCURVE",
"580 866 CURVE SMOOTH"
);
},
{
closed = 1;
nodes = (
"717 721 OFFCURVE",
"798 628 OFFCURVE",
"816 501 CURVE",
"324 501 LINE",
"346 634 OFFCURVE",
"429 721 OFFCURVE",
"579 721 CURVE SMOOTH"
);
}
);
width = 1119;
}
);
leftKerningGroup = o_Right;
unicode = 0065;
userData = {
com.typemytype.robofont.layerData = {
b = {
anchors = (
);
components = (
);
contours = (
{
points = (
{
segmentType = line;
smooth = 0;
x = 171;
y = 442;
},
{
smooth = 0;
x = 182;
y = 592;
},
{
smooth = 0;
x = 296;
y = 755;
},
{
segmentType = curve;
smooth = 1;
x = 507;
y = 755;
},
{
smooth = 0;
x = 699;
y = 755;
},
{
smooth = 0;
x = 803;
y = 616;
},
{
segmentType = curve;
smooth = 0;
x = 820;
y = 442;
}
);
},
{
points = (
{
segmentType = line;
smooth = 0;
x = 890;
y = 383;
},
{
smooth = 0;
x = 889;
y = 601;
},
{
smooth = 0;
x = 778.7683168889999;
y = 819;
},
{
segmentType = curve;
smooth = 1;
x = 502;
y = 819;
},
{
smooth = 0;
x = 232;
y = 819;
},
{
smooth = 0;
x = 90;
y = 618;
},
{
segmentType = curve;
smooth = 1;
x = 90;
y = 403;
},
{
smooth = 0;
x = 90;
y = 150;
},
{
smooth = 0;
x = 284;
y = "-14";
},
{
segmentType = curve;
smooth = 1;
x = 511;
y = "-14";
},
{
smooth = 0;
x = 657;
y = "-14";
},
{
smooth = 0;
x = 761;
y = 34;
},
{
segmentType = curve;
smooth = 0;
x = 868;
y = 139;
},
{
segmentType = line;
smooth = 0;
x = 836;
y = 197;
},
{
smooth = 0;
x = 747;
y = 103;
},
{
smooth = 0;
x = 652;
y = 50;
},
{
segmentType = curve;
smooth = 1;
x = 515;
y = 50;
},
{
smooth = 0;
x = 347;
y = 50;
},
{
smooth = 0;
x = 182;
y = 162;
},
{
segmentType = curve;
smooth = 0;
x = 169;
y = 383;
}
);
}
);
lib = {
};
name = e;
unicodes = (
);
width = 992;
};
};
};
},
{
glyphname = uni0205;
lastChange = "2013-12-15 21:02:57 -0800";
layers = (
{
components = (
{
name = e;
transform = "{1, 0, 0, 1, 0, 0}";
},
{
name = uni030F;
transform = "{1, 0, 0, 1, 113, 0}";
}
);
layerId = "98C086B7-81AA-4491-8494-0C6A76849168";
name = Light;
width = 992;
},
{
components = (
{
name = e;
transform = "{1, 0, 0, 1, 0, 0}";
},
{
name = uni030F;
transform = "{1, 0, 0, 1, 147, 0}";
}
);
layerId = "1F09728C-766D-4240-AE17-E499EF32E23D";
name = Regular;
width = 967;
},
{
layerId = "EFCDB4D9-E20B-4A8D-9DB5-150AD166B0AE";
name = Bold;
paths = (
{
closed = 1;
nodes = (
"328 383 CURVE",
"1014 383 LINE",
"1014 655 OFFCURVE",
"869 866 OFFCURVE",
"587 866 CURVE SMOOTH",
"319 866 OFFCURVE",
"121 680 OFFCURVE",
"121 420 CURVE SMOOTH",
"121 169 OFFCURVE",
"303 -19 OFFCURVE",
"596 -19 CURVE SMOOTH",
"769 -19 OFFCURVE",
"922 50 OFFCURVE",
"983 129 CURVE",
"907 245 LINE",
"803 161 OFFCURVE",
"699 132 OFFCURVE",
"605 132 CURVE SMOOTH",
"428 132 OFFCURVE",
"338 238 OFFCURVE"
);
},
{
closed = 1;
nodes = (
"331 501 LINE",
"353 634 OFFCURVE",
"436 721 OFFCURVE",
"586 721 CURVE SMOOTH",
"724 721 OFFCURVE",
"805 628 OFFCURVE",
"823 501 CURVE"
);
},
{
closed = 0;
nodes = (
"567 849 LINE"
);
},
{
closed = 0;
nodes = (
"567 0 LINE"
);
},
{
closed = 0;
nodes = (
"969 10 LINE"
);
}
);
width = 1130;
}
);
leftKerningGroup = o_Right;
unicode = 0205;
userData = {
com.typemytype.robofont.layerData = {
b = {
anchors = (
);
components = (
);
contours = (
);
lib = {
};
name = uni0205;
unicodes = (
);
width = 945;
};
};
};
},
{
glyphname = uni0207;
lastChange = "2013-12-15 21:02:57 -0800";
layers = (
{
components = (
{
name = e;
transform = "{1, 0, 0, 1, 0, 0}";
},
{
name = uni0311;
transform = "{1, 0, 0, 1, 63, 0}";
}
);
layerId = "98C086B7-81AA-4491-8494-0C6A76849168";
name = Light;
width = 992;
},
{
components = (
{
name = e;
transform = "{1, 0, 0, 1, 0, 0}";
},
{
name = uni0311;
transform = "{1, 0, 0, 1, 197, 0}";
}
);
layerId = "1F09728C-766D-4240-AE17-E499EF32E23D";
name = Regular;
width = 967;
},
{
layerId = "EFCDB4D9-E20B-4A8D-9DB5-150AD166B0AE";
name = Bold;
paths = (
{
closed = 1;
nodes = (
"448 960 LINE",
"460 1030 OFFCURVE",
"502 1069 OFFCURVE",
"572 1069 CURVE SMOOTH",
"638 1069 OFFCURVE",
"685 1030 OFFCURVE",
"694 960 CURVE",
"857 960 LINE",
"842 1114 OFFCURVE",
"731 1219 OFFCURVE",
"572 1219 CURVE SMOOTH",
"416 1219 OFFCURVE",
"301 1115 OFFCURVE",
"289 960 CURVE"
);
},
{
closed = 1;
nodes = (
"328 383 CURVE",
"1014 383 LINE",
"1014 655 OFFCURVE",
"869 866 OFFCURVE",
"587 866 CURVE SMOOTH",
"319 866 OFFCURVE",
"121 680 OFFCURVE",
"121 420 CURVE SMOOTH",
"121 169 OFFCURVE",
"303 -19 OFFCURVE",
"596 -19 CURVE SMOOTH",
"769 -19 OFFCURVE",
"922 50 OFFCURVE",
"983 129 CURVE",
"907 245 LINE",
"803 161 OFFCURVE",
"699 132 OFFCURVE",
"605 132 CURVE SMOOTH",
"428 132 OFFCURVE",
"338 238 OFFCURVE"
);
},
{
closed = 1;
nodes = (
"331 501 LINE",
"353 634 OFFCURVE",
"436 721 OFFCURVE",
"586 721 CURVE SMOOTH",
"724 721 OFFCURVE",
"805 628 OFFCURVE",
"823 501 CURVE"
);
},
{
closed = 0;
nodes = (
"567 849 LINE"
);
},
{
closed = 0;
nodes = (
"567 0 LINE"
);
},
{
closed = 0;
nodes = (
"969 10 LINE"
);
}
);
width = 1130;
}
);
leftKerningGroup = o_Right;
unicode = 0207;
userData = {
com.typemytype.robofont.layerData = {
b = {
anchors = (
);
components = (
);
contours = (
);
lib = {
};
name = uni0207;
unicodes = (
);
width = 945;
};
};
};
},
{
glyphname = f;
lastChange = "2013-12-17 14:30:03 -0800";
layers = (
{
layerId = "98C086B7-81AA-4491-8494-0C6A76849168";
name = Light;
paths = (
{
closed = 1;
nodes = (
"342 1185 OFFCURVE",
"252 1123 OFFCURVE",
"252 1007 CURVE SMOOTH",
"252 805 LINE",
"104 805 LINE",
"104 750 LINE",
"252 750 LINE",
"252 58 LINE",
"104 58 LINE",
"104 0 LINE",
"512 0 LINE",
"512 58 LINE",
"328 58 LINE",
"328 750 LINE",
"545 750 LINE",
"545 805 LINE",
"328 805 LINE",
"328 1009 LINE SMOOTH",
"328 1084 OFFCURVE",
"381 1125 OFFCURVE",
"432 1125 CURVE SMOOTH",
"480 1125 OFFCURVE",
"533 1109 OFFCURVE",
"546 1023 CURVE",
"599 1043 LINE",
"584 1151 OFFCURVE",
"513 1185 OFFCURVE",
"429 1185 CURVE SMOOTH"
);
}
);
width = 661;
},
{
layerId = "1F09728C-766D-4240-AE17-E499EF32E23D";
name = Regular;
paths = (
{
closed = 1;
nodes = (
"324 1171 OFFCURVE",
"221 1084 OFFCURVE",
"221 943 CURVE SMOOTH",
"221 805 LINE",
"92 805 LINE",
"92 689 LINE",
"221 689 LINE",
"221 116 LINE",
"80 116 LINE",
"80 0 LINE",
"531 0 LINE",
"531 116 LINE",
"369 116 LINE",
"369 689 LINE",
"532 689 LINE",
"532 805 LINE",
"369 805 LINE",
"369 934 LINE SMOOTH",
"369 1013 OFFCURVE",
"419 1054 OFFCURVE",
"481 1054 CURVE SMOOTH",
"529 1054 OFFCURVE",
"565 1026 OFFCURVE",
"582 963 CURVE",
"692 996 LINE",
"669 1117 OFFCURVE",
"600 1171 OFFCURVE",
"472 1171 CURVE SMOOTH"
);
}
);
width = 635;
},
{
layerId = "EFCDB4D9-E20B-4A8D-9DB5-150AD166B0AE";
name = Bold;
paths = (
{
closed = 1;
nodes = (
"342 1233 OFFCURVE",
"258 1119 OFFCURVE",
"258 951 CURVE SMOOTH",
"258 849 LINE",
"128 849 LINE",
"128 709 LINE",
"258 709 LINE",
"258 141 LINE",
"132 141 LINE",
"132 0 LINE",
"624 0 LINE",
"624 141 LINE",
"456 141 LINE",
"456 709 LINE",
"621 709 LINE",
"621 849 LINE",
"456 849 LINE",
"456 948 LINE SMOOTH",
"456 1054 OFFCURVE",
"487 1096 OFFCURVE",
"545 1096 CURVE SMOOTH",
"610 1096 OFFCURVE",
"626 1047 OFFCURVE",
"637 979 CURVE",
"790 1019 LINE",
"780 1187 OFFCURVE",
"656 1233 OFFCURVE",
"538 1233 CURVE SMOOTH"
);
}
);
width = 811;
}
);
unicode = 0066;
userData = {
com.typemytype.robofont.layerData = {
b = {
anchors = (
);
components = (
);
contours = (
);
lib = {
};
name = f;
unicodes = (
);
width = 661.4400000000001;
};
};
};
},
{
glyphname = g;
lastChange = "2013-12-17 14:54:40 -0800";
layers = (
{
anchors = (
{
name = top;
position = "{505, 805}";
}
);
components = (
{
name = lc_bowl_left;
transform = "{1, 0, 0, 0.980, -45, 15}";
}
);
layerId = "98C086B7-81AA-4491-8494-0C6A76849168";
name = Light;
paths = (
{
closed = 1;
nodes = (
"804 805 LINE",
"804 -44 LINE SMOOTH",
"804 -215 OFFCURVE",
"697 -312 OFFCURVE",
"500 -312 CURVE SMOOTH",
"423 -312 OFFCURVE",
"332 -297 OFFCURVE",
"229 -266 CURVE",
"214 -331 LINE",
"316 -360 OFFCURVE",
"411 -375 OFFCURVE",
"497 -375 CURVE SMOOTH",
"725 -375 OFFCURVE",
"880 -267 OFFCURVE",
"880 -27 CURVE SMOOTH",
"880 751 LINE",
"1037 751 LINE",
"1037 805 LINE"
);
}
);
width = 1075;
},
{
anchors = (
{
name = top;
position = "{462, 805}";
}
);
components = (
{
name = lc_bowl_left;
transform = "{1, 0, 0, 0.980, -45, 15}";
}
);
layerId = "1F09728C-766D-4240-AE17-E499EF32E23D";
name = Regular;
paths = (
{
closed = 1;
nodes = (
"720 805 LINE",
"720 -66 LINE SMOOTH",
"720 -192 OFFCURVE",
"586 -235 OFFCURVE",
"448 -235 CURVE SMOOTH",
"364 -235 OFFCURVE",
"287 -217 OFFCURVE",
"218 -182 CURVE",
"171 -292 LINE",
"245 -337 OFFCURVE",
"340 -359 OFFCURVE",
"456 -359 CURVE SMOOTH",
"688 -359 OFFCURVE",
"868 -260 OFFCURVE",
"868 -42 CURVE SMOOTH",
"868 689 LINE",
"1019 689 LINE",
"1019 805 LINE"
);
}
);
width = 1052;
},
{
anchors = (
{
name = top;
position = "{555, 849}";
}
);
components = (
{
name = lc_bowl_left;
transform = "{1, 0, 0, 0.980, -45, 15}";
}
);
layerId = "EFCDB4D9-E20B-4A8D-9DB5-150AD166B0AE";
name = Bold;
paths = (
{
closed = 1;
nodes = (
"793 849 LINE",
"794 -26 LINE SMOOTH",
"794 -110 OFFCURVE",
"747 -226 OFFCURVE",
"554 -226 CURVE SMOOTH",
"482 -226 OFFCURVE",
"391 -210 OFFCURVE",
"275 -171 CURVE",
"237 -309 LINE",
"370 -362 OFFCURVE",
"483 -384 OFFCURVE",
"577 -384 CURVE SMOOTH",
"871 -384 OFFCURVE",
"991 -173 OFFCURVE",
"991 -17 CURVE SMOOTH",
"991 709 LINE",
"1126 709 LINE",
"1126 849 LINE"
);
}
);
width = 1219;
}
);
unicode = 0067;
userData = {
com.typemytype.robofont.layerData = {
b = {
anchors = (
);
components = (
);
contours = (
{
points = (
{
segmentType = curve;
smooth = 1;
x = 510;
y = "-333";
},
{
smooth = 0;
x = 722;
y = "-333";
},
{
smooth = 0;
x = 880;
y = "-225";
},
{
segmentType = curve;
smooth = 0;
x = 880;
y = 15;
},
{
segmentType = line;
smooth = 0;
x = 880;
y = 735;
},
{
segmentType = line;
smooth = 0;
x = 1005;
y = 735;
},
{
segmentType = line;
smooth = 0;
x = 1005;
y = 789;
},
{
segmentType = line;
smooth = 0;
x = 804;
y = 789;
},
{
segmentType = line;
smooth = 0;
x = 804;
y = 673;
},
{
smooth = 0;
x = 804;
y = 673;
},
{
smooth = 0;
x = 804;
y = "-2";
},
{
segmentType = curve;
smooth = 1;
x = 804;
y = "-2";
},
{
smooth = 0;
x = 804;
y = "-173";
},
{
smooth = 0;
x = 695;
y = "-271";
},
{
segmentType = curve;
smooth = 1;
x = 515;
y = "-271";
},
{
smooth = 0;
x = 444;
y = "-271";
},
{
smooth = 0;
x = 362;
y = "-255";
},
{
segmentType = curve;
smooth = 0;
x = 272;
y = "-224";
},
{
segmentType = line;
smooth = 0;
x = 257;
y = "-289";
},
{
smooth = 0;
x = 345;
y = "-318";
},
{
smooth = 0;
x = 431;
y = "-333";
}
);
}
);
lib = {
};
name = g;
unicodes = (
);
width = 1075;
};
};
};
},
{
glyphname = gcircumflex;
lastChange = "2013-12-15 21:02:57 -0800";
layers = (
{
components = (
{
name = g;
transform = "{1, 0, 0, 1, 0, 0}";
},
{
name = circumflex;
transform = "{1, 0, 0, 1, 291, 0}";
}
);
layerId = "98C086B7-81AA-4491-8494-0C6A76849168";
name = Light;
width = 1075;
},
{
components = (
{
name = circumflex;
transform = "{1, 0, 0, 1, 295, 46}";
},
{
name = g;
transform = "{1, 0, 0, 1, 0, 0}";
}
);
layerId = "1F09728C-766D-4240-AE17-E499EF32E23D";
name = Regular;
width = 1124;
},
{
layerId = "EFCDB4D9-E20B-4A8D-9DB5-150AD166B0AE";
name = Bold;
paths = (
{
closed = 1;
nodes = (
"583 -384 CURVE SMOOTH",
"489 -384 OFFCURVE",
"376 -362 OFFCURVE",
"243 -309 CURVE",
"281 -171 LINE",
"397 -210 OFFCURVE",
"488 -226 OFFCURVE",
"560 -226 CURVE SMOOTH",
"753 -226 OFFCURVE",
"800 -110 OFFCURVE",
"800 -26 CURVE SMOOTH",
"800 89 LINE",
"734 26 OFFCURVE",
"638 -12 OFFCURVE",
"530 -12 CURVE SMOOTH",
"301 -12 OFFCURVE",
"120 161 OFFCURVE",
"120 425 CURVE SMOOTH",
"120 671 OFFCURVE",
"280 866 OFFCURVE",
"528 866 CURVE SMOOTH",
"639 866 OFFCURVE",
"715 829 OFFCURVE",
"799 750 CURVE",
"799 849 LINE",
"1132 849 LINE",
"1132 709 LINE",
"997 709 LINE",
"997 -17 LINE SMOOTH",
"997 -173 OFFCURVE",
"877 -384 OFFCURVE"
);
},
{
closed = 1;
nodes = (
"564 144 CURVE SMOOTH",
"687 144 OFFCURVE",
"776 231 OFFCURVE",
"799 253 CURVE",
"799 590 LINE",
"778 614 OFFCURVE",
"689 711 OFFCURVE",
"566 711 CURVE SMOOTH",
"405 711 OFFCURVE",
"324 588 OFFCURVE",
"324 419 CURVE SMOOTH",
"324 260 OFFCURVE",
"404 144 OFFCURVE"
);
},
{
closed = 1;
nodes = (
"503 959 LINE",
"604 1211 LINE",
"705 959 LINE",
"885 959 LINE",
"745 1288 LINE",
"462 1288 LINE",
"328 959 LINE"
);
},
{
closed = 0;
nodes = (
"606 849 LINE"
);
},
{
closed = 0;
nodes = (
"606 849 LINE"
);
}
);
width = 1232;
}
);
unicode = 011D;
userData = {
com.typemytype.robofont.layerData = {
b = {
anchors = (
);
components = (
);
contours = (
);
lib = {
};
name = gcircumflex;
unicodes = (
);
width = 1049;
};
};
};
},
{
glyphname = hcircumflex;
lastChange = "2013-12-15 21:02:57 -0800";
layers = (
{
components = (
{
name = h;
transform = "{1, 0, 0, 1, 0, 0}";
},
{
name = circumflex;
transform = "{1, 0, 0, 1, 379, 200}";
}
);
layerId = "98C086B7-81AA-4491-8494-0C6A76849168";
name = Light;
width = 1078;
},
{
anchors = (
{
name = top;
position = "{674, 1115}";
}
);
components = (
{
name = circumflex;
transform = "{1, 0, 0, 1, 316, 379}";
},
{
name = h;
transform = "{1, 0, 0, 1, 0, 0}";
}
);
layerId = "1F09728C-766D-4240-AE17-E499EF32E23D";
name = Regular;
width = 1167;
},
{
layerId = "EFCDB4D9-E20B-4A8D-9DB5-150AD166B0AE";
name = Bold;
paths = (
{
closed = 1;
nodes = (
"305 1075 LINE",
"305 141 LINE",
"154 141 LINE",
"154 0 LINE",
"626 0 LINE",
"626 141 LINE",
"501 141 LINE",
"501 631 LINE",
"583 684 OFFCURVE",
"664 711 OFFCURVE",
"733 711 CURVE SMOOTH",
"831 711 OFFCURVE",
"860 644 OFFCURVE",
"860 553 CURVE SMOOTH",
"860 141 LINE",
"766 141 LINE",
"766 0 LINE",
"1186 0 LINE",
"1186 141 LINE",
"1055 141 LINE",
"1055 591 LINE SMOOTH",
"1055 764 OFFCURVE",
"965 866 OFFCURVE",
"791 866 CURVE SMOOTH",
"691 866 OFFCURVE",
"602 837 OFFCURVE",
"501 769 CURVE",
"501 1215 LINE",
"156 1215 LINE",
"156 1075 LINE"
);
},
{
closed = 1;
nodes = (
"561 959 LINE",
"662 1211 LINE",
"763 959 LINE",
"943 959 LINE",
"803 1288 LINE",
"520 1288 LINE",
"386 959 LINE"
);
},
{
closed = 0;
nodes = (
"664 849 LINE"
);
},
{
closed = 0;
nodes = (
"664 849 LINE"
);
},
{
closed = 0;
nodes = (
"664 425 LINE"
);
}
);
width = 1238;
}
);
rightKerningGroup = n_Left;
unicode = 0125;
userData = {
com.typemytype.robofont.layerData = {
b = {
anchors = (
);
components = (
);
contours = (
);
lib = {
};
name = hcircumflex;
unicodes = (
);
width = 1105;
};
};
};
},
{
glyphname = i;
lastChange = "2013-12-17 14:30:03 -0800";
layers = (
{
anchors = (
{
name = ogonek;
position = "{314, 0}";
}
);
components = (
{
name = lc_xheight_stem;
transform = "{1, 0, 0, 1, 0, 0}";
}
);
layerId = "98C086B7-81AA-4491-8494-0C6A76849168";
name = Light;
paths = (
{
closed = 1;
nodes = (
"302 1152 LINE SMOOTH",
"259 1152 OFFCURVE",
"237 1122 OFFCURVE",
"237 1091 CURVE SMOOTH",
"237 1062 OFFCURVE",
"259 1030 OFFCURVE",
"302 1030 CURVE SMOOTH",
"305 1030 LINE SMOOTH",
"349 1030 OFFCURVE",
"371 1062 OFFCURVE",
"371 1091 CURVE SMOOTH",
"371 1122 OFFCURVE",
"349 1152 OFFCURVE",
"305 1152 CURVE SMOOTH"
);
}
);
width = 503;
},
{
anchors = (
{
name = ogonek;
position = "{369, 0}";
}
);
components = (
{
name = lc_xheight_stem;
transform = "{1, 0, 0, 1, 0, 0}";
}
);
layerId = "1F09728C-766D-4240-AE17-E499EF32E23D";
name = Regular;
paths = (
{
closed = 1;
nodes = (
"300 1152 OFFCURVE",
"262 1120 OFFCURVE",
"262 1066 CURVE SMOOTH",
"262 1010 OFFCURVE",
"303 979 OFFCURVE",
"363 979 CURVE SMOOTH",
"405 979 OFFCURVE",
"445 1021 OFFCURVE",
"445 1066 CURVE SMOOTH",
"445 1109 OFFCURVE",
"405 1152 OFFCURVE",
"364 1152 CURVE SMOOTH"
);
}
);
width = 623;
},
{
anchors = (
{
name = ogonek;
position = "{377, 0}";
}
);
components = (
{
name = lc_xheight_stem;
transform = "{1, 0, 0, 1, 0, 0}";
}
);
layerId = "EFCDB4D9-E20B-4A8D-9DB5-150AD166B0AE";
name = Bold;
paths = (
{
closed = 1;
nodes = (
"313 1227 OFFCURVE",
"263 1179 OFFCURVE",
"263 1119 CURVE SMOOTH",
"263 1058 OFFCURVE",
"313 1011 OFFCURVE",
"376 1011 CURVE SMOOTH",
"441 1011 OFFCURVE",
"491 1058 OFFCURVE",
"491 1119 CURVE SMOOTH",
"491 1179 OFFCURVE",
"441 1227 OFFCURVE",
"376 1227 CURVE SMOOTH"
);
}
);
width = 688;
}
);
unicode = 0069;
userData = {
com.typemytype.robofont.layerData = {
b = {
anchors = (
);
components = (
);
contours = (
);
lib = {
};
name = i;
unicodes = (
);
width = 503;
};
};
};
},
{
glyphname = itilde;
lastChange = "2013-12-15 21:02:57 -0800";
layers = (
{
components = (
{
name = dotlessi;
transform = "{1, 0, 0, 1, 0, 0}";
},
{
name = tilde;
transform = "{1, 0, 0, 1, 55, 0}";
}
);
layerId = "98C086B7-81AA-4491-8494-0C6A76849168";
name = Light;
width = 503;
},
{
components = (
{
name = dotlessi;
transform = "{1, 0, 0, 1, 0, 0}";
},
{
name = tilde;
transform = "{1, 0, 0, 1, -27, -40}";
}
);
layerId = "1F09728C-766D-4240-AE17-E499EF32E23D";
name = Regular;
width = 509;
},
{
layerId = "EFCDB4D9-E20B-4A8D-9DB5-150AD166B0AE";
name = Bold;
paths = (
{
closed = 1;
nodes = (
"196 973 LINE",
"202 1012 OFFCURVE",
"215 1033 OFFCURVE",
"250 1033 CURVE SMOOTH",
"319 1033 OFFCURVE",
"405 964 OFFCURVE",
"506 964 CURVE SMOOTH",
"604 964 OFFCURVE",
"664 1045 OFFCURVE",
"673 1177 CURVE",
"567 1177 LINE",
"559 1136 OFFCURVE",
"542 1115 OFFCURVE",
"511 1115 CURVE SMOOTH",
"440 1115 OFFCURVE",
"346 1182 OFFCURVE",
"252 1182 CURVE SMOOTH",
"171 1182 OFFCURVE",
"99 1120 OFFCURVE",
"88 973 CURVE"
);
},
{
closed = 1;
nodes = (
"298 709 LINE",
"298 140 LINE",
"161 140 LINE",
"161 0 LINE",
"631 0 LINE",
"631 140 LINE",
"494 140 LINE",
"494 849 LINE",
"161 849 LINE",
"161 709 LINE"
);
},
{
closed = 0;
nodes = (
"380 849 LINE"
);
},
{
closed = 0;
nodes = (
"380 849 LINE"
);
},
{
closed = 0;
nodes = (
"608 10 LINE"
);
}
);
width = 752;
}
);
unicode = 0129;
userData = {
com.typemytype.robofont.layerData = {
b = {
anchors = (
);
components = (
);
contours = (
);
lib = {
};
name = itilde;
unicodes = (
);
width = 569;
};
};
};
},
{
glyphname = ibreve;
lastChange = "2013-12-15 21:02:57 -0800";
layers = (
{
components = (
{
name = dotlessi;
transform = "{1, 0, 0, 1, 0, 0}";
},
{
name = breve;
transform = "{1, 0, 0, 1, 131, 0}";
}
);
layerId = "98C086B7-81AA-4491-8494-0C6A76849168";
name = Light;
width = 503;
},
{
components = (
{
name = breve;
transform = "{1, 0, 0, 1, -23, 2}";
},
{
name = dotlessi;
transform = "{1, 0, 0, 1, 0, 0}";
}
);
layerId = "1F09728C-766D-4240-AE17-E499EF32E23D";
name = Regular;
width = 509;
},
{
layerId = "EFCDB4D9-E20B-4A8D-9DB5-150AD166B0AE";
name = Bold;
paths = (
{
closed = 1;
nodes = (
"254 709 LINE",
"254 140 LINE",
"117 140 LINE",
"117 0 LINE",
"587 0 LINE",
"587 140 LINE",
"450 140 LINE",
"450 849 LINE",
"117 849 LINE",
"117 709 LINE"
);
},
{
closed = 1;
nodes = (
"88 1207 LINE",
"99 1063 OFFCURVE",
"206 968 OFFCURVE",
"351 968 CURVE SMOOTH",
"499 968 OFFCURVE",
"602 1064 OFFCURVE",
"616 1207 CURVE",
"483 1207 LINE",
"473 1131 OFFCURVE",
"422 1087 OFFCURVE",
"351 1087 CURVE SMOOTH",
"275 1087 OFFCURVE",
"230 1131 OFFCURVE",
"217 1207 CURVE"
);
},
{
closed = 0;
nodes = (
"336 849 LINE"
);
},
{
closed = 0;
nodes = (
"564 10 LINE"
);
},
{
closed = 0;
nodes = (
"352 857 LINE"
);
}
);
width = 695;
}
);
unicode = 012D;
userData = {
com.typemytype.robofont.layerData = {
b = {
anchors = (
);
components = (
);
contours = (
);
lib = {
};
name = ibreve;
unicodes = (
);
width = 569;
};
};
};
},
{
glyphname = uni020B;
lastChange = "2013-12-15 21:02:57 -0800";
layers = (
{
components = (
{
name = i;
transform = "{1, 0, 0, 1, 0, 0}";
},
{
name = uni0311;
transform = "{1, 0, 0, 1, 0, 0}";
}
);
layerId = "98C086B7-81AA-4491-8494-0C6A76849168";
name = Light;
width = 503;
},
{
components = (
{
name = dotlessi;
transform = "{1, 0, 0, 1, 0, 0}";
},
{
name = uni0311;
transform = "{1, 0, 0, 1, -22, 0}";
}
);
layerId = "1F09728C-766D-4240-AE17-E499EF32E23D";
name = Regular;
width = 509;
},
{
layerId = "EFCDB4D9-E20B-4A8D-9DB5-150AD166B0AE";
name = Bold;
paths = (
{
closed = 1;
nodes = (
"247 968 LINE",
"259 1038 OFFCURVE",
"301 1077 OFFCURVE",
"371 1077 CURVE SMOOTH",
"437 1077 OFFCURVE",
"484 1038 OFFCURVE",
"493 968 CURVE",
"656 968 LINE",
"641 1122 OFFCURVE",
"530 1227 OFFCURVE",
"371 1227 CURVE SMOOTH",
"215 1227 OFFCURVE",
"100 1123 OFFCURVE",
"88 968 CURVE"
);
},
{
closed = 1;
nodes = (
"274 709 LINE",
"274 140 LINE",
"137 140 LINE",
"137 0 LINE",
"607 0 LINE",
"607 140 LINE",
"470 140 LINE",
"470 849 LINE",
"137 849 LINE",
"137 709 LINE"
);
},
{
closed = 0;
nodes = (
"356 849 LINE"
);
},
{
closed = 0;
nodes = (
"584 10 LINE"
);
}
);
width = 735;
}
);
unicode = 020B;
userData = {
com.typemytype.robofont.layerData = {
b = {
anchors = (
);
components = (
);
contours = (
);
lib = {
};
name = uni020B;
unicodes = (
);
width = 569;
};
};
};
},
{
glyphname = j;
lastChange = "2013-12-17 14:30:03 -0800";
layers = (
{
layerId = "98C086B7-81AA-4491-8494-0C6A76849168";
name = Light;
paths = (
{
closed = 1;
nodes = (
"66 805 LINE",
"66 750 LINE",
"234 750 LINE",
"234 -30 LINE SMOOTH",
"234 -141 OFFCURVE",
"234 -200 OFFCURVE",
"103 -200 CURVE SMOOTH",
"28 -200 LINE",
"28 -258 LINE",
"105 -258 LINE SMOOTH",
"310 -258 OFFCURVE",
"310 -135 OFFCURVE",
"310 -19 CURVE SMOOTH",
"310 805 LINE"
);
},
{
closed = 1;
nodes = (
"263 1152 LINE SMOOTH",
"220 1152 OFFCURVE",
"198 1122 OFFCURVE",
"198 1091 CURVE SMOOTH",
"198 1062 OFFCURVE",
"220 1030 OFFCURVE",
"263 1030 CURVE SMOOTH",
"266 1030 LINE SMOOTH",
"310 1030 OFFCURVE",
"332 1062 OFFCURVE",
"332 1091 CURVE SMOOTH",
"332 1122 OFFCURVE",
"310 1152 OFFCURVE",
"266 1152 CURVE SMOOTH"
);
}
);
width = 444;
},
{
layerId = "1F09728C-766D-4240-AE17-E499EF32E23D";
name = Regular;
paths = (
{
closed = 1;
nodes = (
"72 805 LINE",
"72 689 LINE",
"266 689 LINE",
"266 -8 LINE SMOOTH",
"266 -113 OFFCURVE",
"248 -179 OFFCURVE",
"147 -179 CURVE SMOOTH",
"40 -179 LINE",
"40 -303 LINE",
"131 -303 LINE SMOOTH",
"352 -303 OFFCURVE",
"414 -221 OFFCURVE",
"414 19 CURVE SMOOTH",
"414 805 LINE"
);
},
{
closed = 1;
nodes = (
"284 1153 OFFCURVE",
"243 1116 OFFCURVE",
"243 1066 CURVE SMOOTH",
"243 1016 OFFCURVE",
"284 979 OFFCURVE",
"335 979 CURVE SMOOTH",
"386 979 OFFCURVE",
"427 1016 OFFCURVE",
"427 1066 CURVE SMOOTH",
"427 1116 OFFCURVE",
"386 1153 OFFCURVE",
"335 1153 CURVE SMOOTH"
);
}
);
width = 559;
},
{
layerId = "EFCDB4D9-E20B-4A8D-9DB5-150AD166B0AE";
name = Bold;
paths = (
{
closed = 1;
nodes = (
"92 849 LINE",
"92 709 LINE",
"259 709 LINE",
"259 -13 LINE SMOOTH",
"259 -134 OFFCURVE",
"230 -186 OFFCURVE",
"126 -186 CURVE SMOOTH",
"30 -186 LINE",
"30 -342 LINE",
"126 -342 LINE SMOOTH",
"430 -342 OFFCURVE",
"457 -184 OFFCURVE",
"457 47 CURVE SMOOTH",
"457 849 LINE"
);
},
{
closed = 1;
nodes = (
"288 1227 OFFCURVE",
"239 1179 OFFCURVE",
"239 1119 CURVE SMOOTH",
"239 1058 OFFCURVE",
"288 1011 OFFCURVE",
"353 1011 CURVE SMOOTH",
"416 1011 OFFCURVE",
"468 1058 OFFCURVE",
"468 1119 CURVE SMOOTH",
"468 1179 OFFCURVE",
"416 1227 OFFCURVE",
"353 1227 CURVE SMOOTH"
);
}
);
width = 594;
}
);
unicode = 006A;
userData = {
com.typemytype.robofont.layerData = {
b = {
anchors = (
);
components = (
);
contours = (
);
lib = {
};
name = j;
unicodes = (
);
width = 444.48;
};
};
};
},
{
glyphname = jcircumflex;
lastChange = "2013-12-15 21:02:57 -0800";
layers = (
{
components = (
{
name = uni0237;
transform = "{1, 0, 0, 1, 0, 0}";
},
{
name = circumflex;
transform = "{1, 0, 0, 1, 21, 0}";
}
);
layerId = "98C086B7-81AA-4491-8494-0C6A76849168";
name = Light;
width = 444;
},
{
components = (
{
name = circumflex;
transform = "{1, 0, 0, 1, -128, 46}";
},
{
name = uni0237;
transform = "{1, 0, 0, 1, 0, 0}";
}
);
layerId = "1F09728C-766D-4240-AE17-E499EF32E23D";
name = Regular;
width = 441;
},
{
layerId = "EFCDB4D9-E20B-4A8D-9DB5-150AD166B0AE";
name = Bold;
paths = (
{
closed = 1;
nodes = (
"255 -13 LINE SMOOTH",
"255 -134 OFFCURVE",
"226 -186 OFFCURVE",
"122 -186 CURVE SMOOTH",
"26 -186 LINE",
"26 -342 LINE",
"122 -342 LINE SMOOTH",
"426 -342 OFFCURVE",
"453 -184 OFFCURVE",
"453 47 CURVE SMOOTH",
"453 849 LINE",
"88 849 LINE",
"88 709 LINE",
"255 709 LINE"
);
},
{
closed = 1;
nodes = (
"233 959 LINE",
"334 1211 LINE",
"435 959 LINE",
"615 959 LINE",
"475 1288 LINE",
"192 1288 LINE",
"58 959 LINE"
);
},
{
closed = 0;
nodes = (
"336 849 LINE"
);
},
{
closed = 0;
nodes = (
"336 849 LINE"
);
}
);
width = 750;
}
);
unicode = 0135;
userData = {
com.typemytype.robofont.layerData = {
b = {
anchors = (
);
components = (
);
contours = (
);
lib = {
};
name = jcircumflex;
unicodes = (
);
width = 333;
};
};
};
},
{
glyphname = k;
lastChange = "2013-12-17 14:53:00 -0800";
layers = (
{
anchors = (
{
name = bot;
position = "{519, 0}";
}
);
components = (
{
name = lc_ascender_stem;
transform = "{1, 0, 0, 1, 0, 0}";
}
);
layerId = "98C086B7-81AA-4491-8494-0C6A76849168";
name = Light;
paths = (
{
closed = 1;
nodes = (
"549 805 LINE",
"549 747 LINE",
"688 747 LINE",
"300 421 LINE",
"722 58 LINE",
"594 58 LINE",
"594 0 LINE",
"962 0 LINE",
"962 58 LINE",
"827 58 LINE",
"389 421 LINE",
"786 747 LINE",
"928 747 LINE",
"928 805 LINE"
);
}
);
width = 1051;
},
{
anchors = (
{
name = bot;
position = "{567, 0}";
}
);
components = (
{
name = lc_ascender_stem;
transform = "{1, 0, 0, 1, 0, 0}";
}
);
layerId = "1F09728C-766D-4240-AE17-E499EF32E23D";
name = Regular;
paths = (
{
closed = 1;
nodes = (
"567 805 LINE",
"567 689 LINE",
"699 689 LINE",
"361 417 LINE",
"711 116 LINE",
"615 116 LINE",
"615 0 LINE",
"1036 0 LINE",
"1036 116 LINE",
"896 116 LINE",
"550 415 LINE",
"875 689 LINE",
"1014 689 LINE",
"1014 805 LINE"
);
}
);
width = 1070;
},
{
anchors = (
{
name = bot;
position = "{620, 0}";
}
);
components = (
{
name = lc_ascender_stem;
transform = "{1, 0, 0, 1, 0, 0}";
}
);
layerId = "EFCDB4D9-E20B-4A8D-9DB5-150AD166B0AE";
name = Bold;
paths = (
{
closed = 1;
nodes = (
"624 849 LINE",
"624 709 LINE",
"769 709 LINE",
"437 438 LINE",
"761 141 LINE",
"677 141 LINE",
"677 0 LINE",
"1122 0 LINE",
"1122 141 LINE",
"983 141 LINE",
"658 440 LINE",
"971 709 LINE",
"1110 709 LINE",
"1110 849 LINE"
);
}
);
width = 1209;
}
);
rightKerningGroup = k_Left;
unicode = 006B;
userData = {
com.typemytype.robofont.guides = (
{
angle = 0;
isGlobal = 0;
magnetic = 5;
x = 474;
y = 421;
}
);
com.typemytype.robofont.layerData = {
b = {
anchors = (
);
components = (
);
contours = (
);
lib = {
};
name = k;
unicodes = (
);
width = 1050.88;
};
};
};
},
{
glyphname = o;
lastChange = "2013-12-17 14:30:03 -0800";
layers = (
{
anchors = (
{
name = top;
position = "{505, 805}";
}
);
layerId = "98C086B7-81AA-4491-8494-0C6A76849168";
name = Light;
paths = (
{
closed = 1;
nodes = (
"289 826 OFFCURVE",
"80 677 OFFCURVE",
"80 406 CURVE SMOOTH",
"80 130 OFFCURVE",
"291 -22 OFFCURVE",
"507 -22 CURVE SMOOTH",
"724 -22 OFFCURVE",
"938 128 OFFCURVE",
"938 406 CURVE SMOOTH",
"938 680 OFFCURVE",
"723 826 OFFCURVE",
"507 826 CURVE SMOOTH"
);
},
{
closed = 1;
nodes = (
"686 762 OFFCURVE",
"861 634 OFFCURVE",
"861 406 CURVE SMOOTH",
"861 170 OFFCURVE",
"686 42 OFFCURVE",
"507 42 CURVE SMOOTH",
"330 42 OFFCURVE",
"159 170 OFFCURVE",
"159 406 CURVE SMOOTH",
"159 634 OFFCURVE",
"330 762 OFFCURVE",
"507 762 CURVE SMOOTH"
);
}
);
width = 1018;
},
{
anchors = (
{
name = ogonek;
position = "{555, 0}";
},
{
name = top;
position = "{502, 805}";
}
);
layerId = "1F09728C-766D-4240-AE17-E499EF32E23D";
name = Regular;
paths = (
{
closed = 1;
nodes = (
"253 826 OFFCURVE",
"76 652 OFFCURVE",
"76 406 CURVE SMOOTH",
"76 155 OFFCURVE",
"252 -22 OFFCURVE",
"501 -22 CURVE SMOOTH",
"752 -22 OFFCURVE",
"929 154 OFFCURVE",
"929 402 CURVE SMOOTH",
"929 650 OFFCURVE",
"753 826 OFFCURVE",
"503 826 CURVE SMOOTH"
);
},
{
closed = 1;
nodes = (
"660 701 OFFCURVE",
"773 577 OFFCURVE",
"773 401 CURVE SMOOTH",
"773 227 OFFCURVE",
"660 104 OFFCURVE",
"501 103 CURVE",
"343 104 OFFCURVE",
"232 227 OFFCURVE",
"232 401 CURVE SMOOTH",
"232 577 OFFCURVE",
"343 701 OFFCURVE",
"501 701 CURVE SMOOTH"
);
}
);
width = 1005;
},
{
anchors = (
{
name = top;
position = "{533, 849}";
}
);
layerId = "EFCDB4D9-E20B-4A8D-9DB5-150AD166B0AE";
name = Bold;
paths = (
{
closed = 1;
nodes = (
"281 826 OFFCURVE",
"92 645 OFFCURVE",
"92 404 CURVE SMOOTH",
"92 161 OFFCURVE",
"280 -22 OFFCURVE",
"530 -22 CURVE SMOOTH",
"783 -22 OFFCURVE",
"972 161 OFFCURVE",
"972 404 CURVE SMOOTH",
"972 645 OFFCURVE",
"783 826 OFFCURVE",
"532 826 CURVE SMOOTH"
);
},
{
closed = 1;
nodes = (
"664 671 OFFCURVE",
"765 557 OFFCURVE",
"765 404 CURVE SMOOTH",
"765 250 OFFCURVE",
"665 134 OFFCURVE",
"531 134 CURVE SMOOTH",
"397 134 OFFCURVE",
"297 249 OFFCURVE",
"297 403 CURVE SMOOTH",
"297 556 OFFCURVE",
"397 671 OFFCURVE",
"530 671 CURVE SMOOTH"
);
}
);
width = 1064;
}
);
leftKerningGroup = o_Right;
rightKerningGroup = o_Left;
unicode = 006F;
userData = {
com.typemytype.robofont.layerData = {
b = {
anchors = (
);
components = (
);
contours = (
);
lib = {
};
name = o;
unicodes = (
);
width = 1038;
};
};
};
},
{
glyphname = obreve;
lastChange = "2013-12-17 18:13:32 -0800";
layers = (
{
components = (
{
name = o;
transform = "{1, 0, 0, 1, 0, 0}";
},
{
name = breve;
transform = "{1, 0, 0, 1, 330, 0}";
}
);
layerId = "98C086B7-81AA-4491-8494-0C6A76849168";
name = Light;
width = 1018;
},
{
components = (
{
name = breve;
transform = "{1, 0, 0, 1, 238, 2}";
},
{
name = o;
transform = "{1, 0, 0, 1, 0, 0}";
}
);
layerId = "1F09728C-766D-4240-AE17-E499EF32E23D";
name = Regular;
width = 1061;
},
{
layerId = "EFCDB4D9-E20B-4A8D-9DB5-150AD166B0AE";
name = Bold;
paths = (
{
closed = 1;
nodes = (
"820 424 CURVE SMOOTH",
"820 254 OFFCURVE",
"726 137 OFFCURVE",
"574 137 CURVE SMOOTH",
"422 137 OFFCURVE",
"328 254 OFFCURVE",
"328 423 CURVE SMOOTH",
"328 593 OFFCURVE",
"420 711 OFFCURVE",
"573 711 CURVE SMOOTH",
"727 711 OFFCURVE",
"820 593 OFFCURVE"
);
},
{
closed = 1;
nodes = (
"1027 424 CURVE SMOOTH",
"1027 680 OFFCURVE",
"844 866 OFFCURVE",
"575 866 CURVE SMOOTH",
"311 866 OFFCURVE",
"123 683 OFFCURVE",
"123 424 CURVE SMOOTH",
"123 169 OFFCURVE",
"303 -19 OFFCURVE",
"573 -19 CURVE SMOOTH",
"847 -19 OFFCURVE",
"1027 172 OFFCURVE"
);
},
{
closed = 1;
nodes = (
"311 1199 LINE",
"322 1055 OFFCURVE",
"429 960 OFFCURVE",
"574 960 CURVE SMOOTH",
"722 960 OFFCURVE",
"825 1056 OFFCURVE",
"839 1199 CURVE",
"706 1199 LINE",
"696 1123 OFFCURVE",
"645 1079 OFFCURVE",
"574 1079 CURVE SMOOTH",
"498 1079 OFFCURVE",
"453 1123 OFFCURVE",
"440 1199 CURVE"
);
},
{
closed = 0;
nodes = (
"575 849 LINE"
);
},
{
closed = 0;
nodes = (
"575 849 LINE"
);
}
);
width = 1150;
}
);
leftKerningGroup = o_Right;
rightKerningGroup = o_Left;
unicode = 014F;
userData = {
com.typemytype.robofont.layerData = {
b = {
anchors = (
);
components = (
);
contours = (
);
lib = {
};
name = obreve;
unicodes = (
);
width = 1004;
};
};
};
},
{
glyphname = uni020D;
lastChange = "2013-12-17 18:13:32 -0800";
layers = (
{
components = (
{
name = o;
transform = "{1, 0, 0, 1, 0, 0}";
},
{
name = uni030F;
transform = "{1, 0, 0, 1, 121, 0}";
}
);
layerId = "98C086B7-81AA-4491-8494-0C6A76849168";
name = Light;
width = 1018;
},
{
components = (
{
name = o;
transform = "{1, 0, 0, 1, 0, 0}";
},
{
name = uni030F;
transform = "{1, 0, 0, 1, 153, 0}";
}
);
layerId = "1F09728C-766D-4240-AE17-E499EF32E23D";
name = Regular;
width = 1005;
},
{
layerId = "EFCDB4D9-E20B-4A8D-9DB5-150AD166B0AE";
name = Bold;
paths = (
{
closed = 1;
nodes = (
"820 424 CURVE SMOOTH",
"820 254 OFFCURVE",
"726 137 OFFCURVE",
"574 137 CURVE SMOOTH",
"422 137 OFFCURVE",
"328 254 OFFCURVE",
"328 423 CURVE SMOOTH",
"328 593 OFFCURVE",
"420 711 OFFCURVE",
"573 711 CURVE SMOOTH",
"727 711 OFFCURVE",
"820 593 OFFCURVE"
);
},
{
closed = 1;
nodes = (
"1027 424 CURVE SMOOTH",
"1027 680 OFFCURVE",
"844 866 OFFCURVE",
"575 866 CURVE SMOOTH",
"311 866 OFFCURVE",
"123 683 OFFCURVE",
"123 424 CURVE SMOOTH",
"123 169 OFFCURVE",
"303 -19 OFFCURVE",
"573 -19 CURVE SMOOTH",
"847 -19 OFFCURVE",
"1027 172 OFFCURVE"
);
},
{
closed = 0;
nodes = (
"575 849 LINE"
);
}
);
width = 1150;
}
);
leftKerningGroup = o_Right;
rightKerningGroup = o_Left;
unicode = 020D;
userData = {
com.typemytype.robofont.layerData = {
b = {
anchors = (
);
components = (
);
contours = (
);
lib = {
};
name = uni020D;
unicodes = (
);
width = 1004;
};
};
};
},
{
glyphname = uni020F;
lastChange = "2013-12-17 18:13:32 -0800";
layers = (
{
components = (
{
name = o;
transform = "{1, 0, 0, 1, 0, 0}";
},
{
name = uni0311;
transform = "{1, 0, 0, 1, 71, 0}";
}
);
layerId = "98C086B7-81AA-4491-8494-0C6A76849168";
name = Light;
width = 1018;
},
{
components = (
{
name = o;
transform = "{1, 0, 0, 1, 0, 0}";
},
{
name = uni0311;
transform = "{1, 0, 0, 1, 203, 0}";
}
);
layerId = "1F09728C-766D-4240-AE17-E499EF32E23D";
name = Regular;
width = 1005;
},
{
layerId = "EFCDB4D9-E20B-4A8D-9DB5-150AD166B0AE";
name = Bold;
paths = (
{
closed = 1;
nodes = (
"450 968 LINE",
"462 1038 OFFCURVE",
"504 1077 OFFCURVE",
"574 1077 CURVE SMOOTH",
"640 1077 OFFCURVE",
"687 1038 OFFCURVE",
"696 968 CURVE",
"859 968 LINE",
"844 1122 OFFCURVE",
"733 1227 OFFCURVE",
"574 1227 CURVE SMOOTH",
"418 1227 OFFCURVE",
"303 1123 OFFCURVE",
"291 968 CURVE"
);
},
{
closed = 1;
nodes = (
"820 424 CURVE SMOOTH",
"820 254 OFFCURVE",
"726 137 OFFCURVE",
"574 137 CURVE SMOOTH",
"422 137 OFFCURVE",
"328 254 OFFCURVE",
"328 423 CURVE SMOOTH",
"328 593 OFFCURVE",
"420 711 OFFCURVE",
"573 711 CURVE SMOOTH",
"727 711 OFFCURVE",
"820 593 OFFCURVE"
);
},
{
closed = 1;
nodes = (
"1027 424 CURVE SMOOTH",
"1027 680 OFFCURVE",
"844 866 OFFCURVE",
"575 866 CURVE SMOOTH",
"311 866 OFFCURVE",
"123 683 OFFCURVE",
"123 424 CURVE SMOOTH",
"123 169 OFFCURVE",
"303 -19 OFFCURVE",
"573 -19 CURVE SMOOTH",
"847 -19 OFFCURVE",
"1027 172 OFFCURVE"
);
},
{
closed = 0;
nodes = (
"575 849 LINE"
);
}
);
width = 1150;
}
);
leftKerningGroup = o_Right;
rightKerningGroup = o_Left;
unicode = 020F;
userData = {
com.typemytype.robofont.layerData = {
b = {
anchors = (
);
components = (
);
contours = (
);
lib = {
};
name = uni020F;
unicodes = (
);
width = 1004;
};
};
};
},
{
glyphname = q;
lastChange = "2013-12-17 14:49:33 -0800";
layers = (
{
components = (
{
name = lc_bowl_left;
transform = "{1, 0, 0, 1, -38, 0}";
}
);
layerId = "98C086B7-81AA-4491-8494-0C6A76849168";
name = Light;
paths = (
{
closed = 1;
nodes = (
"805 -264 LINE",
"664 -264 LINE",
"664 -322 LINE",
"1024 -322 LINE",
"1024 -264 LINE",
"882 -264 LINE",
"882 732 LINE",
"1010 732 LINE",
"1010 790 LINE",
"819 790 LINE",
"805 674 LINE"
);
}
);
width = 1103;
},
{
components = (
{
name = lc_bowl_left;
transform = "{1, 0, 0, 1, -38, 0}";
}
);
layerId = "1F09728C-766D-4240-AE17-E499EF32E23D";
name = Regular;
paths = (
{
closed = 1;
nodes = (
"753 -179 LINE",
"589 -179 LINE",
"589 -303 LINE",
"1053 -303 LINE",
"1053 -179 LINE",
"901 -179 LINE",
"901 689 LINE",
"1043 689 LINE",
"1043 805 LINE",
"756 805 LINE",
"753 699 LINE"
);
}
);
width = 1121;
},
{
components = (
{
name = lc_bowl_left;
transform = "{1, 0, 0, 1, -38, 0}";
}
);
layerId = "EFCDB4D9-E20B-4A8D-9DB5-150AD166B0AE";
name = Bold;
paths = (
{
closed = 1;
nodes = (
"791 -181 LINE",
"625 -181 LINE",
"625 -330 LINE",
"1136 -330 LINE",
"1136 -181 LINE",
"989 -181 LINE",
"989 709 LINE",
"1136 709 LINE",
"1136 849 LINE",
"793 849 LINE",
"791 746 LINE"
);
}
);
width = 1220;
}
);
leftKerningGroup = o_Right;
unicode = 0071;
userData = {
com.typemytype.robofont.layerData = {
b = {
anchors = (
);
components = (
);
contours = (
);
lib = {
};
name = q;
unicodes = (
);
width = 1102.72;
};
};
};
},
{
glyphname = r;
lastChange = "2013-12-17 14:37:49 -0800";
layers = (
{
anchors = (
{
name = top;
position = "{455, 805}";
}
);
components = (
{
name = lc_xheight_stem;
transform = "{1, 0, 0, 1, 0, 0}";
}
);
layerId = "98C086B7-81AA-4491-8494-0C6A76849168";
name = Light;
paths = (
{
closed = 1;
nodes = (
"576 849 OFFCURVE",
"409.287 850.38 OFFCURVE",
"316 582 CURVE",
"338 449 LINE",
"338 709.171 OFFCURVE",
"514 822 OFFCURVE",
"708 725 CURVE",
"722 784 LINE"
);
}
);
width = 758;
},
{
anchors = (
{
name = bot;
position = "{343, 0}";
},
{
name = top;
position = "{403, 805}";
}
);
layerId = "1F09728C-766D-4240-AE17-E499EF32E23D";
name = Regular;
paths = (
{
closed = 1;
nodes = (
"530 810 OFFCURVE",
"415 725 OFFCURVE",
"374 609 CURVE",
"357 805 LINE",
"76 805 LINE",
"76 689 LINE",
"243 689 LINE",
"243 116 LINE",
"82 116 LINE",
"82 0 LINE",
"604 0 LINE",
"604 116 LINE",
"391 116 LINE",
"391 490 LINE",
"428 597 OFFCURVE",
"515 684 OFFCURVE",
"642 684 CURVE SMOOTH",
"690 684 OFFCURVE",
"723 673 OFFCURVE",
"723 673 CURVE",
"745 778 LINE",
"712 800 OFFCURVE",
"676 810 OFFCURVE",
"639 810 CURVE SMOOTH"
);
}
);
width = 787;
},
{
anchors = (
{
name = bot;
position = "{439, 0}";
},
{
name = top;
position = "{555, 849}";
}
);
components = (
{
name = lc_xheight_stem;
transform = "{1, 0, 0, 1, 2, 0}";
}
);
layerId = "EFCDB4D9-E20B-4A8D-9DB5-150AD166B0AE";
name = Bold;
paths = (
{
closed = 1;
nodes = (
"800 856 OFFCURVE",
"779 855 OFFCURVE",
"756 855 CURVE SMOOTH",
"603 855 OFFCURVE",
"508 806 OFFCURVE",
"436 619 CURVE",
"477 379 LINE SMOOTH",
"477 575 OFFCURVE",
"547 684 OFFCURVE",
"754 684 CURVE SMOOTH",
"769 684 OFFCURVE",
"806 683 OFFCURVE",
"807 682 CURVE",
"813 855 LINE"
);
}
);
width = 895;
}
);
rightKerningGroup = r_Left;
unicode = 0072;
userData = {
com.typemytype.robofont.layerData = {
b = {
anchors = (
);
components = (
);
contours = (
{
points = (
{
segmentType = line;
smooth = 0;
x = 338;
y = 449;
},
{
smooth = 0;
x = 338;
y = 643;
},
{
smooth = 0;
x = 441;
y = 756;
},
{
segmentType = curve;
smooth = 1;
x = 570;
y = 756;
},
{
smooth = 0;
x = 614;
y = 756;
},
{
smooth = 0;
x = 651;
y = 742;
},
{
segmentType = curve;
smooth = 0;
x = 704;
y = 716;
},
{
segmentType = line;
smooth = 0;
x = 722;
y = 784;
},
{
smooth = 0;
x = 664;
y = 810;
},
{
smooth = 0;
x = 622;
y = 820;
},
{
segmentType = curve;
smooth = 1;
x = 575;
y = 820;
},
{
smooth = 0;
x = 467;
y = 820;
},
{
smooth = 0;
x = 381;
y = 769;
},
{
segmentType = curve;
smooth = 0;
x = 316;
y = 582;
}
);
}
);
lib = {
};
name = r;
unicodes = (
);
width = 758;
};
};
};
},
{
glyphname = uni0211;
lastChange = "2013-12-15 21:02:57 -0800";
layers = (
{
components = (
{
name = r;
transform = "{1, 0, 0, 1, 0, 0}";
},
{
name = uni030F;
transform = "{1, 0, 0, 1, 71, 0}";
}
);
layerId = "98C086B7-81AA-4491-8494-0C6A76849168";
name = Light;
width = 758;
},
{
components = (
{
name = r;
transform = "{1, 0, 0, 1, 0, 0}";
},
{
name = uni030F;
transform = "{1, 0, 0, 1, 54, 0}";
}
);
layerId = "1F09728C-766D-4240-AE17-E499EF32E23D";
name = Regular;
width = 787;
},
{
layerId = "EFCDB4D9-E20B-4A8D-9DB5-150AD166B0AE";
name = Bold;
paths = (
{
closed = 1;
nodes = (
"529 141 LINE",
"529 379 LINE SMOOTH",
"529 575 OFFCURVE",
"599 684 OFFCURVE",
"806 684 CURVE SMOOTH",
"821 684 OFFCURVE",
"864 683 OFFCURVE",
"865 682 CURVE",
"865 855 LINE",
"852 856 OFFCURVE",
"831 855 OFFCURVE",
"808 855 CURVE SMOOTH",
"666 855 OFFCURVE",
"574 813 OFFCURVE",
"504 657 CURVE",
"504 849 LINE",
"168 849 LINE",
"168 709 LINE",
"333 709 LINE",
"333 141 LINE",
"168 141 LINE",
"168 0 LINE",
"709 0 LINE",
"709 141 LINE"
);
},
{
closed = 0;
nodes = (
"496 849 LINE"
);
},
{
closed = 0;
nodes = (
"496 0 LINE"
);
}
);
width = 977;
}
);
rightKerningGroup = r_Left;
unicode = 0211;
userData = {
com.typemytype.robofont.layerData = {
b = {
anchors = (
);
components = (
);
contours = (
);
lib = {
};
name = uni0211;
unicodes = (
);
width = 676;
};
};
};
},
{
glyphname = uni0213;
lastChange = "2013-12-15 21:02:57 -0800";
layers = (
{
components = (
{
name = r;
transform = "{1, 0, 0, 1, 0, 0}";
},
{
name = uni0311;
transform = "{1, 0, 0, 1, 21, 0}";
}
);
layerId = "98C086B7-81AA-4491-8494-0C6A76849168";
name = Light;
width = 758;
},
{
components = (
{
name = r;
transform = "{1, 0, 0, 1, 0, 0}";
},
{
name = uni0311;
transform = "{1, 0, 0, 1, 104, 0}";
}
);
layerId = "1F09728C-766D-4240-AE17-E499EF32E23D";
name = Regular;
width = 787;
},
{
layerId = "EFCDB4D9-E20B-4A8D-9DB5-150AD166B0AE";
name = Bold;
paths = (
{
closed = 1;
nodes = (
"391 968 LINE",
"403 1038 OFFCURVE",
"445 1077 OFFCURVE",
"515 1077 CURVE SMOOTH",
"581 1077 OFFCURVE",
"628 1038 OFFCURVE",
"637 968 CURVE",
"800 968 LINE",
"785 1122 OFFCURVE",
"674 1227 OFFCURVE",
"515 1227 CURVE SMOOTH",
"359 1227 OFFCURVE",
"244 1123 OFFCURVE",
"232 968 CURVE"
);
},
{
closed = 1;
nodes = (
"529 141 LINE",
"529 379 LINE SMOOTH",
"529 575 OFFCURVE",
"599 684 OFFCURVE",
"806 684 CURVE SMOOTH",
"821 684 OFFCURVE",
"864 683 OFFCURVE",
"865 682 CURVE",
"865 855 LINE",
"852 856 OFFCURVE",
"831 855 OFFCURVE",
"808 855 CURVE SMOOTH",
"666 855 OFFCURVE",
"574 813 OFFCURVE",
"504 657 CURVE",
"504 849 LINE",
"168 849 LINE",
"168 709 LINE",
"333 709 LINE",
"333 141 LINE",
"168 141 LINE",
"168 0 LINE",
"709 0 LINE",
"709 141 LINE"
);
},
{
closed = 0;
nodes = (
"496 849 LINE"
);
},
{
closed = 0;
nodes = (
"496 0 LINE"
);
}
);
width = 977;
}
);
rightKerningGroup = r_Left;
unicode = 0213;
userData = {
com.typemytype.robofont.layerData = {
b = {
anchors = (
);
components = (
);
contours = (
);
lib = {
};
name = uni0213;
unicodes = (
);
width = 676;
};
};
};
},
{
glyphname = s;
lastChange = "2013-12-17 14:30:03 -0800";
layers = (
{
anchors = (
{
name = bot;
position = "{466, 0}";
},
{
name = top;
position = "{435, 805}";
}
);
layerId = "98C086B7-81AA-4491-8494-0C6A76849168";
name = Light;
paths = (
{
closed = 1;
nodes = (
"278 818 OFFCURVE",
"137 752 OFFCURVE",
"137 595 CURVE SMOOTH",
"137 436 OFFCURVE",
"289 402 OFFCURVE",
"476 381 CURVE SMOOTH",
"631 363 OFFCURVE",
"711 327 OFFCURVE",
"711 212 CURVE SMOOTH",
"711 104 OFFCURVE",
"595 50 OFFCURVE",
"470 50 CURVE SMOOTH",
"358 50 OFFCURVE",
"234 87 OFFCURVE",
"199 161 CURVE",
"199 257 LINE",
"133 257 LINE",
"133 -1 LINE",
"199 -1 LINE",
"199 69 LINE",
"254 13 OFFCURVE",
"359 -14 OFFCURVE",
"466 -14 CURVE",
"624 -14 OFFCURVE",
"788 58 OFFCURVE",
"788 213 CURVE SMOOTH",
"788 389 OFFCURVE",
"645 424 OFFCURVE",
"502 445 CURVE SMOOTH",
"359 466 OFFCURVE",
"216 474 OFFCURVE",
"216 597 CURVE SMOOTH",
"216 707 OFFCURVE",
"326 754 OFFCURVE",
"441 754 CURVE SMOOTH",
"529 754 OFFCURVE",
"621 723 OFFCURVE",
"666 667 CURVE",
"666 549 LINE",
"733 549 LINE",
"733 802 LINE",
"666 802 LINE",
"666 744 LINE",
"607 798 OFFCURVE",
"515 818 OFFCURVE",
"422 818 CURVE SMOOTH"
);
}
);
width = 889;
},
{
anchors = (
{
name = bot;
position = "{477, 0}";
},
{
name = top;
position = "{397, 805}";
}
);
layerId = "1F09728C-766D-4240-AE17-E499EF32E23D";
name = Regular;
paths = (
{
closed = 1;
nodes = (
"600 823 LINE",
"600 758 LINE",
"553 793 OFFCURVE",
"480 820 OFFCURVE",
"399 820 CURVE SMOOTH",
"264 820 OFFCURVE",
"111 756 OFFCURVE",
"111 599 CURVE SMOOTH",
"111 465 OFFCURVE",
"202 411 OFFCURVE",
"342 381 CURVE SMOOTH",
"453 357 LINE SMOOTH",
"592 327 OFFCURVE",
"635 299 OFFCURVE",
"633 214 CURVE",
"628 129 OFFCURVE",
"557 93 OFFCURVE",
"472 93 CURVE SMOOTH",
"386 93 OFFCURVE",
"295 127 OFFCURVE",
"241 191 CURVE",
"231 292 LINE",
"115 292 LINE",
"115 0 LINE",
"246 0 LINE",
"246 66 LINE",
"312 15 OFFCURVE",
"394 -18 OFFCURVE",
"483 -18 CURVE SMOOTH",
"633 -18 OFFCURVE",
"772 52 OFFCURVE",
"772 229 CURVE SMOOTH",
"772 384 OFFCURVE",
"675 438 OFFCURVE",
"505 476 CURVE SMOOTH",
"407 498 LINE SMOOTH",
"314 519 OFFCURVE",
"252 529 OFFCURVE",
"256 615 CURVE SMOOTH",
"259 678 OFFCURVE",
"320 712 OFFCURVE",
"410 712 CURVE SMOOTH",
"485 712 OFFCURVE",
"560 688 OFFCURVE",
"608 646 CURVE",
"624 559 LINE",
"729 559 LINE",
"729 823 LINE"
);
}
);
width = 840;
},
{
anchors = (
{
name = bot;
position = "{539, 0}";
},
{
name = top;
position = "{487, 849}";
}
);
layerId = "EFCDB4D9-E20B-4A8D-9DB5-150AD166B0AE";
name = Bold;
paths = (
{
closed = 1;
nodes = (
"277 865 OFFCURVE",
"152 757 OFFCURVE",
"152 620 CURVE SMOOTH",
"152 448 OFFCURVE",
"290 393 OFFCURVE",
"428 359 CURVE SMOOTH",
"566 325 OFFCURVE",
"704 312 OFFCURVE",
"704 224 CURVE SMOOTH",
"704 155 OFFCURVE",
"640 119 OFFCURVE",
"527 119 CURVE SMOOTH",
"432 119 OFFCURVE",
"355 154 OFFCURVE",
"318 216 CURVE",
"318 283 LINE",
"162 283 LINE",
"162 0 LINE",
"318 0 LINE",
"318 51 LINE",
"377 3 OFFCURVE",
"446 -19 OFFCURVE",
"551 -19 CURVE",
"551 -22 LINE",
"757 -22 OFFCURVE",
"885 80 OFFCURVE",
"885 227 CURVE SMOOTH",
"885 407 OFFCURVE",
"746 466 OFFCURVE",
"607 501 CURVE SMOOTH",
"468 536 OFFCURVE",
"329 547 OFFCURVE",
"329 631 CURVE SMOOTH",
"329 692 OFFCURVE",
"390 728 OFFCURVE",
"488 728 CURVE SMOOTH",
"576 728 OFFCURVE",
"634 701 OFFCURVE",
"675 653 CURVE",
"675 584 LINE",
"837 584 LINE",
"837 848 LINE",
"675 848 LINE",
"675 795 LINE",
"622 842 OFFCURVE",
"544 865 OFFCURVE",
"466 865 CURVE SMOOTH"
);
}
);
width = 990;
}
);
unicode = 0073;
userData = {
com.typemytype.robofont.layerData = {
b = {
anchors = (
);
components = (
);
contours = (
);
lib = {
};
name = s;
unicodes = (
);
width = 888.96;
};
};
};
},
{
glyphname = scircumflex;
lastChange = "2013-12-15 21:02:57 -0800";
layers = (
{
components = (
{
name = s;
transform = "{1, 0, 0, 1, 0, 0}";
},
{
name = circumflex;
transform = "{1, 0, 0, 1, 221, 0}";
}
);
layerId = "98C086B7-81AA-4491-8494-0C6A76849168";
name = Light;
width = 889;
},
{
components = (
{
name = circumflex;
transform = "{1, 0, 0, 1, 185, 46}";
},
{
name = s;
transform = "{1, 0, 0, 1, 0, 0}";
}
);
layerId = "1F09728C-766D-4240-AE17-E499EF32E23D";
name = Regular;
width = 921;
},
{
layerId = "EFCDB4D9-E20B-4A8D-9DB5-150AD166B0AE";
name = Bold;
paths = (
{
closed = 1;
nodes = (
"545 -19 LINE",
"440 -19 OFFCURVE",
"371 3 OFFCURVE",
"312 51 CURVE",
"312 0 LINE",
"156 0 LINE",
"156 283 LINE",
"312 283 LINE",
"312 216 LINE",
"349 154 OFFCURVE",
"426 119 OFFCURVE",
"521 119 CURVE SMOOTH",
"634 119 OFFCURVE",
"698 155 OFFCURVE",
"698 224 CURVE SMOOTH",
"698 312 OFFCURVE",
"560 325 OFFCURVE",
"422 359 CURVE SMOOTH",
"284 393 OFFCURVE",
"146 448 OFFCURVE",
"146 620 CURVE SMOOTH",
"146 757 OFFCURVE",
"271 865 OFFCURVE",
"460 865 CURVE SMOOTH",
"538 865 OFFCURVE",
"616 842 OFFCURVE",
"669 795 CURVE",
"669 848 LINE",
"831 848 LINE",
"831 584 LINE",
"669 584 LINE",
"669 653 LINE",
"628 701 OFFCURVE",
"570 728 OFFCURVE",
"482 728 CURVE SMOOTH",
"384 728 OFFCURVE",
"323 692 OFFCURVE",
"323 631 CURVE SMOOTH",
"323 547 OFFCURVE",
"462 536 OFFCURVE",
"601 501 CURVE SMOOTH",
"740 466 OFFCURVE",
"879 407 OFFCURVE",
"879 227 CURVE SMOOTH",
"879 80 OFFCURVE",
"751 -22 OFFCURVE",
"545 -22 CURVE"
);
},
{
closed = 1;
nodes = (
"409 965 LINE",
"510 1217 LINE",
"611 965 LINE",
"791 965 LINE",
"651 1294 LINE",
"368 1294 LINE",
"234 965 LINE"
);
},
{
closed = 0;
nodes = (
"500 846 LINE"
);
},
{
closed = 0;
nodes = (
"500 -3 LINE"
);
},
{
closed = 0;
nodes = (
"512 855 LINE"
);
}
);
width = 1013;
}
);
unicode = 015D;
userData = {
com.typemytype.robofont.layerData = {
b = {
anchors = (
);
components = (
);
contours = (
);
lib = {
};
name = scircumflex;
unicodes = (
);
width = 842;
};
};
};
},
{
glyphname = t;
lastChange = "2013-12-17 14:30:03 -0800";
layers = (
{
anchors = (
{
name = bot;
position = "{365, 0}";
}
);
layerId = "98C086B7-81AA-4491-8494-0C6A76849168";
name = Light;
paths = (
{
closed = 1;
nodes = (
"185 1078 LINE",
"185 805 LINE",
"39 805 LINE",
"39 752 LINE",
"185 752 LINE",
"185 240 LINE SMOOTH",
"185 123 OFFCURVE",
"229 0 OFFCURVE",
"433 0 CURVE SMOOTH",
"526 0 LINE",
"526 58 LINE",
"436 58 LINE SMOOTH",
"305 58 OFFCURVE",
"261 117 OFFCURVE",
"261 228 CURVE SMOOTH",
"261 752 LINE",
"491 752 LINE",
"491 805 LINE",
"261 805 LINE",
"261 1096 LINE"
);
}
);
width = 576;
},
{
anchors = (
{
name = bot;
position = "{368, 10}";
},
{
name = mid;
position = "{280, 503}";
}
);
layerId = "1F09728C-766D-4240-AE17-E499EF32E23D";
name = Regular;
paths = (
{
closed = 1;
nodes = (
"161 1063 LINE",
"161 805 LINE",
"34 805 LINE",
"34 689 LINE",
"161 689 LINE",
"161 300 LINE SMOOTH",
"161 95 OFFCURVE",
"207 0 OFFCURVE",
"393 0 CURVE SMOOTH",
"537 0 LINE",
"537 116 LINE",
"413 116 LINE SMOOTH",
"324 116 OFFCURVE",
"309 175 OFFCURVE",
"309 289 CURVE SMOOTH",
"309 689 LINE",
"512 689 LINE",
"521 805 LINE",
"309 805 LINE",
"309 1095 LINE"
);
}
);
width = 585;
},
{
anchors = (
{
name = bot;
position = "{419, 0}";
},
{
name = mid;
position = "{294, 471}";
}
);
layerId = "EFCDB4D9-E20B-4A8D-9DB5-150AD166B0AE";
name = Bold;
paths = (
{
closed = 1;
nodes = (
"196 1077 LINE",
"196 849 LINE",
"70 849 LINE",
"70 709 LINE",
"194 709 LINE",
"194 248 LINE SMOOTH",
"194 89 OFFCURVE",
"261 0 OFFCURVE",
"419 0 CURVE SMOOTH",
"603 0 LINE",
"603 141 LINE",
"458 141 LINE SMOOTH",
"406 141 OFFCURVE",
"391 174 OFFCURVE",
"391 259 CURVE SMOOTH",
"391 709 LINE",
"594 709 LINE",
"594 849 LINE",
"391 849 LINE",
"391 1156 LINE"
);
}
);
width = 690;
}
);
rightKerningGroup = t_Left;
unicode = 0074;
userData = {
com.typemytype.robofont.layerData = {
b = {
anchors = (
);
components = (
);
contours = (
);
lib = {
};
name = t;
unicodes = (
);
width = 576;
};
};
};
},
{
glyphname = tcaron;
lastChange = "2013-12-15 21:02:57 -0800";
layers = (
{
layerId = "98C086B7-81AA-4491-8494-0C6A76849168";
name = Light;
paths = (
{
closed = 1;
nodes = (
"141 781 LINE",
"141 250 LINE SMOOTH",
"141 128 OFFCURVE",
"141 0 OFFCURVE",
"354 0 CURVE SMOOTH",
"435 0 LINE",
"435 60 LINE",
"357 60 LINE SMOOTH",
"220 60 OFFCURVE",
"220 122 OFFCURVE",
"220 238 CURVE SMOOTH",
"220 781 LINE",
"419 781 LINE",
"419 836 LINE",
"220 836 LINE",
"220 1166 LINE",
"141 1148 LINE",
"141 836 LINE",
"16 836 LINE",
"16 781 LINE"
);
},
{
closed = 1;
nodes = (
"581 1166 LINE",
"581 1046 LINE",
"643 1046 LINE",
"643 962 OFFCURVE",
"638 936 OFFCURVE",
"572 914 CURVE",
"572 870 LINE",
"673 870 OFFCURVE",
"707 946 OFFCURVE",
"707 1044 CURVE SMOOTH",
"707 1166 LINE"
);
}
);
width = 517;
},
{
components = (
{
name = comma;
transform = "{1, 0, 0, 1, 695, 884}";
},
{
name = t;
transform = "{1, 0, 0, 1, 0, 0}";
}
);
layerId = "1F09728C-766D-4240-AE17-E499EF32E23D";
name = Regular;
width = 687;
},
{
layerId = "EFCDB4D9-E20B-4A8D-9DB5-150AD166B0AE";
name = Bold;
paths = (
{
closed = 1;
nodes = (
"160 709 LINE",
"160 248 LINE SMOOTH",
"160 89 OFFCURVE",
"227 0 OFFCURVE",
"385 0 CURVE SMOOTH",
"569 0 LINE",
"569 141 LINE",
"424 141 LINE SMOOTH",
"372 141 OFFCURVE",
"357 174 OFFCURVE",
"357 259 CURVE SMOOTH",
"357 709 LINE",
"560 709 LINE",
"560 849 LINE",
"357 849 LINE",
"357 1156 LINE",
"162 1111 LINE",
"162 849 LINE",
"36 849 LINE",
"36 709 LINE"
);
},
{
closed = 1;
nodes = (
"724 1150 CURVE",
"724 1105 OFFCURVE",
"725 959 OFFCURVE",
"726 915 CURVE",
"854 915 LINE",
"854 805 OFFCURVE",
"818 763 OFFCURVE",
"722 745 CURVE",
"722 643 LINE",
"918 644 OFFCURVE",
"979 742 OFFCURVE",
"979 935 CURVE SMOOTH",
"979 980 OFFCURVE",
"976 1120 OFFCURVE",
"972 1156 CURVE",
"915 1156 OFFCURVE",
"773 1155 OFFCURVE"
);
},
{
closed = 0;
nodes = (
"311 425 LINE"
);
},
{
closed = 0;
nodes = (
"311 0 LINE"
);
}
);
width = 622;
}
);
rightKerningGroup = t_Left;
unicode = 0165;
userData = {
com.typemytype.robofont.layerData = {
b = {
anchors = (
);
components = (
);
contours = (
);
lib = {
};
name = tcaron;
unicodes = (
);
width = 517;
};
};
};
},
{
glyphname = uni021B;
lastChange = "2013-12-17 14:47:03 -0800";
layers = (
{
components = (
{
name = t;
transform = "{1, 0, 0, 1, 0, 0}";
},
{
name = commaaccent;
transform = "{1, 0, 0, 1, 167, 0}";
}
);
layerId = "98C086B7-81AA-4491-8494-0C6A76849168";
name = Light;
width = 576;
},
{
layerId = "EFCDB4D9-E20B-4A8D-9DB5-150AD166B0AE";
name = Bold;
paths = (
{
closed = 1;
nodes = (
"188 664 LINE",
"188 248 LINE SMOOTH",
"188 89 OFFCURVE",
"255 0 OFFCURVE",
"413 0 CURVE SMOOTH",
"597 0 LINE",
"597 141 LINE",
"452 141 LINE SMOOTH",
"400 141 OFFCURVE",
"385 174 OFFCURVE",
"385 259 CURVE SMOOTH",
"385 664 LINE",
"588 664 LINE",
"588 804 LINE",
"385 804 LINE",
"385 1156 LINE",
"190 1111 LINE",
"190 804 LINE",
"64 804 LINE",
"64 664 LINE"
);
},
{
closed = 0;
nodes = (
"339 425 LINE"
);
},
{
closed = 0;
nodes = (
"339 0 LINE"
);
}
);
width = 669;
},
{
layerId = "1F09728C-766D-4240-AE17-E499EF32E23D";
name = Regular;
width = 600;
}
);
rightKerningGroup = t_Left;
unicode = 021B;
userData = {
com.typemytype.robofont.layerData = {
b = {
anchors = (
);
components = (
);
contours = (
);
lib = {
};
name = uni021B;
unicodes = (
);
width = 517;
};
};
};
},
{
glyphname = u;
lastChange = "2013-12-17 14:46:55 -0800";
layers = (
{
anchors = (
{
name = ogonek;
position = "{906, 0}";
},
{
name = top;
position = "{525, 805}";
}
);
layerId = "98C086B7-81AA-4491-8494-0C6A76849168";
name = Light;
paths = (
{
closed = 1;
nodes = (
"644 805 LINE",
"644 747 LINE",
"795 747 LINE",
"795 167 LINE",
"697 106 OFFCURVE",
"608 51 OFFCURVE",
"483 51 CURVE SMOOTH",
"327 51 OFFCURVE",
"300 131 OFFCURVE",
"300 230 CURVE SMOOTH",
"300 805 LINE",
"72 805 LINE",
"72 747 LINE",
"224 747 LINE",
"224 215 LINE SMOOTH",
"224 110 OFFCURVE",
"282 -13 OFFCURVE",
"476 -13 CURVE SMOOTH",
"596 -13 OFFCURVE",
"671 24 OFFCURVE",
"799 100 CURVE",
"806 0 LINE",
"1021 0 LINE",
"1021 56 LINE",
"871 56 LINE",
"871 805 LINE"
);
}
);
width = 1099;
},
{
anchors = (
{
name = ogonek;
position = "{800, 0}";
},
{
name = top;
position = "{491, 805}";
}
);
layerId = "1F09728C-766D-4240-AE17-E499EF32E23D";
name = Regular;
paths = (
{
closed = 1;
nodes = (
"552 805 LINE",
"552 689 LINE",
"700 689 LINE",
"700 250 LINE",
"626 155 OFFCURVE",
"550 107 OFFCURVE",
"459 107 CURVE SMOOTH",
"374 107 OFFCURVE",
"316 161 OFFCURVE",
"316 268 CURVE SMOOTH",
"316 805 LINE",
"32 805 LINE",
"32 689 LINE",
"168 689 LINE",
"168 261 LINE SMOOTH",
"168 75 OFFCURVE",
"265 -18 OFFCURVE",
"431 -18 CURVE SMOOTH",
"531 -18 OFFCURVE",
"616 21 OFFCURVE",
"700 100 CURVE",
"705 0 LINE",
"994 0 LINE",
"994 116 LINE",
"848 116 LINE",
"848 805 LINE"
);
}
);
width = 1021;
},
{
anchors = (
{
name = ogonek;
position = "{928, 0}";
},
{
name = top;
position = "{551, 804}";
}
);
layerId = "EFCDB4D9-E20B-4A8D-9DB5-150AD166B0AE";
name = Bold;
paths = (
{
closed = 1;
nodes = (
"646 804 LINE",
"646 664 LINE",
"787 664 LINE",
"787 259 LINE",
"723 186 OFFCURVE",
"634 137 OFFCURVE",
"553 137 CURVE SMOOTH",
"463 137 OFFCURVE",
"422 191 OFFCURVE",
"422 292 CURVE SMOOTH",
"422 804 LINE",
"98 804 LINE",
"98 664 LINE",
"225 664 LINE",
"225 269 LINE SMOOTH",
"225 90 OFFCURVE",
"317 -19 OFFCURVE",
"502 -19 CURVE SMOOTH",
"598 -19 OFFCURVE",
"699 21 OFFCURVE",
"787 96 CURVE",
"791 0 LINE",
"1132 0 LINE",
"1132 141 LINE",
"983 141 LINE",
"983 804 LINE"
);
}
);
width = 1211;
}
);
leftKerningGroup = u_Left;
unicode = 0075;
userData = {
com.typemytype.robofont.layerData = {
b = {
anchors = (
);
components = (
);
contours = (
);
lib = {
};
name = u;
unicodes = (
);
width = 1099;
};
};
};
},
{
glyphname = utilde;
lastChange = "2013-12-15 21:02:57 -0800";
layers = (
{
components = (
{
name = u;
transform = "{1, 0, 0, 1, 0, 0}";
},
{
name = tilde;
transform = "{1, 0, 0, 1, 274, 0}";
}
);
layerId = "98C086B7-81AA-4491-8494-0C6A76849168";
name = Light;
width = 1099;
},
{
components = (
{
name = tilde;
transform = "{1, 0, 0, 1, 226, -12}";
},
{
name = u;
transform = "{1, 0, 0, 1, 0, 0}";
}
);
layerId = "1F09728C-766D-4240-AE17-E499EF32E23D";
name = Regular;
width = 1053;
},
{
layerId = "EFCDB4D9-E20B-4A8D-9DB5-150AD166B0AE";
name = Bold;
paths = (
{
closed = 1;
nodes = (
"986 141 LINE",
"986 849 LINE",
"647 849 LINE",
"647 709 LINE",
"788 709 LINE",
"788 259 LINE",
"724 186 OFFCURVE",
"645 137 OFFCURVE",
"564 137 CURVE SMOOTH",
"474 137 OFFCURVE",
"443 191 OFFCURVE",
"443 292 CURVE SMOOTH",
"443 849 LINE",
"119 849 LINE",
"119 709 LINE",
"246 709 LINE",
"246 269 LINE SMOOTH",
"246 90 OFFCURVE",
"328 -19 OFFCURVE",
"513 -19 CURVE SMOOTH",
"609 -19 OFFCURVE",
"700 21 OFFCURVE",
"788 96 CURVE",
"792 0 LINE",
"1133 0 LINE",
"1133 141 LINE"
);
},
{
closed = 1;
nodes = (
"441 977 LINE",
"447 1016 OFFCURVE",
"460 1037 OFFCURVE",
"495 1037 CURVE SMOOTH",
"564 1037 OFFCURVE",
"650 968 OFFCURVE",
"751 968 CURVE SMOOTH",
"849 968 OFFCURVE",
"909 1049 OFFCURVE",
"918 1181 CURVE",
"812 1181 LINE",
"804 1140 OFFCURVE",
"787 1119 OFFCURVE",
"756 1119 CURVE SMOOTH",
"685 1119 OFFCURVE",
"591 1186 OFFCURVE",
"497 1186 CURVE SMOOTH",
"416 1186 OFFCURVE",
"344 1124 OFFCURVE",
"333 977 CURVE"
);
},
{
closed = 0;
nodes = (
"626 849 LINE"
);
},
{
closed = 0;
nodes = (
"1042 10 LINE"
);
},
{
closed = 0;
nodes = (
"625 853 LINE"
);
}
);
width = 1253;
}
);
leftKerningGroup = u_Left;
unicode = 0169;
userData = {
com.typemytype.robofont.layerData = {
b = {
anchors = (
);
components = (
);
contours = (
);
lib = {
};
name = utilde;
unicodes = (
);
width = 982;
};
};
};
},
{
glyphname = ubreve;
lastChange = "2013-12-15 21:02:57 -0800";
layers = (
{
components = (
{
name = u;
transform = "{1, 0, 0, 1, 0, 0}";
},
{
name = breve;
transform = "{1, 0, 0, 1, 350, 0}";
}
);
layerId = "98C086B7-81AA-4491-8494-0C6A76849168";
name = Light;
width = 1099;
},
{
components = (
{
name = breve;
transform = "{1, 0, 0, 1, 228, 2}";
},
{
name = u;
transform = "{1, 0, 0, 1, 0, 0}";
}
);
layerId = "1F09728C-766D-4240-AE17-E499EF32E23D";
name = Regular;
width = 1053;
},
{
layerId = "EFCDB4D9-E20B-4A8D-9DB5-150AD166B0AE";
name = Bold;
paths = (
{
closed = 1;
nodes = (
"986 141 LINE",
"986 849 LINE",
"647 849 LINE",
"647 709 LINE",
"788 709 LINE",
"788 259 LINE",
"724 186 OFFCURVE",
"645 137 OFFCURVE",
"564 137 CURVE SMOOTH",
"474 137 OFFCURVE",
"443 191 OFFCURVE",
"443 292 CURVE SMOOTH",
"443 849 LINE",
"119 849 LINE",
"119 709 LINE",
"246 709 LINE",
"246 269 LINE SMOOTH",
"246 90 OFFCURVE",
"328 -19 OFFCURVE",
"513 -19 CURVE SMOOTH",
"609 -19 OFFCURVE",
"700 21 OFFCURVE",
"788 96 CURVE",
"792 0 LINE",
"1133 0 LINE",
"1133 141 LINE"
);
},
{
closed = 1;
nodes = (
"362 1207 LINE",
"373 1063 OFFCURVE",
"480 968 OFFCURVE",
"625 968 CURVE SMOOTH",
"773 968 OFFCURVE",
"876 1064 OFFCURVE",
"890 1207 CURVE",
"757 1207 LINE",
"747 1131 OFFCURVE",
"696 1087 OFFCURVE",
"625 1087 CURVE SMOOTH",
"549 1087 OFFCURVE",
"504 1131 OFFCURVE",
"491 1207 CURVE"
);
},
{
closed = 0;
nodes = (
"626 849 LINE"
);
},
{
closed = 0;
nodes = (
"1042 10 LINE"
);
},
{
closed = 0;
nodes = (
"626 857 LINE"
);
}
);
width = 1253;
}
);
leftKerningGroup = u_Left;
unicode = 016D;
userData = {
com.typemytype.robofont.layerData = {
b = {
anchors = (
);
components = (
);
contours = (
);
lib = {
};
name = ubreve;
unicodes = (
);
width = 982;
};
};
};
},
{
glyphname = uni0215;
lastChange = "2013-12-15 21:02:57 -0800";
layers = (
{
components = (
{
name = u;
transform = "{1, 0, 0, 1, 0, 0}";
},
{
name = uni030F;
transform = "{1, 0, 0, 1, 141, 0}";
}
);
layerId = "98C086B7-81AA-4491-8494-0C6A76849168";
name = Light;
width = 1099;
},
{
components = (
{
name = u;
transform = "{1, 0, 0, 1, 0, 0}";
},
{
name = uni030F;
transform = "{1, 0, 0, 1, 142, 0}";
}
);
layerId = "1F09728C-766D-4240-AE17-E499EF32E23D";
name = Regular;
width = 1021;
},
{
layerId = "EFCDB4D9-E20B-4A8D-9DB5-150AD166B0AE";
name = Bold;
paths = (
{
closed = 1;
nodes = (
"986 141 LINE",
"986 849 LINE",
"647 849 LINE",
"647 709 LINE",
"788 709 LINE",
"788 259 LINE",
"724 186 OFFCURVE",
"645 137 OFFCURVE",
"564 137 CURVE SMOOTH",
"474 137 OFFCURVE",
"443 191 OFFCURVE",
"443 292 CURVE SMOOTH",
"443 849 LINE",
"119 849 LINE",
"119 709 LINE",
"246 709 LINE",
"246 269 LINE SMOOTH",
"246 90 OFFCURVE",
"328 -19 OFFCURVE",
"513 -19 CURVE SMOOTH",
"609 -19 OFFCURVE",
"700 21 OFFCURVE",
"788 96 CURVE",
"792 0 LINE",
"1133 0 LINE",
"1133 141 LINE"
);
},
{
closed = 0;
nodes = (
"626 849 LINE"
);
},
{
closed = 0;
nodes = (
"1042 10 LINE"
);
}
);
width = 1253;
}
);
leftKerningGroup = u_Left;
unicode = 0215;
userData = {
com.typemytype.robofont.layerData = {
b = {
anchors = (
);
components = (
);
contours = (
);
lib = {
};
name = uni0215;
unicodes = (
);
width = 982;
};
};
};
},
{
glyphname = uni0217;
lastChange = "2013-12-15 21:02:57 -0800";
layers = (
{
components = (
{
name = u;
transform = "{1, 0, 0, 1, 0, 0}";
},
{
name = uni0311;
transform = "{1, 0, 0, 1, 91, 0}";
}
);
layerId = "98C086B7-81AA-4491-8494-0C6A76849168";
name = Light;
width = 1099;
},
{
components = (
{
name = u;
transform = "{1, 0, 0, 1, 0, 0}";
},
{
name = uni0311;
transform = "{1, 0, 0, 1, 192, 0}";
}
);
layerId = "1F09728C-766D-4240-AE17-E499EF32E23D";
name = Regular;
width = 1021;
},
{
layerId = "EFCDB4D9-E20B-4A8D-9DB5-150AD166B0AE";
name = Bold;
paths = (
{
closed = 1;
nodes = (
"501 968 LINE",
"513 1038 OFFCURVE",
"555 1077 OFFCURVE",
"625 1077 CURVE SMOOTH",
"691 1077 OFFCURVE",
"738 1038 OFFCURVE",
"747 968 CURVE",
"910 968 LINE",
"895 1122 OFFCURVE",
"784 1227 OFFCURVE",
"625 1227 CURVE SMOOTH",
"469 1227 OFFCURVE",
"354 1123 OFFCURVE",
"342 968 CURVE"
);
},
{
closed = 1;
nodes = (
"986 141 LINE",
"986 849 LINE",
"647 849 LINE",
"647 709 LINE",
"788 709 LINE",
"788 259 LINE",
"724 186 OFFCURVE",
"645 137 OFFCURVE",
"564 137 CURVE SMOOTH",
"474 137 OFFCURVE",
"443 191 OFFCURVE",
"443 292 CURVE SMOOTH",
"443 849 LINE",
"119 849 LINE",
"119 709 LINE",
"246 709 LINE",
"246 269 LINE SMOOTH",
"246 90 OFFCURVE",
"328 -19 OFFCURVE",
"513 -19 CURVE SMOOTH",
"609 -19 OFFCURVE",
"700 21 OFFCURVE",
"788 96 CURVE",
"792 0 LINE",
"1133 0 LINE",
"1133 141 LINE"
);
},
{
closed = 0;
nodes = (
"626 849 LINE"
);
},
{
closed = 0;
nodes = (
"1042 10 LINE"
);
}
);
width = 1253;
}
);
leftKerningGroup = u_Left;
unicode = 0217;
userData = {
com.typemytype.robofont.layerData = {
b = {
anchors = (
);
components = (
);
contours = (
);
lib = {
};
name = uni0217;
unicodes = (
);
width = 982;
};
};
};
},
{
glyphname = v;
lastChange = "2013-12-17 14:46:33 -0800";
layers = (
{
layerId = "98C086B7-81AA-4491-8494-0C6A76849168";
name = Light;
paths = (
{
closed = 1;
nodes = (
"663 805 LINE",
"663 747 LINE",
"814 747 LINE",
"547 68 LINE",
"257 747 LINE",
"418 747 LINE",
"418 805 LINE",
"36 805 LINE",
"36 747 LINE",
"179 747 LINE",
"507 0 LINE",
"593 0 LINE",
"900 747 LINE",
"1040 747 LINE",
"1040 805 LINE"
);
}
);
width = 1074;
},
{
layerId = "1F09728C-766D-4240-AE17-E499EF32E23D";
name = Regular;
paths = (
{
closed = 1;
nodes = (
"562 805 LINE",
"562 689 LINE",
"682 689 LINE",
"491 162 LINE",
"289 689 LINE",
"411 689 LINE",
"411 805 LINE",
"0 805 LINE",
"0 689 LINE",
"132 689 LINE",
"424 0 LINE",
"560 0 LINE",
"831 689 LINE",
"964 689 LINE",
"964 805 LINE"
);
}
);
width = 964;
},
{
layerId = "EFCDB4D9-E20B-4A8D-9DB5-150AD166B0AE";
name = Bold;
paths = (
{
closed = 1;
nodes = (
"655 804 LINE",
"655 664 LINE",
"766 664 LINE",
"580 209 LINE",
"396 664 LINE",
"508 664 LINE",
"508 804 LINE",
"51 804 LINE",
"51 664 LINE",
"196 664 LINE",
"488 0 LINE",
"659 0 LINE",
"946 664 LINE",
"1079 664 LINE",
"1079 804 LINE"
);
}
);
width = 1131;
}
);
leftKerningGroup = v_Left;
rightKerningGroup = v_Left;
unicode = 0076;
userData = {
com.typemytype.robofont.layerData = {
b = {
anchors = (
);
components = (
);
contours = (
);
lib = {
};
name = v;
unicodes = (
);
width = 1074.24;
};
};
};
},
{
glyphname = w;
lastChange = "2013-12-17 14:46:24 -0800";
layers = (
{
anchors = (
{
name = top;
position = "{805, 805}";
}
);
layerId = "98C086B7-81AA-4491-8494-0C6A76849168";
name = Light;
paths = (
{
closed = 1;
nodes = (
"1189 805 LINE",
"1189 747 LINE",
"1326 747 LINE",
"1097 62 LINE",
"845 747 LINE",
"985 747 LINE",
"985 805 LINE",
"620 805 LINE",
"620 747 LINE",
"757 747 LINE",
"507 62 LINE",
"271 747 LINE",
"418 747 LINE",
"418 805 LINE",
"61 805 LINE",
"61 747 LINE",
"196 747 LINE",
"465 0 LINE",
"551 0 LINE",
"805 684 LINE",
"1058 0 LINE",
"1144 0 LINE",
"1412 747 LINE",
"1547 747 LINE",
"1547 805 LINE"
);
}
);
width = 1608;
},
{
anchors = (
{
name = top;
position = "{718, 805}";
}
);
layerId = "1F09728C-766D-4240-AE17-E499EF32E23D";
name = Regular;
paths = (
{
closed = 1;
nodes = (
"1047 805 LINE",
"1047 689 LINE",
"1167 689 LINE",
"1000 146 LINE",
"809 689 LINE",
"914 689 LINE",
"914 805 LINE",
"516 805 LINE",
"516 689 LINE",
"621 689 LINE",
"434 157 LINE",
"267 689 LINE",
"377 689 LINE",
"377 805 LINE",
"-2 805 LINE",
"-2 689 LINE",
"127 689 LINE",
"365 0 LINE",
"508 0 LINE",
"719 622 LINE",
"925 0 LINE",
"1067 0 LINE",
"1301 689 LINE",
"1423 689 LINE",
"1423 805 LINE"
);
}
);
width = 1421;
},
{
anchors = (
{
name = top;
position = "{764, 804}";
}
);
layerId = "EFCDB4D9-E20B-4A8D-9DB5-150AD166B0AE";
name = Bold;
paths = (
{
closed = 1;
nodes = (
"1076 804 LINE",
"1076 664 LINE",
"1174 664 LINE",
"1029 197 LINE",
"865 664 LINE",
"965 664 LINE",
"965 804 LINE",
"551 804 LINE",
"551 664 LINE",
"652 664 LINE",
"496 201 LINE",
"339 664 LINE",
"427 664 LINE",
"427 804 LINE",
"53 804 LINE",
"53 664 LINE",
"146 664 LINE",
"391 0 LINE",
"576 0 LINE",
"754 502 LINE",
"934 0 LINE",
"1119 0 LINE",
"1352 664 LINE",
"1450 664 LINE",
"1450 804 LINE"
);
}
);
width = 1503;
}
);
leftKerningGroup = w_Left;
rightKerningGroup = w_Left;
unicode = 0077;
userData = {
com.typemytype.robofont.layerData = {
b = {
anchors = (
);
components = (
);
contours = (
);
lib = {
};
name = w;
unicodes = (
);
width = 1608;
};
};
};
},
{
glyphname = x;
lastChange = "2013-12-17 14:46:10 -0800";
layers = (
{
layerId = "98C086B7-81AA-4491-8494-0C6A76849168";
name = Light;
paths = (
{
closed = 1;
nodes = (
"674 805 LINE",
"674 747 LINE",
"816 747 LINE",
"579 462 LINE",
"339 747 LINE",
"490 747 LINE",
"490 805 LINE",
"121 805 LINE",
"121 747 LINE",
"264 747 LINE",
"540 416 LINE",
"242 58 LINE",
"98 58 LINE",
"98 0 LINE",
"466 0 LINE",
"466 58 LINE",
"333 58 LINE",
"586 363 LINE",
"844 58 LINE",
"686 58 LINE",
"686 0 LINE",
"1066 0 LINE",
"1066 58 LINE",
"921 58 LINE",
"623 409 LINE",
"902 747 LINE",
"1055 747 LINE",
"1055 805 LINE"
);
}
);
width = 1164;
},
{
layerId = "1F09728C-766D-4240-AE17-E499EF32E23D";
name = Regular;
paths = (
{
closed = 1;
nodes = (
"570 805 LINE",
"570 689 LINE",
"671 689 LINE",
"509 494 LINE",
"341 689 LINE",
"450 689 LINE",
"450 805 LINE",
"70 805 LINE",
"70 689 LINE",
"195 689 LINE",
"432 413 LINE",
"179 116 LINE",
"60 116 LINE",
"60 0 LINE",
"438 0 LINE",
"438 116 LINE",
"332 116 LINE",
"509 329 LINE",
"694 116 LINE",
"582 116 LINE",
"582 0 LINE",
"958 0 LINE",
"958 116 LINE",
"846 116 LINE",
"588 413 LINE",
"817 689 LINE",
"950 689 LINE",
"950 805 LINE"
);
}
);
width = 1018;
},
{
layerId = "EFCDB4D9-E20B-4A8D-9DB5-150AD166B0AE";
name = Bold;
paths = (
{
closed = 1;
nodes = (
"622 804 LINE",
"622 664 LINE",
"720 664 LINE",
"575 502 LINE",
"429 664 LINE",
"529 664 LINE",
"529 804 LINE",
"104 804 LINE",
"104 664 LINE",
"227 664 LINE",
"464 409 LINE",
"219 141 LINE",
"111 141 LINE",
"111 0 LINE",
"514 0 LINE",
"514 141 LINE",
"402 141 LINE",
"561 316 LINE",
"726 141 LINE",
"611 141 LINE",
"611 0 LINE",
"1035 0 LINE",
"1035 141 LINE",
"929 141 LINE",
"674 420 LINE",
"900 664 LINE",
"1035 664 LINE",
"1035 804 LINE"
);
}
);
width = 1133;
}
);
unicode = 0078;
userData = {
com.typemytype.robofont.layerData = {
b = {
anchors = (
);
components = (
);
contours = (
);
lib = {
};
name = x;
unicodes = (
);
width = 1163.52;
};
};
};
},
{
glyphname = y;
lastChange = "2013-12-17 14:45:43 -0800";
layers = (
{
anchors = (
{
name = top;
position = "{555, 805}";
}
);
layerId = "98C086B7-81AA-4491-8494-0C6A76849168";
name = Light;
paths = (
{
closed = 1;
nodes = (
"686 805 LINE",
"686 747 LINE",
"847 747 LINE",
"582 87 LINE",
"295 747 LINE",
"437 747 LINE",
"437 805 LINE",
"54 805 LINE",
"54 747 LINE",
"211 747 LINE",
"518 58 LINE",
"572 58 LINE",
"505 -98 LINE SMOOTH",
"465 -190 OFFCURVE",
"381 -196 OFFCURVE",
"270 -196 CURVE SMOOTH",
"219 -196 LINE",
"219 -261 LINE",
"239 -261 LINE SMOOTH",
"401 -261 OFFCURVE",
"517 -258 OFFCURVE",
"575 -120 CURVE SMOOTH",
"934 747 LINE",
"1064 747 LINE",
"1064 805 LINE"
);
}
);
width = 1089;
},
{
anchors = (
{
name = top;
position = "{514, 805}";
}
);
layerId = "1F09728C-766D-4240-AE17-E499EF32E23D";
name = Regular;
paths = (
{
closed = 1;
nodes = (
"586 805 LINE",
"586 689 LINE",
"713 689 LINE",
"528 125 LINE",
"297 689 LINE",
"421 689 LINE",
"421 805 LINE",
"15 805 LINE",
"15 689 LINE",
"141 689 LINE",
"414 43 LINE",
"508 43 LINE",
"476 -42 LINE SMOOTH",
"436 -149 OFFCURVE",
"380 -202 OFFCURVE",
"248 -202 CURVE SMOOTH",
"174 -202 LINE",
"174 -320 LINE",
"260 -320 LINE SMOOTH",
"502 -320 OFFCURVE",
"566 -179 OFFCURVE",
"637 36 CURVE SMOOTH",
"873 689 LINE",
"999 689 LINE",
"999 805 LINE"
);
}
);
width = 1005;
},
{
anchors = (
{
name = top;
position = "{576, 804}";
}
);
layerId = "EFCDB4D9-E20B-4A8D-9DB5-150AD166B0AE";
name = Bold;
paths = (
{
closed = 1;
nodes = (
"648 804 LINE",
"648 664 LINE",
"773 664 LINE",
"592 182 LINE",
"380 664 LINE",
"486 664 LINE",
"486 804 LINE",
"40 804 LINE",
"40 664 LINE",
"181 664 LINE",
"470 45 LINE",
"547 45 LINE",
"516 -59 LINE SMOOTH",
"473 -195 OFFCURVE",
"424 -206 OFFCURVE",
"328 -206 CURVE SMOOTH",
"230 -206 LINE",
"230 -363 LINE",
"348 -363 LINE SMOOTH",
"589 -363 OFFCURVE",
"616 -242 OFFCURVE",
"701 -23 CURVE SMOOTH",
"967 664 LINE",
"1098 664 LINE",
"1098 804 LINE"
);
}
);
width = 1141;
}
);
leftKerningGroup = y_Left;
rightKerningGroup = y_Left;
unicode = 0079;
userData = {
com.typemytype.robofont.layerData = {
b = {
anchors = (
);
components = (
);
contours = (
);
lib = {
};
name = y;
unicodes = (
);
width = 1088.64;
};
};
};
},
{
glyphname = z;
lastChange = "2013-12-17 14:45:57 -0800";
layers = (
{
anchors = (
{
name = top;
position = "{475, 805}";
}
);
layerId = "98C086B7-81AA-4491-8494-0C6A76849168";
name = Light;
paths = (
{
closed = 1;
nodes = (
"153 805 LINE",
"153 562 LINE",
"219 562 LINE",
"219 747 LINE",
"685 747 LINE",
"132 64 LINE",
"132 0 LINE",
"782 0 LINE",
"782 266 LINE",
"716 266 LINE",
"716 56 LINE",
"219 56 LINE",
"765 735 LINE",
"765 805 LINE"
);
}
);
width = 914;
},
{
anchors = (
{
name = top;
position = "{432, 805}";
}
);
layerId = "1F09728C-766D-4240-AE17-E499EF32E23D";
name = Regular;
paths = (
{
closed = 1;
nodes = (
"106 805 LINE",
"106 537 LINE",
"227 537 LINE",
"227 689 LINE",
"564 689 LINE",
"92 116 LINE",
"92 0 LINE",
"771 0 LINE",
"771 276 LINE",
"643 276 LINE",
"643 116 LINE",
"272 116 LINE",
"746 683 LINE",
"746 805 LINE"
);
}
);
width = 819;
},
{
anchors = (
{
name = top;
position = "{555, 804}";
}
);
layerId = "EFCDB4D9-E20B-4A8D-9DB5-150AD166B0AE";
name = Bold;
paths = (
{
closed = 1;
nodes = (
"182 804 LINE",
"182 517 LINE",
"328 517 LINE",
"328 670 LINE",
"689 670 LINE",
"174 135 LINE",
"174 0 LINE",
"922 0 LINE",
"922 298 LINE",
"771 298 LINE",
"771 133 LINE",
"404 133 LINE",
"923 665 LINE",
"923 804 LINE"
);
}
);
width = 1065;
}
);
unicode = 007A;
userData = {
com.typemytype.robofont.layerData = {
b = {
anchors = (
);
components = (
);
contours = (
);
lib = {
};
name = z;
unicodes = (
);
width = 913.92;
};
};
};
},
{
glyphname = ordfeminine;
lastChange = "2013-12-15 19:09:22 -0800";
layers = (
{
layerId = "98C086B7-81AA-4491-8494-0C6A76849168";
name = Light;
paths = (
{
closed = 1;
nodes = (
"331 641 CURVE SMOOTH",
"409 641 OFFCURVE",
"474 666 OFFCURVE",
"536 708 CURVE",
"545 650 LINE",
"713 650 LINE",
"713 710 LINE",
"607 710 LINE",
"607 1067 LINE SMOOTH",
"607 1145 OFFCURVE",
"567 1255 OFFCURVE",
"380 1255 CURVE SMOOTH",
"285 1255 OFFCURVE",
"206 1235 OFFCURVE",
"150 1181 CURVE",
"186 1123 LINE",
"230 1169 OFFCURVE",
"295 1192 OFFCURVE",
"379 1192 CURVE SMOOTH",
"475 1192 OFFCURVE",
"534 1158 OFFCURVE",
"534 1055 CURVE SMOOTH",
"534 978 LINE",
"482 988 OFFCURVE",
"434 996 OFFCURVE",
"384 996 CURVE SMOOTH",
"258 996 OFFCURVE",
"126 979 OFFCURVE",
"126 818 CURVE SMOOTH",
"126 725 OFFCURVE",
"193 641 OFFCURVE"
);
},
{
closed = 1;
nodes = (
"534 772 LINE",
"477 721 OFFCURVE",
"413 706 OFFCURVE",
"338 706 CURVE SMOOTH",
"234 706 OFFCURVE",
"200 766 OFFCURVE",
"200 817 CURVE SMOOTH",
"200 929 OFFCURVE",
"299 932 OFFCURVE",
"378 932 CURVE SMOOTH",
"390 932 LINE SMOOTH",
"446 932 OFFCURVE",
"512 922 OFFCURVE",
"534 917 CURVE"
);
}
);
width = 791;
},
{
layerId = "1F09728C-766D-4240-AE17-E499EF32E23D";
name = Regular;
paths = (
{
closed = 1;
nodes = (
"442 820 LINE",
"402 820 OFFCURVE",
"352 832 OFFCURVE",
"305 832 CURVE SMOOTH",
"196 832 OFFCURVE",
"142 794 OFFCURVE",
"142 717 CURVE SMOOTH",
"142 657 OFFCURVE",
"191 622 OFFCURVE",
"257 622 CURVE SMOOTH",
"332 622 OFFCURVE",
"393 644 OFFCURVE",
"442 689 CURVE"
);
},
{
closed = 1;
nodes = (
"72 1087 LINE",
"128 1143 OFFCURVE",
"203 1172 OFFCURVE",
"298 1172 CURVE SMOOTH",
"459 1172 OFFCURVE",
"554 1114 OFFCURVE",
"554 971 CURVE SMOOTH",
"554 640 LINE",
"662 640 LINE",
"662 555 LINE",
"454 555 LINE",
"453 617 LINE",
"380 566 OFFCURVE",
"311 540 OFFCURVE",
"246 540 CURVE SMOOTH",
"244 540 LINE SMOOTH",
"133 540 OFFCURVE",
"36 608 OFFCURVE",
"36 709 CURVE SMOOTH",
"36 854 OFFCURVE",
"133 908 OFFCURVE",
"271 908 CURVE SMOOTH",
"335 908 OFFCURVE",
"392 903 OFFCURVE",
"442 893 CURVE",
"442 966 LINE SMOOTH",
"442 1043 OFFCURVE",
"395 1082 OFFCURVE",
"302 1082 CURVE SMOOTH",
"229 1082 OFFCURVE",
"176 1059 OFFCURVE",
"141 1014 CURVE"
);
}
);
width = 696;
},
{
layerId = "EFCDB4D9-E20B-4A8D-9DB5-150AD166B0AE";
name = Bold;
paths = (
{
closed = 1;
nodes = (
"499 763 LINE",
"454 723 OFFCURVE",
"393 700 OFFCURVE",
"338 700 CURVE SMOOTH",
"271 700 OFFCURVE",
"232 738 OFFCURVE",
"232 788 CURVE SMOOTH",
"232 862 OFFCURVE",
"291 887 OFFCURVE",
"362 887 CURVE SMOOTH",
"410 887 OFFCURVE",
"460 872 OFFCURVE",
"499 856 CURVE"
);
},
{
closed = 1;
nodes = (
"703 718 LINE",
"605 718 LINE",
"605 1015 LINE SMOOTH",
"605 1133 OFFCURVE",
"520 1194 OFFCURVE",
"383 1194 CURVE SMOOTH",
"276 1194 OFFCURVE",
"197 1160 OFFCURVE",
"148 1093 CURVE",
"236 1044 LINE",
"265 1086 OFFCURVE",
"310 1109 OFFCURVE",
"370 1109 CURVE SMOOTH",
"449 1109 OFFCURVE",
"499 1074 OFFCURVE",
"499 1004 CURVE SMOOTH",
"499 934 LINE",
"450 952 OFFCURVE",
"400 963 OFFCURVE",
"353 963 CURVE SMOOTH",
"226 963 OFFCURVE",
"128 908 OFFCURVE",
"128 787 CURVE SMOOTH",
"128 696 OFFCURVE",
"207 621 OFFCURVE",
"321 621 CURVE SMOOTH",
"389 621 OFFCURVE",
"448 644 OFFCURVE",
"509 694 CURVE",
"509 632 LINE",
"703 632 LINE"
);
}
);
width = 796;
}
);
unicode = 00AA;
userData = {
com.typemytype.robofont.layerData = {
b = {
anchors = (
);
components = (
);
contours = (
);
lib = {
};
name = ordfeminine;
unicodes = (
);
width = 791;
};
};
};
},
{
glyphname = ordmasculine;
lastChange = "2013-12-15 19:09:22 -0800";
layers = (
{
layerId = "98C086B7-81AA-4491-8494-0C6A76849168";
name = Light;
paths = (
{
closed = 1;
nodes = (
"680 950 CURVE SMOOTH",
"680 788 OFFCURVE",
"556 706 OFFCURVE",
"434 706 CURVE SMOOTH",
"311 706 OFFCURVE",
"190 788 OFFCURVE",
"190 950 CURVE SMOOTH",
"190 1109 OFFCURVE",
"311 1192 OFFCURVE",
"434 1192 CURVE SMOOTH",
"556 1192 OFFCURVE",
"680 1109 OFFCURVE"
);
},
{
closed = 1;
nodes = (
"754 950 CURVE SMOOTH",
"754 1153 OFFCURVE",
"593 1255 OFFCURVE",
"434 1255 CURVE SMOOTH",
"273 1255 OFFCURVE",
"116 1151 OFFCURVE",
"116 950 CURVE SMOOTH",
"116 746 OFFCURVE",
"274 641 OFFCURVE",
"434 641 CURVE SMOOTH",
"593 641 OFFCURVE",
"754 746 OFFCURVE"
);
}
);
width = 870;
},
{
layerId = "1F09728C-766D-4240-AE17-E499EF32E23D";
name = Regular;
paths = (
{
closed = 1;
nodes = (
"524 907 CURVE SMOOTH",
"524 1003 OFFCURVE",
"448 1074 OFFCURVE",
"352 1074 CURVE SMOOTH",
"255 1074 OFFCURVE",
"180 1003 OFFCURVE",
"180 907 CURVE SMOOTH",
"180 810 OFFCURVE",
"256 738 OFFCURVE",
"353 738 CURVE SMOOTH",
"449 738 OFFCURVE",
"524 810 OFFCURVE"
);
},
{
closed = 1;
nodes = (
"68 907 CURVE SMOOTH",
"68 1063 OFFCURVE",
"197 1170 OFFCURVE",
"353 1171 CURVE",
"510 1171 OFFCURVE",
"637 1062 OFFCURVE",
"637 907 CURVE SMOOTH",
"637 753 OFFCURVE",
"510 643 OFFCURVE",
"353 643 CURVE SMOOTH",
"351 643 LINE SMOOTH",
"196 643 OFFCURVE",
"68 754 OFFCURVE"
);
}
);
width = 704;
},
{
layerId = "EFCDB4D9-E20B-4A8D-9DB5-150AD166B0AE";
name = Bold;
paths = (
{
closed = 1;
nodes = (
"578 934 CURVE SMOOTH",
"578 838 OFFCURVE",
"504 765 OFFCURVE",
"407 765 CURVE SMOOTH",
"308 765 OFFCURVE",
"234 838 OFFCURVE",
"234 934 CURVE SMOOTH",
"234 1030 OFFCURVE",
"308 1101 OFFCURVE",
"407 1101 CURVE SMOOTH",
"504 1101 OFFCURVE",
"578 1030 OFFCURVE"
);
},
{
closed = 1;
nodes = (
"691 934 CURVE SMOOTH",
"691 1086 OFFCURVE",
"570 1198 OFFCURVE",
"407 1198 CURVE SMOOTH",
"244 1198 OFFCURVE",
"122 1086 OFFCURVE",
"122 934 CURVE SMOOTH",
"122 783 OFFCURVE",
"244 670 OFFCURVE",
"407 670 CURVE SMOOTH",
"570 670 OFFCURVE",
"691 783 OFFCURVE"
);
}
);
width = 813;
}
);
unicode = 00BA;
userData = {
com.typemytype.robofont.layerData = {
b = {
anchors = (
);
components = (
);
contours = (
);
lib = {
};
name = ordmasculine;
unicodes = (
);
width = 870;
};
};
};
},
{
glyphname = germandbls;
lastChange = "2013-12-15 19:09:22 -0800";
layers = (
{
layerId = "98C086B7-81AA-4491-8494-0C6A76849168";
name = Light;
paths = (
{
closed = 1;
nodes = (
"319 62 LINE",
"319 856 LINE SMOOTH",
"319 1088 OFFCURVE",
"385 1180 OFFCURVE",
"591 1180 CURVE SMOOTH",
"768 1180 OFFCURVE",
"858 1072 OFFCURVE",
"858 955 CURVE SMOOTH",
"858 829 OFFCURVE",
"773 694 OFFCURVE",
"594 685 CURVE",
"594 641 LINE",
"887 641 OFFCURVE",
"993 493 OFFCURVE",
"993 337 CURVE SMOOTH",
"993 122 OFFCURVE",
"798 62 OFFCURVE",
"586 62 CURVE",
"586 0 LINE",
"925 0 OFFCURVE",
"1072 143 OFFCURVE",
"1072 337 CURVE SMOOTH",
"1072 517 OFFCURVE",
"935 668 OFFCURVE",
"718 676 CURVE",
"880 708 OFFCURVE",
"937 838 OFFCURVE",
"937 958 CURVE SMOOTH",
"937 1104 OFFCURVE",
"813 1255 OFFCURVE",
"587 1255 CURVE SMOOTH",
"340 1255 OFFCURVE",
"238 1106 OFFCURVE",
"238 851 CURVE SMOOTH",
"238 62 LINE",
"85 62 LINE",
"85 0 LINE",
"435 0 LINE",
"435 62 LINE"
);
}
);
width = 1174;
},
{
layerId = "1F09728C-766D-4240-AE17-E499EF32E23D";
name = Regular;
paths = (
{
closed = 1;
nodes = (
"222 786 LINE SMOOTH",
"222 1029 OFFCURVE",
"343 1171 OFFCURVE",
"585 1171 CURVE SMOOTH",
"777 1171 OFFCURVE",
"924 1071 OFFCURVE",
"925 889 CURVE SMOOTH",
"925 760 OFFCURVE",
"866 678 OFFCURVE",
"748 641 CURVE",
"950 608 OFFCURVE",
"1102 459 OFFCURVE",
"1012 208 CURVE SMOOTH",
"960 64 OFFCURVE",
"815 0 OFFCURVE",
"613 0 CURVE",
"613 116 LINE",
"797 116 OFFCURVE",
"889 193 OFFCURVE",
"889 346 CURVE SMOOTH",
"890 501 OFFCURVE",
"757 571 OFFCURVE",
"573 569 CURVE",
"573 675 LINE",
"702 675 OFFCURVE",
"782 753 OFFCURVE",
"782 874 CURVE SMOOTH",
"782 983 OFFCURVE",
"706 1047 OFFCURVE",
"596 1047 CURVE SMOOTH",
"440 1047 OFFCURVE",
"362 961 OFFCURVE",
"362 790 CURVE SMOOTH",
"362 116 LINE",
"493 116 LINE",
"493 0 LINE",
"72 0 LINE",
"72 116 LINE",
"222 116 LINE"
);
}
);
width = 1114;
},
{
layerId = "EFCDB4D9-E20B-4A8D-9DB5-150AD166B0AE";
name = Bold;
paths = (
{
closed = 1;
nodes = (
"409 141 LINE",
"409 828 LINE SMOOTH",
"409 1014 OFFCURVE",
"488 1079 OFFCURVE",
"614 1079 CURVE SMOOTH",
"717 1079 OFFCURVE",
"781 1014 OFFCURVE",
"781 920 CURVE SMOOTH",
"781 819 OFFCURVE",
"725 726 OFFCURVE",
"578 726 CURVE",
"578 586 LINE",
"805 586 OFFCURVE",
"882 492 OFFCURVE",
"882 368 CURVE SMOOTH",
"882 197 OFFCURVE",
"762 141 OFFCURVE",
"616 141 CURVE",
"616 0 LINE",
"966 0 OFFCURVE",
"1097 155 OFFCURVE",
"1097 368 CURVE SMOOTH",
"1097 526 OFFCURVE",
"992 636 OFFCURVE",
"809 678 CURVE",
"929 726 OFFCURVE",
"983 814 OFFCURVE",
"983 931 CURVE SMOOTH",
"983 1110 OFFCURVE",
"831 1233 OFFCURVE",
"614 1233 CURVE SMOOTH",
"333 1233 OFFCURVE",
"196 1082 OFFCURVE",
"196 824 CURVE SMOOTH",
"196 141 LINE",
"43 141 LINE",
"43 0 LINE",
"525 0 LINE",
"525 141 LINE"
);
}
);
width = 1143;
}
);
unicode = 00DF;
userData = {
com.typemytype.robofont.layerData = {
b = {
anchors = (
);
components = (
);
contours = (
);
lib = {
};
name = germandbls;
unicodes = (
);
width = 1174;
};
};
};
},
{
glyphname = ae;
lastChange = "2013-12-15 19:09:22 -0800";
layers = (
{
layerId = "98C086B7-81AA-4491-8494-0C6A76849168";
name = Light;
paths = (
{
closed = 1;
nodes = (
"425 -14 CURVE SMOOTH",
"544 -14 OFFCURVE",
"693 0 OFFCURVE",
"820 116 CURVE",
"899 25 OFFCURVE",
"1006 -14 OFFCURVE",
"1137 -14 CURVE SMOOTH",
"1259 -14 OFFCURVE",
"1390 35 OFFCURVE",
"1507 149 CURVE",
"1474 204 LINE",
"1384 105 OFFCURVE",
"1262 52 OFFCURVE",
"1140 52 CURVE SMOOTH",
"910 52 OFFCURVE",
"815 164 OFFCURVE",
"815 400 CURVE",
"1506 400 LINE",
"1506 648 OFFCURVE",
"1375 854 OFFCURVE",
"1156 854 CURVE SMOOTH",
"988 854 OFFCURVE",
"870 766 OFFCURVE",
"803 641 CURVE",
"780 746 OFFCURVE",
"702 854 OFFCURVE",
"497 854 CURVE SMOOTH",
"363 854 OFFCURVE",
"253 826 OFFCURVE",
"179 755 CURVE",
"215 696 LINE",
"275 757 OFFCURVE",
"370 787 OFFCURVE",
"495 787 CURVE SMOOTH",
"642 787 OFFCURVE",
"733 736 OFFCURVE",
"733 575 CURVE SMOOTH",
"739 446 LINE",
"658 462 OFFCURVE",
"579 475 OFFCURVE",
"502 475 CURVE SMOOTH",
"324 475 OFFCURVE",
"139 452 OFFCURVE",
"139 232 CURVE SMOOTH",
"139 101 OFFCURVE",
"232 -14 OFFCURVE"
);
},
{
closed = 1;
nodes = (
"817 466 LINE",
"826 623 OFFCURVE",
"939 787 OFFCURVE",
"1156 787 CURVE SMOOTH",
"1321 787 OFFCURVE",
"1415 632 OFFCURVE",
"1428 466 CURVE"
);
},
{
closed = 1;
nodes = (
"790 164 CURVE",
"651 56 OFFCURVE",
"561 53 OFFCURVE",
"435 53 CURVE SMOOTH",
"273 53 OFFCURVE",
"220 148 OFFCURVE",
"220 230 CURVE SMOOTH",
"220 407 OFFCURVE",
"377 410 OFFCURVE",
"498 410 CURVE SMOOTH",
"510 410 LINE SMOOTH",
"612 410 OFFCURVE",
"739 384 OFFCURVE",
"739 384 CURVE",
"739 326 OFFCURVE",
"760 224 OFFCURVE"
);
}
);
width = 1638;
},
{
layerId = "1F09728C-766D-4240-AE17-E499EF32E23D";
name = Regular;
paths = (
{
closed = 1;
nodes = (
"1217 467 LINE",
"1197 603 OFFCURVE",
"1133 713 OFFCURVE",
"998 713 CURVE SMOOTH",
"860 713 OFFCURVE",
"780 601 OFFCURVE",
"763 467 CURVE"
);
},
{
closed = 1;
nodes = (
"601 356 LINE",
"547 357 OFFCURVE",
"475 368 OFFCURVE",
"412 368 CURVE SMOOTH",
"268 368 OFFCURVE",
"196 319 OFFCURVE",
"196 221 CURVE SMOOTH",
"196 149 OFFCURVE",
"256 96 OFFCURVE",
"327 96 CURVE SMOOTH",
"463 96 OFFCURVE",
"569 130 OFFCURVE",
"646 197 CURVE"
);
},
{
closed = 1;
nodes = (
"698 640 CURVE",
"779 792 OFFCURVE",
"903 833 OFFCURVE",
"1007 833 CURVE SMOOTH",
"1221 833 OFFCURVE",
"1360 642 OFFCURVE",
"1360 365 CURVE",
"759 365 LINE",
"777 213 OFFCURVE",
"848 101 OFFCURVE",
"998 101 CURVE SMOOTH",
"1004 101 LINE SMOOTH",
"1101 101 OFFCURVE",
"1177 140 OFFCURVE",
"1232 217 CURVE",
"1360 161 LINE",
"1287 38 OFFCURVE",
"1168 -23 OFFCURVE",
"1001 -23 CURVE SMOOTH",
"872 -23 OFFCURVE",
"767 19 OFFCURVE",
"687 103 CURVE",
"560 24 OFFCURVE",
"443 -16 OFFCURVE",
"337 -16 CURVE SMOOTH",
"332 -16 LINE SMOOTH",
"182 -16 OFFCURVE",
"56 79 OFFCURVE",
"55 221 CURVE",
"55 387 OFFCURVE",
"171 470 OFFCURVE",
"402 470 CURVE SMOOTH",
"463 470 OFFCURVE",
"527 463 OFFCURVE",
"595 450 CURVE",
"595 547 LINE SMOOTH",
"595 655 OFFCURVE",
"530 709 OFFCURVE",
"399 709 CURVE SMOOTH",
"315 709 OFFCURVE",
"253 681 OFFCURVE",
"214 626 CURVE",
"74 665 LINE",
"137 773 OFFCURVE",
"252 827 OFFCURVE",
"419 827 CURVE SMOOTH",
"537 827 OFFCURVE",
"657 771 OFFCURVE"
);
}
);
width = 1417;
},
{
layerId = "EFCDB4D9-E20B-4A8D-9DB5-150AD166B0AE";
name = Bold;
paths = (
{
closed = 1;
nodes = (
"353 -19 CURVE SMOOTH",
"509 -19 OFFCURVE",
"642 30 OFFCURVE",
"745 109 CURVE",
"824 29 OFFCURVE",
"939 -19 OFFCURVE",
"1081 -19 CURVE SMOOTH",
"1244 -19 OFFCURVE",
"1372 39 OFFCURVE",
"1443 137 CURVE",
"1335 241 LINE",
"1271 171 OFFCURVE",
"1176 132 OFFCURVE",
"1090 132 CURVE SMOOTH",
"925 132 OFFCURVE",
"843 238 OFFCURVE",
"833 383 CURVE",
"1479 383 LINE",
"1479 655 OFFCURVE",
"1343 866 OFFCURVE",
"1082 866 CURVE SMOOTH",
"958 866 OFFCURVE",
"850 822 OFFCURVE",
"768 715 CURVE",
"698 831 OFFCURVE",
"618 866 OFFCURVE",
"461 866 CURVE SMOOTH",
"305 866 OFFCURVE",
"183 826 OFFCURVE",
"103 748 CURVE",
"204 636 LINE",
"265 697 OFFCURVE",
"334 730 OFFCURVE",
"443 730 CURVE SMOOTH",
"547 730 OFFCURVE",
"626 681 OFFCURVE",
"626 571 CURVE SMOOTH",
"626 485 LINE",
"558 498 OFFCURVE",
"497 506 OFFCURVE",
"434 506 CURVE SMOOTH",
"222 506 OFFCURVE",
"63 432 OFFCURVE",
"63 233 CURVE SMOOTH",
"63 100 OFFCURVE",
"176 -19 OFFCURVE"
);
},
{
closed = 1;
nodes = (
"836 501 LINE",
"856 634 OFFCURVE",
"933 721 OFFCURVE",
"1071 721 CURVE SMOOTH",
"1197 721 OFFCURVE",
"1288 626 OFFCURVE",
"1288 501 CURVE"
);
},
{
closed = 1;
nodes = (
"672 213 CURVE",
"602 163 OFFCURVE",
"501 111 OFFCURVE",
"395 111 CURVE SMOOTH",
"305 111 OFFCURVE",
"250 168 OFFCURVE",
"250 239 CURVE SMOOTH",
"250 356 OFFCURVE",
"343 385 OFFCURVE",
"446 385 CURVE SMOOTH",
"511 385 OFFCURVE",
"575 372 OFFCURVE",
"626 368 CURVE",
"629 363 LINE",
"635 308 OFFCURVE",
"649 258 OFFCURVE"
);
},
{
closed = 0;
nodes = (
"771 849 LINE"
);
}
);
width = 1542;
}
);
leftKerningGroup = a_Right;
unicode = 00E6;
userData = {
com.typemytype.robofont.layerData = {
b = {
anchors = (
);
components = (
);
contours = (
);
lib = {
};
name = ae;
unicodes = (
);
width = 1638;
};
};
};
},
{
glyphname = eth;
lastChange = "2013-12-15 19:09:22 -0800";
layers = (
{
layerId = "98C086B7-81AA-4491-8494-0C6A76849168";
name = Light;
paths = (
{
closed = 1;
nodes = (
"114 1301 LINE",
"183 1247 OFFCURVE",
"261 1191 OFFCURVE",
"323 1132 CURVE",
"75 1040 LINE",
"103 987 LINE",
"369 1088 LINE",
"515 959 OFFCURVE",
"622 825 OFFCURVE",
"691 690 CURVE",
"619 760 OFFCURVE",
"515 796 OFFCURVE",
"436 796 CURVE SMOOTH",
"230 796 OFFCURVE",
"53 632 OFFCURVE",
"53 421 CURVE SMOOTH",
"53 193 OFFCURVE",
"191 -23 OFFCURVE",
"452 -23 CURVE SMOOTH",
"662 -23 OFFCURVE",
"839 129 OFFCURVE",
"839 391 CURVE SMOOTH",
"839 523 OFFCURVE",
"780 786 OFFCURVE",
"430 1118 CURVE",
"693 1220 LINE",
"664 1270 LINE",
"385 1163 LINE",
"320 1226 OFFCURVE",
"244 1283 OFFCURVE",
"159 1351 CURVE"
);
},
{
closed = 1;
nodes = (
"135 404 CURVE SMOOTH",
"135 620 OFFCURVE",
"291 728 OFFCURVE",
"447 728 CURVE SMOOTH",
"604 728 OFFCURVE",
"762 617 OFFCURVE",
"762 394 CURVE SMOOTH",
"762 219 OFFCURVE",
"662 49 OFFCURVE",
"452 49 CURVE SMOOTH",
"239 49 OFFCURVE",
"135 227 OFFCURVE"
);
}
);
width = 920;
},
{
layerId = "1F09728C-766D-4240-AE17-E499EF32E23D";
name = Regular;
paths = (
{
closed = 1;
nodes = (
"710 509 CURVE",
"636 564 OFFCURVE",
"544 592 OFFCURVE",
"433 592 CURVE SMOOTH",
"310 592 OFFCURVE",
"230 490 OFFCURVE",
"230 362 CURVE SMOOTH",
"230 217 OFFCURVE",
"308 116 OFFCURVE",
"460 116 CURVE SMOOTH",
"652 116 OFFCURVE",
"695 304 OFFCURVE"
);
},
{
closed = 1;
nodes = (
"154 1082 LINE",
"229 1141 OFFCURVE",
"329 1171 OFFCURVE",
"455 1171 CURVE SMOOTH",
"604 1171 OFFCURVE",
"714 1105 OFFCURVE",
"785 974 CURVE",
"946 1006 LINE",
"967 905 LINE",
"825 877 LINE",
"853 790 OFFCURVE",
"867 693 OFFCURVE",
"867 588 CURVE SMOOTH",
"867 247 OFFCURVE",
"765 -18 OFFCURVE",
"454 -18 CURVE SMOOTH",
"232 -18 OFFCURVE",
"85 144 OFFCURVE",
"85 362 CURVE SMOOTH",
"85 580 OFFCURVE",
"223 721 OFFCURVE",
"444 722 CURVE SMOOTH",
"557 722 OFFCURVE",
"648 695 OFFCURVE",
"716 639 CURVE",
"716 716 OFFCURVE",
"706 786 OFFCURVE",
"686 849 CURVE",
"460 804 LINE",
"440 905 LINE",
"640 945 LINE",
"593 1012 OFFCURVE",
"526 1045 OFFCURVE",
"440 1045 CURVE SMOOTH",
"354 1045 OFFCURVE",
"278 1020 OFFCURVE",
"209 969 CURVE"
);
}
);
width = 947;
},
{
layerId = "EFCDB4D9-E20B-4A8D-9DB5-150AD166B0AE";
name = Bold;
paths = (
{
closed = 1;
nodes = (
"478 605 CURVE SMOOTH",
"547 605 OFFCURVE",
"653 571 OFFCURVE",
"720 498 CURVE",
"704 267 OFFCURVE",
"644 133 OFFCURVE",
"482 133 CURVE SMOOTH",
"343 133 OFFCURVE",
"271 237 OFFCURVE",
"271 380 CURVE SMOOTH",
"271 513 OFFCURVE",
"347 605 OFFCURVE"
);
},
{
closed = 1;
nodes = (
"545 848 LINE",
"695 888 LINE",
"714 828 OFFCURVE",
"724 753 OFFCURVE",
"724 663 CURVE",
"654 731 OFFCURVE",
"553 765 OFFCURVE",
"443 765 CURVE SMOOTH",
"232 765 OFFCURVE",
"86 614 OFFCURVE",
"86 397 CURVE SMOOTH",
"86 147 OFFCURVE",
"232 -19 OFFCURVE",
"476 -19 CURVE SMOOTH",
"769 -19 OFFCURVE",
"917 194 OFFCURVE",
"917 596 CURVE SMOOTH",
"917 726 OFFCURVE",
"900 840 OFFCURVE",
"866 934 CURVE",
"1004 971 LINE",
"969 1091 LINE",
"811 1048 LINE",
"735 1167 OFFCURVE",
"617 1233 OFFCURVE",
"456 1233 CURVE SMOOTH",
"355 1233 OFFCURVE",
"237 1190 OFFCURVE",
"177 1144 CURVE",
"243 1020 LINE",
"321 1060 OFFCURVE",
"394 1081 OFFCURVE",
"458 1081 CURVE SMOOTH",
"530 1081 OFFCURVE",
"591 1055 OFFCURVE",
"636 1001 CURVE",
"510 968 LINE"
);
}
);
width = 1006;
}
);
leftKerningGroup = o_Right;
unicode = 00F0;
userData = {
com.typemytype.robofont.layerData = {
b = {
anchors = (
);
components = (
);
contours = (
);
lib = {
};
name = eth;
unicodes = (
);
width = 920;
};
};
};
},
{
glyphname = oslash;
lastChange = "2013-12-15 19:09:22 -0800";
layers = (
{
layerId = "98C086B7-81AA-4491-8494-0C6A76849168";
name = Light;
paths = (
{
closed = 1;
nodes = (
"681 752 CURVE",
"344 92 LINE",
"232 146 OFFCURVE",
"148 257 OFFCURVE",
"148 424 CURVE SMOOTH",
"148 661 OFFCURVE",
"330 787 OFFCURVE",
"515 787 CURVE SMOOTH",
"572 787 OFFCURVE",
"629 775 OFFCURVE"
);
},
{
closed = 1;
nodes = (
"723 730 LINE",
"819 671 OFFCURVE",
"888 568 OFFCURVE",
"888 424 CURVE SMOOTH",
"888 178 OFFCURVE",
"701 53 OFFCURVE",
"515 53 CURVE SMOOTH",
"471 53 OFFCURVE",
"428 60 OFFCURVE",
"387 74 CURVE"
);
},
{
closed = 1;
nodes = (
"968 424 CURVE SMOOTH",
"968 603 OFFCURVE",
"878 727 OFFCURVE",
"756 794 CURVE",
"869 1015 LINE",
"828 1039 LINE",
"713 814 LINE",
"651 840 OFFCURVE",
"583 854 OFFCURVE",
"515 854 CURVE SMOOTH",
"288 854 OFFCURVE",
"66 706 OFFCURVE",
"66 424 CURVE SMOOTH",
"66 226 OFFCURVE",
"172 93 OFFCURVE",
"312 29 CURVE",
"209 -172 LINE",
"249 -196 LINE",
"355 12 LINE",
"406 -5 OFFCURVE",
"461 -14 OFFCURVE",
"515 -14 CURVE SMOOTH",
"741 -14 OFFCURVE",
"968 134 OFFCURVE"
);
}
);
width = 1039;
},
{
layerId = "1F09728C-766D-4240-AE17-E499EF32E23D";
name = Regular;
paths = (
{
closed = 1;
nodes = (
"750 407 CURVE SMOOTH",
"750 496 OFFCURVE",
"721 569 OFFCURVE",
"663 624 CURVE",
"404 117 LINE",
"427 110 OFFCURVE",
"456 107 OFFCURVE",
"491 107 CURVE SMOOTH",
"651 107 OFFCURVE",
"750 241 OFFCURVE"
);
},
{
closed = 1;
nodes = (
"575 678 LINE",
"546 689.688 OFFCURVE",
"513 695 OFFCURVE",
"476 695 CURVE SMOOTH",
"311 695 OFFCURVE",
"216 560.562 OFFCURVE",
"216 388 CURVE SMOOTH",
"216 295 OFFCURVE",
"248 221 OFFCURVE",
"312 166 CURVE"
);
},
{
closed = 1;
nodes = (
"635 796 CURVE",
"702 926 LINE",
"796 883 LINE",
"728 751 LINE",
"828 687 OFFCURVE",
"910 566 OFFCURVE",
"910 414 CURVE SMOOTH",
"910 160 OFFCURVE",
"746 -18 OFFCURVE",
"496 -18 CURVE SMOOTH",
"440 -18 OFFCURVE",
"389 -12 OFFCURVE",
"344 1 CURVE",
"279 -126 LINE",
"185 -83 LINE",
"249 43 LINE",
"145 107 OFFCURVE",
"57 233 OFFCURVE",
"57 388 CURVE SMOOTH",
"57 644 OFFCURVE",
"228 820 OFFCURVE",
"484 820 CURVE SMOOTH",
"539 820 OFFCURVE",
"589 812 OFFCURVE"
);
}
);
width = 966;
},
{
layerId = "EFCDB4D9-E20B-4A8D-9DB5-150AD166B0AE";
name = Bold;
paths = (
{
closed = 1;
nodes = (
"574 677 CURVE",
"314 168 LINE",
"251 221 OFFCURVE",
"217 305 OFFCURVE",
"217 402 CURVE SMOOTH",
"217 566 OFFCURVE",
"319 692 OFFCURVE",
"483 692 CURVE SMOOTH",
"515 692 OFFCURVE",
"545 687 OFFCURVE"
);
},
{
closed = 1;
nodes = (
"663 623 LINE",
"719 571 OFFCURVE",
"751 493 OFFCURVE",
"751 402 CURVE SMOOTH",
"751 236 OFFCURVE",
"648 111 OFFCURVE",
"483 111 CURVE SMOOTH",
"455 111 OFFCURVE",
"429 114 OFFCURVE",
"406 120 CURVE"
);
},
{
closed = 1;
nodes = (
"911 402 CURVE SMOOTH",
"911 550 OFFCURVE",
"844 678 OFFCURVE",
"730 753 CURVE",
"796 883 LINE",
"702 926 LINE",
"637 799 LINE",
"592 816 OFFCURVE",
"541 824 OFFCURVE",
"485 824 CURVE SMOOTH",
"224 824 OFFCURVE",
"58 633 OFFCURVE",
"58 402 CURVE SMOOTH",
"58 251 OFFCURVE",
"127 116 OFFCURVE",
"248 41 CURVE",
"185 -83 LINE",
"279 -126 LINE",
"343 -1 LINE",
"386 -13 OFFCURVE",
"432 -20 OFFCURVE",
"483 -20 CURVE SMOOTH",
"744 -20 OFFCURVE",
"911 171 OFFCURVE"
);
},
{
closed = 0;
nodes = (
"484 849 LINE"
);
}
);
width = 967;
}
);
leftKerningGroup = o_Right;
rightKerningGroup = o_Left;
unicode = 00F8;
userData = {
com.typemytype.robofont.layerData = {
b = {
anchors = (
);
components = (
);
contours = (
);
lib = {
};
name = oslash;
unicodes = (
);
width = 1039;
};
};
};
},
{
glyphname = thorn;
lastChange = "2013-12-15 19:09:22 -0800";
layers = (
{
layerId = "98C086B7-81AA-4491-8494-0C6A76849168";
name = Light;
paths = (
{
closed = 1;
nodes = (
"24 1234 LINE",
"24 1174 LINE",
"173 1174 LINE",
"173 -300 LINE",
"8 -300 LINE",
"8 -360 LINE",
"249 -360 LINE",
"252 125 LINE",
"299 73 OFFCURVE",
"449 -14 OFFCURVE",
"614 -14 CURVE SMOOTH",
"933 -14 OFFCURVE",
"1050 240 OFFCURVE",
"1050 434 CURVE SMOOTH",
"1050 644 OFFCURVE",
"897 854 OFFCURVE",
"611 854 CURVE SMOOTH",
"461 854 OFFCURVE",
"327 784 OFFCURVE",
"252 695 CURVE",
"252 1234 LINE"
);
},
{
closed = 1;
nodes = (
"971 426 CURVE SMOOTH",
"971 245 OFFCURVE",
"857 53 OFFCURVE",
"617 53 CURVE SMOOTH",
"495 53 OFFCURVE",
"397 82 OFFCURVE",
"252 193 CURVE",
"252 619 LINE",
"386 756 OFFCURVE",
"488 787 OFFCURVE",
"615 787 CURVE SMOOTH",
"835 787 OFFCURVE",
"971 624 OFFCURVE"
);
}
);
width = 1083;
},
{
layerId = "1F09728C-766D-4240-AE17-E499EF32E23D";
name = Regular;
paths = (
{
closed = 1;
nodes = (
"850 396 CURVE SMOOTH",
"850 566 OFFCURVE",
"743 694 OFFCURVE",
"570 694 CURVE SMOOTH",
"482 694 OFFCURVE",
"398 651 OFFCURVE",
"319 564 CURVE",
"319 229 LINE",
"399 144 OFFCURVE",
"471 107 OFFCURVE",
"582 107 CURVE SMOOTH",
"747 107 OFFCURVE",
"850 231 OFFCURVE"
);
},
{
closed = 1;
nodes = (
"25 1153 LINE",
"319 1153 LINE",
"319 707 LINE",
"401 782 OFFCURVE",
"501 820 OFFCURVE",
"619 820 CURVE SMOOTH",
"855 820 OFFCURVE",
"1012 641 OFFCURVE",
"1013 406 CURVE SMOOTH",
"1014 169 OFFCURVE",
"852 -18 OFFCURVE",
"614 -18 CURVE SMOOTH",
"494 -18 OFFCURVE",
"375 23 OFFCURVE",
"318 91 CURVE",
"318 -303 LINE",
"24 -303 LINE",
"24 -179 LINE",
"168 -179 LINE",
"168 1037 LINE",
"25 1037 LINE"
);
}
);
width = 1026;
},
{
layerId = "EFCDB4D9-E20B-4A8D-9DB5-150AD166B0AE";
name = Bold;
paths = (
{
closed = 1;
nodes = (
"-100 1215 LINE",
"-100 1075 LINE",
"47 1075 LINE",
"47 -186 LINE",
"-96 -186 LINE",
"-96 -330 LINE",
"245 -330 LINE",
"245 104 LINE",
"310 23 OFFCURVE",
"424 -19 OFFCURVE",
"535 -19 CURVE SMOOTH",
"762 -19 OFFCURVE",
"939 159 OFFCURVE",
"939 433 CURVE SMOOTH",
"939 677 OFFCURVE",
"781 866 OFFCURVE",
"536 866 CURVE SMOOTH",
"418 866 OFFCURVE",
"331 830 OFFCURVE",
"245 750 CURVE",
"245 1215 LINE"
);
},
{
closed = 1;
nodes = (
"732 419 CURVE SMOOTH",
"732 253 OFFCURVE",
"640 137 OFFCURVE",
"480 137 CURVE SMOOTH",
"357 137 OFFCURVE",
"268 228 OFFCURVE",
"245 253 CURVE",
"245 587 LINE",
"266 613 OFFCURVE",
"354 710 OFFCURVE",
"479 710 CURVE SMOOTH",
"638 710 OFFCURVE",
"732 586 OFFCURVE"
);
}
);
width = 835;
}
);
rightKerningGroup = o_Left;
unicode = 00FE;
userData = {
com.typemytype.robofont.layerData = {
b = {
anchors = (
);
components = (
);
contours = (
);
lib = {
};
name = thorn;
unicodes = (
);
width = 1083;
};
};
};
},
